<svg width="122" height="25" viewBox="0 0 122 25" fill="none" xmlns="http://www.w3.org/2000/svg">
<path d="M11.3899 2.5549C11.6512 1.75072 12.7888 1.75072 13.0501 2.5549L14.7676 7.84068C14.8844 8.20032 15.2196 8.44381 15.5977 8.44381H21.1555C22.0011 8.44381 22.3526 9.52582 21.6686 10.0228L17.1722 13.2896C16.8663 13.5119 16.7383 13.9059 16.8551 14.2655L18.5726 19.5513C18.8339 20.3555 17.9135 21.0242 17.2294 20.5272L12.733 17.2604C12.4271 17.0381 12.0129 17.0381 11.7069 17.2604L7.21059 20.5272C6.52652 21.0242 5.60611 20.3555 5.8674 19.5513L7.58485 14.2655C7.70171 13.9059 7.5737 13.5119 7.26777 13.2896L2.77141 10.0228C2.08734 9.52582 2.43891 8.44381 3.28447 8.44381H8.84227C9.22041 8.44381 9.55555 8.20032 9.67241 7.84068L11.3899 2.5549Z" fill="#F99C3B"/>
<path d="M35.3899 2.5549C35.6512 1.75072 36.7888 1.75072 37.0501 2.5549L38.7676 7.84068C38.8844 8.20032 39.2196 8.44381 39.5977 8.44381H45.1555C46.0011 8.44381 46.3526 9.52582 45.6686 10.0228L41.1722 13.2896C40.8663 13.5119 40.7383 13.9059 40.8551 14.2655L42.5726 19.5513C42.8339 20.3555 41.9135 21.0242 41.2294 20.5272L36.733 17.2604C36.4271 17.0381 36.0129 17.0381 35.7069 17.2604L31.2106 20.5272C30.5265 21.0242 29.6061 20.3555 29.8674 19.5513L31.5849 14.2655C31.7017 13.9059 31.5737 13.5119 31.2678 13.2896L26.7714 10.0228C26.0873 9.52582 26.4389 8.44381 27.2845 8.44381H32.8423C33.2204 8.44381 33.5556 8.20032 33.6724 7.84068L35.3899 2.5549Z" fill="#F99C3B"/>
<path d="M60.3899 2.5549C60.6512 1.75072 61.7888 1.75072 62.0501 2.5549L63.7676 7.84068C63.8844 8.20032 64.2196 8.44381 64.5977 8.44381H70.1555C71.0011 8.44381 71.3526 9.52582 70.6686 10.0228L66.1722 13.2896C65.8663 13.5119 65.7383 13.9059 65.8551 14.2655L67.5726 19.5513C67.8339 20.3555 66.9135 21.0242 66.2294 20.5272L61.733 17.2604C61.4271 17.0381 61.0129 17.0381 60.7069 17.2604L56.2106 20.5272C55.5265 21.0242 54.6061 20.3555 54.8674 19.5513L56.5849 14.2655C56.7017 13.9059 56.5737 13.5119 56.2678 13.2896L51.7714 10.0228C51.0873 9.52582 51.4389 8.44381 52.2845 8.44381H57.8423C58.2204 8.44381 58.5556 8.20032 58.6724 7.84068L60.3899 2.5549Z" fill="#F99C3B"/>
<path d="M84.3899 2.5549C84.6512 1.75072 85.7888 1.75072 86.0501 2.5549L87.7676 7.84068C87.8844 8.20032 88.2196 8.44381 88.5977 8.44381H94.1555C95.0011 8.44381 95.3526 9.52582 94.6686 10.0228L90.1722 13.2896C89.8663 13.5119 89.7383 13.9059 89.8551 14.2655L91.5726 19.5513C91.8339 20.3555 90.9135 21.0242 90.2294 20.5272L85.733 17.2604C85.4271 17.0381 85.0129 17.0381 84.7069 17.2604L80.2106 20.5272C79.5265 21.0242 78.6061 20.3555 78.8674 19.5513L80.5849 14.2655C80.7017 13.9059 80.5737 13.5119 80.2678 13.2896L75.7714 10.0228C75.0873 9.52582 75.4389 8.44381 76.2845 8.44381H81.8423C82.2204 8.44381 82.5556 8.20032 82.6724 7.84068L84.3899 2.5549Z" fill="#F99C3B"/>
<path d="M108.39 2.5549C108.651 1.75072 109.789 1.75072 110.05 2.5549L111.768 7.84068C111.884 8.20032 112.22 8.44381 112.598 8.44381H118.156C119.001 8.44381 119.353 9.52582 118.669 10.0228L114.172 13.2896C113.866 13.5119 113.738 13.9059 113.855 14.2655L115.573 19.5513C115.834 20.3555 114.913 21.0242 114.229 20.5272L109.733 17.2604C109.427 17.0381 109.013 17.0381 108.707 17.2604L104.211 20.5272C103.527 21.0242 102.606 20.3555 102.867 19.5513L104.585 14.2655C104.702 13.9059 104.574 13.5119 104.268 13.2896L99.7714 10.0228C99.0873 9.52582 99.4389 8.44381 100.284 8.44381H105.842C106.22 8.44381 106.556 8.20032 106.672 7.84068L108.39 2.5549Z" fill="#F99C3B"/>
</svg>
