<svg width="580" height="382" viewBox="0 0 580 382" fill="none" xmlns="http://www.w3.org/2000/svg">
<path d="M189.633 309.94C188.334 306.508 188.396 302.938 188.43 299.347C188.453 296.937 188.999 294.837 185.626 293.106C182.89 291.701 183.935 287.109 183.589 283.873C185.419 275.873 185.142 267.862 183.713 259.846C184.976 254.592 187.527 250.047 184.908 243.743C183.159 239.534 182.085 232.499 187.757 228.169C188.502 227.6 189.331 226.52 189.32 225.687C189.235 219.073 193.573 219.399 198.192 219.619C203.352 219.865 208.531 219.743 213.701 219.78C215.933 222.155 219.605 219.249 221.742 221.973C218.514 225.375 214.334 222.759 210.712 223.918C215.985 222.83 221.365 223.822 226.622 222.749C229.116 222.685 227.807 220.387 228.624 219.338C230.677 218.346 232.542 219.006 233.191 220.918C234.902 225.965 239.319 230.108 238.457 236.003C236.951 246.301 237.97 256.569 238.674 266.845C237.065 272.516 236.989 278.186 238.707 283.851C238.395 292.436 238.084 301.021 237.773 309.606C243.394 311.929 249.068 311.36 254.757 309.909C256.336 309.26 255.79 308.166 255.435 307.02C253.728 301.52 251.076 296.253 251.427 290.237C251.495 289.058 250.938 287.961 249.324 288.198C246.579 288.6 246.307 288.555 246.662 285.506C248.301 271.463 249.127 257.398 248.42 243.262C248.235 239.574 247.349 235.869 249.539 232.344C250.172 231.329 251.153 231.361 251.805 230.695C251.87 231.511 251.935 232.328 252.045 233.709C252.834 232.149 252.809 231.325 251.727 230.76C250.188 227.695 251.406 224.607 251.763 221.564C252.08 218.839 254.325 219.501 256.082 219.616C257.818 219.728 259.36 219.746 260.216 217.773C261.252 215.383 257.761 216.552 258.072 214.516C263.569 216.704 263.883 212.643 264.659 208.592C259.013 209.229 253.36 209.945 248.051 207.373C247.199 206.958 245.391 206.996 245.644 206.023C247.611 198.447 240.573 201.095 237.786 198.992C237.2 198.55 236.255 198.584 235.497 198.103C240.506 197.754 245.51 197.28 250.468 198.383C252.224 198.775 254.667 199.332 254.297 201.575C253.217 208.113 258.832 205.845 261.516 207.178C262.736 207.785 264.617 207.161 266.247 207.257C270.879 207.531 271.075 207.315 268.793 211.22C267.42 213.567 268.397 214.153 270.255 215.346C273.865 217.667 277.867 217.473 281.788 217.876C287.986 218.513 294.142 220.491 300.381 217.485C304.199 215.646 304.841 222.177 308.624 221.256C308.155 222.107 307.685 222.957 307.216 223.808C306.06 225.713 299.725 223.086 302.885 228.763C306.241 229.214 309.322 230.122 310.903 233.549C312.008 235.391 313.84 234.726 315.393 234.747C321.516 234.829 327.644 234.932 333.762 234.759C336.472 234.682 339.387 235.771 341.9 233.818C346.18 234.398 349.872 233.394 352.743 229.951C354.69 227.615 357.652 228.517 360.092 228.143C361.885 227.869 361.535 230.085 360.941 231.195C359.176 234.508 360.946 235.284 363.737 235.311C369.047 235.365 374.358 235.328 379.652 235.328C379.807 237.502 377.098 235.972 377.864 238.653C379.657 238.653 382.868 239.569 383.854 238.476C386.465 235.58 389.606 237.201 392.323 236.304C393.402 235.949 392.895 234.545 393.085 233.614C393.616 231.016 394.11 228.407 394.677 225.817C394.763 225.422 395.159 225.096 395.468 224.661C396.817 225.864 396.941 227.304 396.887 228.802C395.932 229.54 396.046 230.188 397.055 230.758C397.138 230.955 397.246 231.146 397.291 231.35C397.313 231.444 397.212 231.565 397.166 231.674C395.287 236.35 395.464 241.051 396.995 245.769C402.111 247.567 406.33 244.307 411.542 243.521C409.329 242.153 407.591 242.926 405.903 242.99C404.793 243.03 403.375 243.557 403.024 242.002C402.646 240.324 404.258 240.248 405.288 240.01C409.184 239.111 413.127 238.414 417.008 237.466C418.763 237.038 421.808 237.48 421.324 234.615C420.982 232.587 418.476 233.857 416.983 233.838C411.415 233.761 405.764 234.437 400.093 231.387C406.519 229.451 412.615 229.165 418.68 229.583C422.299 229.832 423.466 228.42 423.542 225.165C423.632 221.331 423.839 217.498 424.03 213.667C424.106 212.149 424.321 210.302 426.01 210.074C427.85 209.826 428.285 211.79 428.67 213.161C429.829 217.283 429.289 221.44 428.546 225.559C428.087 228.103 428.193 229.521 431.622 229.368C443.785 228.823 455.946 228.422 468.032 226.793C472.565 226.182 474.73 223.424 472.663 219.42C471.646 217.451 470.901 215.46 470.632 213.483C469.889 208.034 466.345 204.774 462.445 201.626C460.182 199.8 457.446 198.323 457.464 194.748C457.467 194.075 456.603 193.398 456.138 192.723C452.632 195.312 450.818 191.439 448.176 190.791C445.927 190.24 443.379 190.505 441.118 192.246C436.598 195.728 432.615 199.723 428.662 203.796C427.369 205.128 425.728 207.405 423.735 205.953C421.761 204.515 424.183 202.783 424.625 201.17C424.708 200.791 424.792 200.413 424.877 200.035C424.476 200.111 424.075 200.188 423.673 200.265C419.578 202.668 418.892 202.316 418.256 197.467C417.86 194.448 416.343 193.193 413.839 195.397C409.661 199.075 404.427 201.543 401.324 206.499C400.595 207.663 399.745 210.11 397.692 208.895C395.432 207.557 398.737 206.169 398.173 204.626C398.17 204.627 398.085 204.704 398.085 204.704C400.37 200.097 402.855 195.718 408.209 193.952C410.188 193.3 410.581 192.011 410.206 189.73C409.666 186.447 410.884 183.648 414.471 182.161C417.894 180.743 416.729 175.78 420.16 174.051C421.066 173.594 421.585 172.365 422.243 171.538C424.266 172.257 421.606 174.377 423.461 174.709C424.709 174.933 425.549 173.956 426.031 172.753C426.667 171.17 427.604 169.111 425.777 168.265C422.333 166.672 419.383 163.384 414.788 165.018C410.343 166.597 405.593 166.527 400.915 166.47C378.382 166.195 355.849 165.927 333.318 165.58C328.59 165.507 323.866 165.114 318.896 165.35C322.068 167.248 325.542 168.625 326.658 172.474C326.942 173.452 327.214 174.502 326.267 175.236C325.48 175.846 324.692 175.286 323.979 174.884C319.545 172.38 315.493 168.792 309.724 170.184C309.255 170.296 308.072 169.333 307.959 168.731C307.253 164.982 306.024 166.752 304.756 168.332C304.548 168.593 304.404 168.989 304.135 169.105C299.801 170.978 294.246 170.2 291.461 175.658C290.967 176.626 288.554 174.924 289.428 172.719C290.895 169.01 293.237 165.833 296.947 164.401C300.945 162.857 304.575 160.156 309.068 160.042C311.216 159.988 311.927 158.863 312.065 156.91C312.217 154.75 312.192 152.476 312.888 150.477C314.055 147.129 314.311 145.495 309.664 145.588C305.738 145.667 307.447 142.538 308.711 141.13C310.953 138.632 310.063 135.465 311.183 132.832C312.199 130.447 315.633 129.25 314.585 125.46C301.697 128.152 287.585 124.594 275.534 133.738C279.749 135.161 283.81 136.415 287.782 137.905C292.047 139.504 292.582 141.572 289.03 144.488C287.265 145.937 288.683 146.439 289.048 147.16C291.348 151.705 290.954 156.299 289.555 161.954C287.611 158.898 286.113 156.555 284.628 154.206C283.839 152.959 282.747 152.109 281.304 152.768C279.899 153.41 278.952 154.501 279.365 156.345C279.678 157.743 281.966 159.771 279.515 160.44C277.663 160.947 274.859 161.56 273.065 159.3C272.96 159.17 272.851 159.041 272.729 158.93C265.471 152.313 265.624 152.435 259.59 159.926C257.471 162.558 253.583 163.474 251.846 166.734L251.932 166.848C251.456 162.989 254.203 160.438 255.87 157.509C258.177 153.458 256.335 148.826 251.575 148.198C243.502 147.132 235.381 146.425 226.997 145.536C229.3 142.113 231.73 140.416 236.346 140.973C247.246 142.29 258.219 143.011 269.022 145.119C270.742 145.455 272.401 145.655 273.042 142.957C254.695 139.503 236.257 137.71 217.621 137.902C217.096 136.546 215.924 136.547 214.761 136.544C209.183 136.531 203.605 136.51 198.027 136.523C196.74 136.526 195.33 136.371 194.696 137.952L194.888 137.925C193.938 137.085 192.987 136.247 191.957 135.341C191.335 136.904 191.736 138.112 192.376 139.289C192.177 139.112 191.98 138.934 191.781 138.756C190.179 138.583 188.458 138.075 187.675 140.214C186.653 140.321 185.631 140.43 184.609 140.538C180.254 139.077 175.922 138.505 171.661 140.858C168.261 141.986 164.668 142.07 161.278 141.549C157.245 140.928 155.03 142.215 154.047 145.897C156.465 147.284 158.945 147.018 161.575 146.296C173.337 143.066 185.653 142.943 197.489 139.953C200.516 139.188 203.977 140.134 207.238 140.305C209.108 140.403 209.287 141.665 209.136 143.127C208.999 144.451 209.323 146.21 208.598 147.007C206.876 148.903 207.286 151.174 208.577 152.069C210.891 153.674 210.593 149.646 211.096 149.607C214.712 154.115 220.069 149.692 223.331 153.65C218.146 153.65 213.468 153.617 208.792 153.673C207.563 153.687 205.519 152.939 205.364 154.69C204.756 161.555 199.812 159.113 196.102 159.225C194.648 159.269 193.18 158.896 191.146 158.64C195.972 155.337 194.003 150.976 194.414 146.756C187.736 148.194 181.392 149.534 175.068 150.952C174.332 151.117 173.695 151.713 173.012 152.109C175.705 155.316 174.055 160.039 176.885 163.201C178.544 165.057 180.138 166.972 181.86 168.767C182.772 169.719 183.985 170.348 185.354 170.231C185.674 170.203 186.249 169.393 186.169 169.083C185.768 167.557 183.834 168.257 182.908 166.894C184.396 166.561 185.762 166.255 187.654 165.831C186.163 164.346 183.928 164.975 183.413 163.063C184.261 161.278 185.724 162.253 186.857 162.492C189.116 162.968 191.62 167.098 193.333 161.707C193.67 160.645 196.355 161.023 196.264 161.614C195.872 164.101 200.725 166.793 196.052 169.018C195.256 169.396 194.463 170.029 194.813 170.922C196.609 175.497 191.328 175.678 189.876 178.302C188.789 180.268 189.064 175.899 187.439 175.523C181.4 179.313 180.856 179.17 176.79 172.808C176.253 171.967 175.754 170.969 174.97 170.438C170.359 167.319 167.985 164.284 173.865 159.864C175.488 158.643 170.215 152.294 167.506 152.836C165.539 153.231 161.782 151.826 162.212 156.592C162.3 157.566 159.139 159.648 157.232 158.562C153.765 156.589 152.541 158.948 151.521 161.144C148.545 167.543 145.779 173.71 146.188 181.427C146.424 185.876 144.924 191.186 143.415 195.925C143.244 196.461 142.55 197.149 142.046 197.195C141.114 197.28 140.644 196.442 140.59 195.57C140.507 194.244 140.887 192.788 140.466 191.603C138.814 186.938 137.717 181.912 131.308 181.003C128.53 180.609 125.339 179.075 129.357 175.427C130.63 174.271 129.769 172.238 129.839 170.599C129.917 168.757 130.517 167.306 132.732 167.334C134.954 167.362 135.397 168.772 135.518 170.663C135.676 173.144 134.799 175.797 136.546 178.332C136.866 175.202 140.261 175.133 141.104 173.428C142.255 171.097 142.638 167.952 140.775 165.441C138.375 162.209 137.021 167.647 134.672 165.913C134.134 158.164 139.964 153.474 144.553 148.396C139.961 142.292 138.271 147.005 136.186 150.253C135.916 150.673 135.658 151.118 135.312 151.472C134.189 152.615 133.174 154.684 131.409 153.908C129.392 153.022 130.004 150.738 130.352 148.986C131.355 143.962 134.781 140.522 138.325 137.183C139.475 136.097 141.8 135.491 141.078 133.517C140.497 131.934 138.303 131.837 136.762 131.738C128.102 131.177 123.435 130.359 121.285 140.985C120.757 143.593 118.801 145.65 117.344 147.885C115.975 149.985 115.926 151.899 119.314 151.521C122.253 151.193 124.113 152.372 125.176 155.049C126.952 159.52 126.962 159.517 131.968 159.835C128.713 161.643 126.027 162.913 122.907 162.908C122.693 162.38 122.392 161.992 122.486 161.814C123.492 159.923 126.193 157.853 122.703 156.138C119.15 154.39 119.349 158.343 118.219 159.936C117.554 160.875 117.712 162.481 117.717 163.787C117.723 165.332 117.221 166.496 115.65 166.693C113.882 166.915 113.23 165.591 113.357 164.153C113.634 160.981 111.895 160.719 109.371 160.803C104.713 160.958 100.045 160.847 95.1679 160.847C95.9715 162.561 97.4596 162.621 99.0603 162.274C100.744 161.91 102.39 162.023 103.98 162.595C104.918 162.932 105.839 163.493 105.776 164.701C105.72 165.749 104.777 166.036 104.004 166.164C99 166.988 94.7311 168.686 93.5265 174.36C93.4646 174.654 93.0408 175.153 92.9821 175.127C87.6065 172.657 89.0294 177.699 87.82 180.498C86.4443 174.787 88.6187 170.608 91.3945 166.014C83.7548 165.378 76.5406 164.778 69.3279 164.178C64.4657 161.149 59.4308 162.391 54.3974 163.57C47.7357 163.426 41.0724 163.325 34.4139 163.115C31.85 163.034 29.3757 162.779 30.934 166.646C31.2714 167.482 31.1964 168.866 30.5867 168.865C26.2184 168.849 23.8745 173.213 19.8012 173.656C18.983 173.746 18.1387 173.565 17.3074 173.566C13.9676 173.57 12.4859 176.163 10.8022 178.389C10.499 178.788 10.9016 180.234 11.27 180.014C13.4786 178.702 16.6929 180.955 18.3652 177.939C18.7809 177.189 19.7963 176.503 20.4174 177.111C23.0123 179.647 25.379 177.477 27.8011 176.939C28.8394 176.708 29.7979 176.416 30.3504 177.598C30.8753 178.72 30.3358 179.812 29.317 179.993C22.3929 181.222 22.5836 185.526 24.489 190.689C24.6504 191.127 24.7189 191.858 24.4727 192.151C22.4956 194.497 24.7841 199.185 21.4769 199.961C18.5217 200.654 18.6342 196.104 16.7043 194.409C15.0841 192.986 13.6595 191.342 12.1012 189.846C11.6334 189.398 10.5772 188.736 10.512 188.809C6.36048 193.504 6.26105 187.728 4.46645 186.475C2.79899 185.309 1.08588 183.935 -0.987442 185.169C-9.24488 190.081 -17.781 194.737 -21.6588 204.572C-19.9831 204.658 -18.358 204.743 -16.733 204.826C-16.7199 205.317 -16.7069 205.807 -16.6939 206.297C-21.0002 206.298 -25.4142 205.891 -27.6587 210.956C-28.3319 212.473 -28.7328 213.805 -27.6571 215.126C-26.5193 216.521 -25.7174 214.87 -24.7427 214.655C-23.4582 214.369 -22.1396 214.143 -20.8291 214.097C-10.9873 213.76 -1.14717 213.399 8.69786 213.22C11.0662 213.178 13.5813 213.165 16.8151 214.79C13.4509 216.513 10.7696 216.74 8.07195 216.671C-0.936913 216.446 -9.95229 216.283 -18.9497 215.812C-23.0817 215.595 -26.2357 217.596 -27.3033 220.828C-28.3645 224.038 -29.9194 222.912 -31.7238 222.887C-30.2634 216.692 -30.2617 216.738 -36.6023 216.953C-38.3285 217.012 -40.542 218.005 -41.5982 215.908C-42.4882 214.141 -40.7327 212.839 -39.8427 211.518C-35.1191 204.505 -29.1012 198.691 -22.1298 194.032C-15.6768 189.719 -9.79743 184.662 -2.4267 181.483C2.65556 179.292 7.54221 175.25 8.81033 168.835C9.16241 167.049 10.7761 166.948 11.9839 167.106C18.8265 168.006 21.2112 164.271 21.7865 158.236C21.9561 156.457 22.7727 154.742 23.3171 152.916C21.6333 151.703 20.1761 153.526 18.406 153.068C20.0849 150.321 23.1296 149.553 25.4442 147.866C26.4254 147.152 27.6691 145.98 28.9226 147.494C29.8679 148.637 29.7229 150.028 29.0986 151.25C28.0489 153.301 26.846 155.275 26.5868 157.546C26.9617 158.073 27.1703 157.668 27.3513 157.659C34.3797 157.279 34.7139 151.728 36.308 146.749C37.7146 142.357 40.8474 138.942 45.7716 135.649C43.1376 143.154 40.9909 149.429 36.5655 155.065C47.3331 153.313 58.1675 156.175 68.7249 153.154C69.7958 152.848 69.5969 154.393 70.407 154.592C76.0956 156.015 81.7663 156.778 87.3522 154.165C90.7865 153.241 94.3138 153.554 97.7954 153.533C100.131 153.518 100.715 152.696 100.174 150.544C99.1157 146.342 98.4376 142.022 97.0831 137.922C95.7123 133.769 91.8558 131.862 88.0482 130.895C85.1762 130.165 81.8853 130.377 83.5641 135.455C84.6725 138.807 85.1811 142.511 83.1713 146.242C81.9782 141.58 80.785 136.916 79.5202 131.968C77.7533 132.956 76.2912 133.776 74.8177 134.599C73.1127 133.499 75.4844 131.689 73.7338 130.519C69.1715 137.644 70.5178 146.782 66.2017 154.142C63.4421 152.057 64.9873 149.803 65.2432 147.866C65.9034 142.889 67.5464 138.135 69.4127 133.497C70.438 130.947 70.0973 129.694 67.1405 129.855C62.4348 130.113 57.7307 130.383 52.981 130.651C52.1855 129.128 55.007 129.413 54.1985 127.662C52.8065 124.647 54.9108 123.897 57.3917 123.677C59.6573 123.476 61.3427 122.878 60.381 119.96C59.9279 118.585 60.3892 116.683 61.8138 116.74C65.9669 116.905 69.6719 113.845 74.1266 115.675C77.8071 117.188 82.9513 114.195 85.6391 119.283C85.8249 119.635 86.516 120.025 86.8616 119.94C93.7971 118.258 96.1394 124.363 100.066 127.719C102.601 129.886 105.191 132.046 107.391 134.531C110.504 138.045 115.241 136.179 118.728 138.355C119.57 138.882 120.167 137.763 120.229 136.908C120.328 135.525 121.484 133.448 119.665 132.93C115.577 131.767 114.364 127.689 110.34 125.331C114.077 124.596 116.612 123.404 117.194 119.842C116.716 118.791 113.821 120.025 114.208 118.016C114.477 116.614 115.601 114.88 117.508 114.643C120.374 114.286 121.888 112.39 122.884 110.015C125.616 103.507 132.905 102.36 137.224 97.6891C139.92 94.7759 143.443 92.575 144.913 88.6609C145.387 87.3958 145.836 86.9687 146.936 87.9191C147.446 88.3592 148.155 88.9526 148.564 88.2288C153.878 78.8028 154.458 86.7812 156.272 90.2878C156.499 90.7263 156.833 91.1193 157.169 91.4861C157.382 91.7176 157.694 91.8594 158.479 92.3957C158.179 88.2566 160.45 86.9981 163.871 87.3518C166.531 87.6257 167.941 86.2171 169.604 84.3146C174.623 78.5681 179.144 72.4499 183.878 66.4865C189.843 58.9695 198.027 54.4375 206.994 51.2976C208.704 50.6993 210.467 50.4337 211.453 48.4855C212.294 46.8243 212.797 46.0663 210.563 44.8599C205.436 42.0902 205.729 40.6311 209.554 36.2328C211.832 33.6146 213.608 30.0982 211.766 26.2101C209.955 22.3872 212.999 21.2966 215.47 19.9614C212.319 16.2021 212.319 16.2021 212.451 10.8566C212.179 10.7473 211.895 10.524 211.636 10.5501C209.33 10.7702 206.016 13.1144 205.072 9.87189C204.022 6.26257 208.048 6.17294 210.443 5.61214C212.521 5.12471 213.597 4.19219 214.012 2.12343C214.193 1.22681 214.663 0.0579909 215.856 0.0025631C217.365 -0.0675367 217.598 1.31489 218.009 2.35497C219.041 4.96171 219.972 7.49019 219.054 10.4849C218.62 11.8983 217.417 14.2638 219.677 15.1392C220.624 15.506 222.086 16.6717 223.323 15.6332C225.393 13.897 223.199 12.3499 222.948 10.7115C222.876 10.2452 222.86 9.76921 222.73 8.32156C226.128 10.4784 228.12 13.434 231.269 14.8605C232.773 15.5419 229.817 23.5023 227.714 24.7022C224.689 26.4286 224.984 26.3047 226.32 29.4657C227.636 32.5762 226.193 35.8627 225.026 38.652C223.983 41.1463 223.823 42.9949 225.59 45.4664C227.166 42.0364 226.309 37.938 229.051 35.0867C230.597 36.8245 229.108 38.4466 229.351 40.0083C229.277 40.3817 229.202 40.755 229.127 41.1283C229.483 41.0501 229.838 40.9734 230.193 40.8952C231.67 40.023 233.06 39.5877 233.569 41.8766C233.784 42.8466 233.758 43.8671 233.87 44.8615C234.208 47.8432 233.9 51.1265 235.083 53.7267C236.398 56.6171 240.164 55.3015 242.772 55.9862C249.482 57.7469 253.767 62.8625 258.105 67.3179C261.287 70.5865 263.912 74.3557 267.828 76.9966C270.201 78.5975 271.692 81.1569 272.783 83.7995C273.673 85.9563 274.201 87.8099 277.218 88.3495C280.483 88.9348 276.957 91.7322 278.22 93.6787C281.012 92.4511 282.044 89.6944 282.861 87.2654C284.66 81.9035 288.947 82.1367 292.463 83.5436C305.322 88.6886 316.909 95.8012 324.994 107.554C329.147 113.592 327.617 117.987 320.217 118.668C312.458 119.382 304.575 118.603 296.765 118.915C286.572 119.322 276.608 117.837 266.579 115.956C268.097 119.994 274.348 123.818 278.299 123.124C279.868 122.848 279.863 120.922 281.945 120.256C290.791 117.426 299.324 119.717 307.938 120.635C314.411 121.324 320.836 122.452 327.374 121.556C331.315 121.014 328.911 125.23 331.036 126.616C332.309 127.446 330 128.668 328.419 128.809C326.945 128.939 325.268 128.906 324.614 130.634C324.065 132.085 325.027 133.243 325.92 134.144C326.911 135.144 327.683 134.04 328.396 133.427C334.588 128.099 341.783 124.823 349.589 122.573C354.501 121.158 360.244 110.922 358.723 105.974C358.138 104.073 358.241 103.325 359.398 101.913C360.977 99.9861 362.224 97.5864 361.298 94.9927C360.584 92.9908 361.499 92.2506 362.99 91.5529C363.605 91.2659 365.442 91.6736 363.942 90.0678C362.289 88.2974 362.545 86.7339 364.524 85.5618C365.826 84.7907 367.367 85.2096 368.144 86.3312C369.716 88.6005 367.68 89.7906 366.224 91.1665C370.372 91.9653 370.589 97.725 375.269 98.245C375.781 98.3021 374.669 102.36 373.002 103.727C370.795 105.539 371.028 106.901 372.539 109.057C377.6 116.279 382.266 123.486 390.794 127.675C398.131 131.28 403.831 137.483 408.649 144.206C410.248 146.438 411.231 148.536 411.399 151.842C411.565 155.103 416.524 157.991 420.656 159.258C422.915 159.951 424.95 160.9 426.913 162.249C430.725 164.869 431.234 167.421 430.822 172.505C430.364 178.157 429.024 181.483 425.123 185.218C422.745 187.495 420.66 192.715 423.363 195.216C425.881 197.547 429.56 193.789 432.339 192.024C436.302 189.507 439.601 186.166 442.23 182.216C442.68 181.541 443.222 180.792 444.186 180.911C445.253 181.041 445.195 181.939 445.392 182.759C446.182 186.057 450.46 187.978 453.037 185.756C456.028 183.177 456.867 185.451 458.489 187.149C464.29 193.224 467.141 201.078 471.387 208.088C472.078 209.229 472.642 210.449 473.38 211.557C474.358 213.024 475.066 215.238 477.419 214.49C479.766 213.743 480.062 211.786 479.449 209.581C479.33 209.154 479.572 208.628 480.497 208.012C480.836 211.218 481.207 214.422 481.502 217.631C481.74 220.217 482.208 221.922 485.414 222.971C488.601 224.012 491.209 226.94 493.937 229.2C494.8 229.914 495.341 231.177 494.581 232.366C494.254 232.879 493.592 233.529 493.091 233.521C490.982 233.487 492.268 231.819 492.006 230.897C491.515 229.165 490.321 228.425 488.664 228.533C486.735 228.658 484.585 227.71 482.943 229.338C482.402 229.876 482.334 231.48 483.163 231.399C487.672 230.949 485.186 236.184 488.003 237.124C488.805 237.392 488.164 238.132 487.484 238.402C486.425 238.825 485.378 239.281 484.322 239.726C483.114 239.669 483.453 238.066 481.949 237.828C464.65 235.091 447.172 234.832 429.751 233.808C428.579 233.74 427.076 233.732 427.138 235.298C427.205 236.977 428.887 236.57 429.904 236.498C448.215 235.197 466.138 240.523 484.417 239.667C484.363 240.494 484.119 241.361 484.29 242.139C485.145 246.037 483.553 248.18 479.724 248.844C476.969 254.064 477.825 259.422 479.119 264.796C478.49 274.662 480.396 284.389 480.762 294.205C480.906 298.051 481.364 301.888 480.047 305.579C479.012 308.478 480.268 309.034 482.828 309.079C487.496 309.162 492.162 309.438 496.826 309.695C499.227 309.829 501.333 309.54 502.695 312.886C503.685 315.313 507.318 314.386 509.673 313.114C511.337 312.216 511.419 311.388 511.064 308.897C510.288 303.461 507.866 302.628 503.412 302.755C500.41 302.84 498.922 301.226 500.498 298.261C502.193 295.072 500.505 294.882 498.061 295.146C490.068 296.013 489.473 295.227 491.898 286.965C492.172 286.033 492.425 285.092 492.663 284.243C490.156 282.306 485.695 285.91 484.511 281.207C483.954 278.992 483.673 276.471 486.933 275.224C487.215 280.769 490.653 281.652 495.038 280.405C496.483 279.994 497.874 280.077 498.707 280.764C500.161 281.96 498.364 283.061 497.947 284.19C497.603 285.123 497.044 285.974 496.674 286.898C495.683 289.371 495.695 291.075 499.223 290.597C501.197 290.33 503.219 290.558 505.124 291.346C506.628 291.967 508.151 292.96 507.258 294.645C504.868 299.161 508.068 298.655 510.713 298.876C512.871 299.056 515.016 299.405 517.174 299.601C518.698 299.74 520.296 299.749 520.892 301.508C521.717 303.939 519.274 303.853 517.843 305.038C519.601 306.275 522.711 304.828 523.225 307.576C523.781 310.55 520.969 311.378 519.316 312.837C517.016 314.868 514.539 316.699 511.535 319.099C516.294 320.579 520.286 318.226 524.209 320.148C522.325 320.148 520.438 320.219 518.557 320.134C513.701 319.917 508.951 319.772 504.803 323.15C503.111 324.527 501.191 325.02 500.586 321.655C500.1 318.949 497.616 320.235 496.094 320.23C469.566 320.143 443.04 320.174 416.512 320.157C414.69 320.155 412.867 319.967 411.045 319.865C410.758 319.767 410.47 319.668 410.183 319.57C399.692 314.301 388.464 313.621 377.451 316.295C361.015 320.287 344.448 320.396 327.771 320.212C325.693 320.189 322.296 319.26 324.662 323.561C325.252 324.635 324.574 325.067 323.579 325.083C322.36 325.104 320.963 326.324 319.969 324.682C319.367 323.688 318.918 322.604 318.367 321.576C317.594 320.134 316.127 319.811 314.919 320.355C312.976 321.231 315.195 322.172 315.172 323.135C314.997 330.597 319.778 330.184 325.266 330.166C386.537 329.975 447.809 330.003 509.08 329.974C510.415 329.974 511.753 329.941 513.086 330C514.632 330.068 515.632 330.856 515.632 332.471C515.634 334.061 514.698 334.922 513.132 334.997C511.799 335.06 510.462 335.031 509.126 335.031C459.54 335.028 409.955 335.023 360.369 335.019C359.038 335.019 357.708 335.019 356.231 335.019C357.699 339.758 359.444 343.793 362.632 347.707C368.679 355.136 372.527 364.078 376.009 373.053C376.974 374.339 378.387 374.054 379.686 374.054C421.713 374.062 463.741 374.063 505.768 374.001C506.508 374 508.201 375.069 508.045 372.891C509.714 370.599 507.16 370.074 506.265 369.119C499.439 361.838 492.477 354.686 485.574 347.479C484.772 346.641 484.003 345.754 483.331 344.809C482.412 343.516 480.712 342.124 482.392 340.505C484.094 338.865 485.429 340.647 486.617 341.65C497.942 351.208 508.368 361.69 518.338 372.635C524.922 375.286 531.598 374.365 538.279 373.142C549.343 375.13 560.515 373.542 571.63 374.072C576.106 374.285 576.732 378.209 580 380.191C578.13 381.337 576.784 381.352 575.371 381.037C573.553 379.218 571.25 380.054 569.185 380.053C509.751 380.009 450.316 380.022 390.882 380.033C307.407 380.048 223.932 380.059 140.458 380.149C138.514 380.151 136.028 378.876 134.62 381.53C132.636 381.676 130.652 381.95 128.669 381.952C58.2425 381.985 -12.1853 381.99 -82.6116 381.999C-91.4167 382.001 -100.222 381.999 -110 381.999C-106.864 376.716 -104.892 372.355 -98.8738 374.137C-98.2984 374.424 -97.7231 374.957 -97.1444 374.96C-88.53 375.02 -79.914 375.007 -71.2979 375.025C-70.2189 375.027 -69.3306 374.784 -68.9459 373.643C-52.2093 372.624 -35.4581 373.009 -18.7101 373.167C-11.1291 375.133 -3.40794 373.602 4.23663 374.039C5.92365 374.135 7.90407 374.781 9.28465 373.005C10.9684 369.865 13.2602 367.968 17.1118 369.202C17.7067 370.655 15.177 371.486 16.3082 373.049C16.926 374.042 17.9268 374.085 18.9276 374.085C29.198 374.085 39.4701 374.078 49.7406 374.072C50.7479 374.072 51.7405 374.024 52.3779 373.057C58.9825 361.069 66.2636 349.383 68.9417 335.127C27.022 334.638 -15.0639 335.21 -57.1335 332.757C-53.096 331.091 -48.9787 330.716 -44.7734 331.037C-43.9144 332.062 -42.718 331.994 -41.5623 331.992C-26.948 331.981 -12.3353 331.958 2.27904 331.937C3.43632 331.935 4.66857 332.088 5.1869 330.644C10.1436 329.693 15.1623 330.116 20.1468 330.09C44.3372 329.967 68.5276 329.962 92.7197 329.927C101.914 329.912 101.914 329.923 104.49 320.686C103.469 319.475 101.984 319.935 100.853 320.119C92.7507 321.435 85.5087 316.474 77.5055 317.061C74.2423 317.3 71.2692 316.958 68.1185 319.227C65.0851 321.412 60.6418 320.178 56.8978 319.886C51.8041 319.488 47.5858 320.765 43.7977 324.902C44.1253 322.364 46.3844 322.335 47.0348 320.789C45.9052 319.301 44.2834 320.033 42.924 320.029C14.3783 319.961 -14.1674 319.923 -42.7131 320.008C-44.449 320.013 -47.766 318.236 -47.4221 322.661C-47.3618 323.443 -48.7244 323.843 -49.4302 323.187C-55.1074 317.91 -62.0511 320.616 -68.4732 320.069C-68.7927 320.041 -69.1056 319.93 -70.2645 319.666C-68.1814 318.676 -66.6802 317.951 -65.1692 317.248C-63.3567 316.405 -61.1204 315.993 -59.8001 314.666C-56.1099 310.96 -52.1132 309.451 -46.7473 309.84C-43.2021 310.098 -46.8434 306.517 -45.5982 304.816C-47.8785 305.754 -50.193 306.619 -52.431 307.651C-54.3218 308.522 -55.2346 308.228 -56.1848 306.143C-57.2932 303.712 -55.5443 303.712 -54.343 303.161C-53.1368 302.609 -51.8768 301.888 -50.6038 301.808C-42.762 301.316 -40.8941 296.528 -41.0179 289.613C-41.0766 286.292 -42.053 282.216 -37.1826 280.351C-36.2975 280.012 -36.3627 276.271 -36.5697 274.156C-37.4483 265.19 -38.1687 256.229 -37.6912 247.21C-37.5542 244.622 -38.7327 243.262 -41.3537 242.828C-44.4718 242.313 -47.5427 241.509 -50.6283 240.807C-51.7741 240.546 -53.0145 240.282 -53.0406 238.756C-53.0618 237.564 -52.1572 237.015 -51.1873 236.687C-49.1222 235.99 -48.9836 235.349 -49.7693 232.98C-50.7016 230.171 -47.2558 229.853 -45.3162 229.772C-39.5542 229.527 -33.7743 229.684 -27.688 229.684C-30.265 236.042 -37.6194 232.452 -41.6553 236.185C-19.2643 235.108 3.10054 236.345 25.5094 234.618C17.5307 234.035 9.5536 233.415 1.57162 232.881C-4.08928 232.501 -9.75832 232.263 -15.4208 231.903C-16.746 231.818 -18.1054 231.656 -19.3572 231.247C-20.5618 230.854 -22.1298 230.108 -21.781 228.675C-21.4827 227.45 -19.8641 227.772 -18.7215 227.84C-18.0402 228.746 -17.0557 228.787 -16.0516 228.786C-7.79745 228.776 0.458351 228.779 8.71253 228.751C9.99696 228.746 11.4101 228.997 12.2642 227.6C17.8697 227.137 23.5371 226.063 28.8215 229.071C30.4303 229.985 32.4091 229.464 32.872 228.394C34.427 224.806 37.2827 225.709 39.9738 225.685C48.1432 225.611 56.3126 225.533 64.4804 225.364C64.8129 225.357 67.9001 226.316 65.5154 223.932C64.8586 222.698 63.6833 222.692 62.5228 222.69C53.3069 222.68 44.0911 222.677 34.8752 222.68C33.8744 222.68 32.8915 222.78 32.3096 223.784C30.0798 225.964 26.7889 221.443 24.7726 224.977C24.4043 224.457 23.8273 223.981 23.7018 223.407C22.5461 218.179 21.9707 212.904 22.6504 207.549C22.8346 206.098 23.397 204.823 25.0123 204.872C26.6015 204.921 27.2633 206.236 27.2975 207.663C27.3773 210.961 27.3236 214.263 27.3236 217.702C42.9028 216.445 58.0388 217.067 73.1682 217.043C75.7223 217.038 78.358 216.583 80.371 214.63C80.5161 214.695 80.7687 214.842 80.7915 214.813C82.0564 213.174 80.8144 211.158 81.5968 209.438C81.8771 211.525 82.1575 213.61 82.4378 215.696C82.102 216.368 81.7679 217.041 81.4321 217.713C80.7752 217.76 80.1069 217.904 79.4615 217.837C77.3148 217.612 75.6033 218.09 76.182 220.67C76.6205 222.623 77.4094 223.513 80.2781 223.243C89.9813 222.328 99.7693 222.318 109.521 221.895C110.812 221.839 112.966 223.288 113.22 221.024C113.458 218.901 112.046 217.296 109.458 217.651C109.07 217.084 108.749 217.203 108.47 217.747C107.816 217.762 107.161 217.777 106.508 217.791C102.812 215.996 99.1173 215.998 95.4222 217.79C94.1019 218.192 92.7816 218.196 91.4613 217.785C91.4483 217.063 91.4336 216.339 91.4206 215.617C93.7026 215.416 95.9829 215.121 98.2697 215.033C103.869 214.819 109.657 215.612 114.495 211.709C119.484 213.453 124.483 213.248 129.489 211.789C133.317 211.727 137.159 211.451 140.97 211.68C143.394 211.825 146.538 211.287 147.117 215.16C147.296 216.358 148.579 216.303 149.581 216.319C151.415 216.35 153.281 216.604 155.071 216.339C156.963 216.058 160.377 217.757 160.46 215.215C160.562 212.084 156.771 214.744 155.009 213.132C158.119 212.511 159.958 211.129 158.919 207.373C157.835 203.45 161.834 202.65 163.718 200.446C166.676 205.028 166.673 209.855 166.22 214.767C166.029 216.836 167.788 216.373 168.916 216.849C171.164 217.799 175.315 217.286 173.045 222.028C172.442 223.287 173.91 222.923 174.518 223.016C176.328 223.293 178.231 223.293 179.79 224.372C182.197 226.04 183.048 228.939 180.005 229.685C171.962 231.656 174.43 237.422 174.489 242.455C174.497 243.118 174.619 243.782 174.689 244.445C175.027 252.225 173.444 260.071 175.524 267.789C175.535 274.813 173.139 282.004 177.014 288.778C177.229 289.155 176.818 290.411 176.533 290.472C171.27 291.592 173.751 294.898 174.332 297.764C174.836 300.245 175.185 302.963 172.947 304.744C171.077 306.233 171.731 307.998 171.63 309.741C177.607 311.784 183.613 311.454 189.633 309.94ZM353.111 131.911L353.297 131.689C352.893 132.093 352.49 132.496 352.086 132.9L352.275 132.662C351.872 133.07 351.47 133.479 351.067 133.887L351.271 133.66C350.863 134.063 350.456 134.465 350.048 134.868L350.278 134.669C349.879 135.078 349.479 135.486 349.08 135.895L349.279 135.683C348.88 136.089 348.479 136.493 348.079 136.899L348.277 136.686C347.877 137.09 347.476 137.496 347.077 137.9L347.274 137.685C346.873 138.089 346.472 138.495 346.07 138.901L346.262 138.671C345.869 139.084 345.476 139.496 345.082 139.909L345.339 139.729C344.286 139.848 344.094 140.664 343.918 141.49C341.385 144.64 338.85 147.791 336.317 150.94C335.956 150.66 335.592 150.38 335.23 150.099C336.311 144.72 339.478 140.298 341.912 135.54C342.161 135.228 342.41 134.917 342.661 134.606C342.423 134.606 342.096 134.508 341.967 134.627C341.638 134.928 341.392 135.328 342.04 135.602C340.399 136.073 340.376 132.763 338.215 134.103C328.383 140.207 320.973 148.288 316.622 159.754C321.402 159.066 325.64 158.264 329.941 158.707C331.141 160.013 332.728 159.586 334.177 159.587C356.973 159.595 379.768 159.576 402.563 159.556C404.382 159.555 406.286 159.793 407.573 158.027C406.959 154.261 406.877 150.28 403.696 147.481C398.97 143.326 394.204 139.216 389.453 135.09C389.068 134.961 388.684 134.834 388.299 134.705C388.364 135.14 388.431 135.576 388.496 136.011C390.728 142.03 392.961 148.048 395.192 154.066C394.767 154.227 394.341 154.388 393.916 154.55C390.946 147.561 388.035 140.546 384.99 133.59C382.361 127.587 377.641 124.348 370.798 123.112C375.618 133.895 378.133 144.354 374.672 156.723C373.199 153.101 373.82 150.634 373.879 148.239C374.073 140.253 372.328 132.853 368.542 125.736C366.624 122.128 364.522 121.068 360.906 122.509C358.105 123.624 358.894 127.012 356.992 128.694C356.596 128.965 356.2 129.236 355.802 129.506C355.018 129.726 354.193 129.902 354.167 130.97L354.306 130.696C353.615 130.814 353.224 131.225 353.111 131.911ZM247.979 63.1673C247.636 62.8413 247.292 62.5153 246.948 62.1892C245.952 61.4035 245.476 59.6265 243.637 60.4531C243.681 60.2411 243.724 60.0292 243.768 59.8156C243.574 59.8385 243.38 59.8629 243.186 59.8857C243.376 60.0487 243.567 60.2134 243.758 60.3764C244.043 61.7556 245.321 62.2202 246.211 63.0435C246.506 63.3353 246.799 63.6288 247.094 63.9206C247.425 64.2564 247.756 64.5922 248.089 64.928C248.539 65.2166 248.881 66.1181 249.518 65.5149C250.226 64.8449 249.334 64.5677 248.948 64.2041C248.625 63.8585 248.302 63.513 247.979 63.1673ZM251.277 66.7587C250.843 66.4262 250.415 65.7236 249.916 66.599C249.843 66.7295 250.377 67.2055 250.63 67.5217C250.913 67.7923 251.422 68.3173 251.448 68.2944C252.085 67.732 251.539 67.2576 251.277 66.7587ZM265.295 214.167C264.517 214.221 263.159 214.169 263.591 215.181C264.165 216.525 265.466 216.062 266.449 215.215C266.486 214.792 266.525 214.368 266.563 213.944C266.139 214.017 265.717 214.092 265.295 214.167ZM147.179 156.151C147.888 155.407 148.638 155.43 149.285 156.17C150.84 157.95 152.134 156.55 153.007 155.593C154.298 154.178 152.532 152.783 152.018 151.736C151.34 150.355 149.666 151.355 148.747 152.305C147.845 153.238 147.171 154.392 146.396 155.45C145.541 155.761 144.995 156.568 145.648 157.13C146.398 157.778 146.981 157.005 147.179 156.151ZM285.94 96.5186C282.763 97.0891 276.344 102.785 276.212 105.309C276.121 107.038 277.435 107.394 278.853 107.449C278.784 109.381 279.823 110.866 280.835 112.363C286.499 114.136 292.15 114.375 297.778 112.208C301.989 111.553 306.199 110.899 310.662 110.204C309.368 107.953 307.886 106.554 305.415 105.837C301.814 104.792 297.844 98.1781 298.43 94.5036C298.815 92.0957 297.865 90.6954 295.86 89.7433C291.448 87.6501 291.276 92.28 288.398 93.8059C293.589 94.6666 294.616 101.104 290.913 107.047C290.091 103.38 291.56 99.8557 289.971 96.3148C288.31 98.7552 287.113 100.963 285.474 102.769C284.285 104.078 283.56 106.716 280.792 105.503C281.754 102.096 285.185 100.058 285.806 96.4616C286.251 96.3034 286.691 96.1306 286.292 95.5453C286.25 95.4834 285.966 95.5094 285.858 95.586C285.382 95.9235 285.268 96.2643 285.94 96.5186ZM318.054 146.71C319.636 144.415 321.25 142.141 322.792 139.819C324.282 137.578 321.946 136.208 321.406 134.443C321.113 133.484 320.177 133.523 319.475 134.315C317.227 136.847 313.733 138.308 312.627 142.356C315.085 142.903 319.661 141.202 317.842 146.544C317.584 146.875 317.31 147.196 317.095 147.555C317.072 147.592 317.405 147.843 317.573 147.995C317.733 147.564 317.894 147.137 318.054 146.71ZM232.734 236.891C236.32 234.177 235.642 232.328 229.17 227.173C228.016 229.434 229.196 231.058 231.468 232.902C216.327 235.888 202.166 231.113 187.798 231.404C189.485 232.915 192.683 232.716 191.721 236.128C191.711 236.739 191.701 237.351 191.692 237.96C186.551 241.148 191.718 244.992 191.216 248.576C190.802 251.527 195.066 249.889 196.722 251.371C200.978 253.744 205.266 253.576 209.579 251.539C215.403 251.297 221.251 250.624 227.042 250.952C231.681 251.214 233.59 249.176 233.667 245.179C233.707 243.061 237.135 240.155 232.695 238.663C232.707 238.073 232.721 237.481 232.734 236.891ZM145.498 216.944C142.237 214.85 138.903 215.302 135.546 216.665C129.123 217.459 122.705 215.442 115.419 216.096C118.136 219.532 121.934 222.043 124.018 221.908C128.61 221.611 133.079 221.728 137.604 222.198C144.168 225.162 150.858 223.931 157.545 222.791C159.188 222.721 160.833 222.625 162.478 222.589C164.285 222.548 166.525 222.892 166.572 220.272C166.626 217.273 164.15 217.785 162.22 217.724C156.642 217.552 151.025 218.217 145.498 216.944ZM437.095 307.914C438.848 302.917 438.711 297.912 437.169 292.899C437.275 287.585 436.923 282.21 437.599 276.969C438.535 269.719 436.773 262.817 435.984 255.779C435.847 254.55 438.039 252.342 434.618 252.489C432.74 252.569 430.497 251.827 430.377 255.086C429.915 267.528 427.752 279.918 429.4 292.422C429.92 296.367 430.805 300.274 430.509 304.314C430.104 309.798 431.591 310.581 437.095 307.914ZM279.744 261.835C278.184 270.166 278.225 278.498 279.712 286.831C279.396 294.438 279.122 302.05 276.993 309.182C281.634 309.182 286.36 309.182 291.454 309.182C289.092 304.961 287.387 301.161 286.55 296.79C283.599 281.377 286.572 266.317 288.478 251.167C288.62 250.036 289.113 249.568 290.144 249.049C293.927 247.147 296.543 244.176 297.91 239.597C292.994 239.964 288.81 238.952 284.796 236.648C283.233 235.752 280.915 236.144 278.938 236.007C278.098 235.95 276.714 236.602 277.229 237.096C281.316 241.029 273.371 247.898 280.675 250.95C280.996 251.084 281.254 252.422 280.99 252.739C278.651 255.546 280.607 258.88 279.744 261.835ZM210.705 130.625C216.034 132.214 221.359 132.188 226.681 130.6C234.725 131.541 242.635 133.725 250.807 133.355C252.058 133.298 254.201 135.153 254.666 132.163C255.058 129.635 253.772 129.022 251.497 128.297C246.358 126.66 240.811 127.24 235.838 125.216C231.222 123.336 225.466 127.677 221.541 122.467C221.486 122.394 221.222 122.488 221.056 122.488C217.554 122.495 214.053 122.509 210.552 122.498C206.529 122.487 206.529 122.475 203.745 125.491C199.414 130.183 192.43 130.918 186.658 127.126C185.553 126.401 184.606 126.195 183.423 126.492C177.204 128.047 170.795 127.866 164.481 128.548C164.352 128.562 164.166 128.065 164.039 127.856C164.543 126.376 166.864 126.803 167.009 125.015C164.497 123.404 162.528 123.372 160.706 126.164C159.966 127.299 158.23 130.008 156.621 127.55C154.721 124.643 153.13 127.677 153.151 127.786C154.209 132.957 147.824 133.913 147.187 138.574C146.858 140.977 145.428 143.353 145.854 146.05C150.013 145.3 148.116 141.345 149.677 139.361C151.448 139.936 150.39 143.342 152.926 142.396C154.217 141.914 155.154 140.481 156.251 139.477C155.275 138.68 154.297 137.882 153.007 136.831C154.25 136.539 155.126 135.996 155.943 135.66C161.27 133.473 167.273 131.611 172.28 134.578C175.206 136.311 177.098 136.008 179.646 135.442C189.895 133.164 200.145 130.894 210.705 130.625ZM199.674 319.881C197.68 319.969 195.687 320.135 193.695 320.135C170.339 320.126 146.983 320.078 123.629 320.093C122.046 320.095 119.753 319.211 119.019 320.957C117.693 324.112 115.254 326.488 113.018 329.922C115.407 329.922 117.019 329.922 118.631 329.922C141.487 329.931 164.341 329.897 187.195 330C190.647 330.015 193.672 330.329 194.2 325.584C194.373 324.033 195.855 321.679 197.838 322.292C199.77 322.889 198.916 325.231 198.388 326.666C197.31 329.592 198.546 330.029 201.111 330.01C212.122 329.927 223.132 329.975 234.143 329.975C239.236 329.975 244.332 329.975 249.425 329.975C246.817 326.78 247.867 322.716 245.722 319.888C245.068 318.926 244.415 318.923 243.759 319.884C230.051 320.308 216.345 320.311 202.637 319.883C201.647 318.683 200.661 318.683 199.674 319.881ZM204.671 95.4964C194.446 98.0738 187.04 104.569 181.682 113.219C180.06 115.835 177.891 117.061 175.816 117.102C173.488 117.146 175.01 113.742 173.729 112.038C171.855 112.93 170.52 114.187 169.615 116.041C170.727 116.301 172.132 116.212 172.495 116.782C175.651 121.754 180.539 120.509 184.885 119.981C186.821 119.744 188.706 119.445 190.653 119.599C190.676 121.777 193.014 124.57 193.405 124.086C196.138 120.719 200.366 121.124 203.61 119.306C205.662 117.597 205.851 114.226 210.523 114.808C212.744 115.085 218.29 114.163 220.097 110.579C222.521 114.72 225.47 118.567 230.804 119.604C235.377 120.493 240.154 120.605 244.57 121.95C249.704 123.515 254.648 124.981 260.002 123.377C257.094 114.298 247.686 105.42 238.669 103.32C240.698 108.036 242.754 112.677 241.445 119.045C240.074 115.855 239.062 113.651 238.172 111.399C235.253 104.021 231.918 97.1788 222.226 97.6141C221.002 97.6695 220.131 97.1251 219.789 95.6676C219.091 92.6941 213.419 91.2693 211.4 93.7619C208.277 97.6174 204.402 100.889 202.296 105.592C201.294 107.831 200.87 110.496 198.725 112.448C197.776 110.265 198.476 108.496 198.824 106.748C199.683 102.44 202.903 99.3063 204.596 95.4067C204.689 95.3269 204.78 95.247 204.873 95.1671C204.806 95.278 204.74 95.3872 204.671 95.4964ZM355.858 309.684C357.256 309.151 358.656 309.156 360.056 309.679C360.637 311.086 361.877 310.902 363.029 310.902C381.515 310.903 400.002 310.899 418.488 310.905C420.003 310.905 421.559 311.047 422.109 309.118C419.086 298.564 418.494 287.87 419.627 276.951C420.329 270.175 422.823 263.757 422.954 256.861C423.014 253.673 422.592 252.442 419.117 252.597C412.628 252.887 406.105 253.001 399.624 252.644C396.693 252.482 396.995 254.367 396.34 255.862C394.017 260.449 394.568 265.114 395.963 269.8C395.913 272.295 396.183 274.848 395.741 277.272C394.98 281.442 396.252 283.018 400.6 282.665C404.633 282.337 408.675 282.815 413.599 285.544C392.56 288.139 374.117 281.378 355.137 279.363C367.893 277.94 380.382 278.902 392.871 283.604C392.871 272.464 392.949 261.677 392.803 250.893C392.775 248.86 393.841 246.557 391.999 244.719C387.676 243.07 383.35 243.112 379.024 244.706C371.028 244.449 363.028 244.282 355.039 243.88C352.431 243.749 351.691 244.279 351.848 247.109C352.177 253.092 352.5 259.176 351.779 265.091C350.907 272.244 351.387 279.345 350.806 286.538C370.606 283.232 382.618 284.259 388.845 290.332C385.834 289.931 383.572 289.761 381.368 289.309C374.622 287.93 367.83 287.361 360.969 287.992C357.827 288.281 354.262 288.023 351.706 289.466C349.338 290.803 351.336 294.414 350.772 296.962C350.456 298.395 350.567 300.19 348.387 300.088C346.014 299.978 346.523 298.184 346.686 296.75C347.853 286.425 347.325 276.144 346.205 265.847C345.612 260.383 345.432 254.882 345.615 249.359C345.691 247.016 346.79 245.587 348.841 243.966C346.665 243.44 344.534 243.537 344.133 241.604C343.677 239.402 342.257 239.742 340.779 239.744C329.278 239.746 317.776 239.834 306.279 239.649C302.967 239.596 301.283 240.099 300.675 243.948C300.085 247.693 299.513 252.391 295.25 253.945C292.546 254.93 291.941 256.478 292.015 258.63C292.298 266.843 291.102 274.939 290.302 283.066C289.937 286.766 291.118 290.442 293.364 292.749C297.283 296.774 298.437 301.831 298.986 306.64C299.299 309.387 299.733 309.598 301.689 309.399C310.65 308.486 319.612 309.221 328.572 309.311C336.063 309.386 343.555 309.578 351.046 309.718C352.66 311.542 354.265 311.58 355.858 309.684ZM156.574 231.709C156.24 231.166 155.915 230.157 155.568 230.148C147.557 229.958 139.515 228.737 131.552 230.68C116.604 230.212 101.769 228.339 86.7295 226.581C88.0335 231.28 87.5885 235.544 87.3163 239.804C87.2055 239.9 86.9838 240.032 87.0017 240.085C87.0784 240.314 87.2251 240.523 87.3473 240.738C87.6961 244.674 85.9357 248.412 86.4329 252.416C86.8371 255.676 86.6415 259.013 86.692 262.316C86.7132 263.774 86.3335 264.988 84.5763 265.06C82.9187 265.127 82.1249 264.181 82.1444 262.619C82.1689 260.642 80.8209 258.813 81.5576 256.775C82.3645 256.713 83.1175 256.545 83.2414 255.565C83.3979 254.336 82.609 253.964 81.5919 253.829C81.5153 249.662 81.3246 245.492 81.3995 241.329C81.455 238.259 80.3694 235.518 77.9081 234.177C74.7998 232.481 74.4575 236.625 72.2472 238.115C72.2472 236.343 72.094 235.007 72.2782 233.719C72.702 230.74 71.4485 230.248 68.865 231.003C59.3313 233.789 49.501 234.418 39.6608 234.449C36.2639 234.459 35.612 235.476 35.5109 238.658C35.0268 253.84 37.0643 269.003 35.7032 284.197C35.4343 287.206 36.2281 289.784 40.7594 289.807C49.2793 289.849 57.7535 289.712 66.2424 288.946C68.8829 288.708 71.8593 287.889 74.2749 290.053C73.5577 291.551 72.257 291.453 71.1633 291.427C59.1895 291.134 47.219 290.62 35.2436 290.545C32.3374 290.527 31.9087 289.371 31.7375 287.115C31.2437 280.606 31.4637 274.108 31.8565 267.606C32.3683 259.116 32.9144 250.627 33.3039 242.131C33.3561 241.007 34.3471 238.622 31.5566 239.103C26.5493 239.969 21.5779 241.042 15.9675 242.15C18.4989 244.395 21.0042 243.122 23.1019 243.771C24.6211 244.242 26.9275 244.066 27.0237 246.121C27.1003 247.76 25.022 248.492 23.6773 248.637C19.3302 249.105 19.3025 251.503 19.5192 255.159C20.3016 268.312 19.961 281.463 17.5372 294.472C16.9243 297.762 16.0067 301.101 13.2047 303.24C11.5405 304.51 8.70113 305.92 8.28059 302.472C7.91059 299.446 7.01899 296.344 7.75247 293.132C8.80218 288.54 12.9097 284.042 8.52182 279.119C8.35556 278.933 8.49248 278.47 8.50063 278.136C8.62451 272.966 8.89509 267.794 8.82663 262.626C8.77773 258.933 9.96109 258.138 13.1086 260.723C13.0173 257.134 13.9105 254.072 11.3841 251.245C9.83233 249.509 8.10292 249.527 6.47458 249.718C4.14372 249.99 5.39716 252.108 5.37434 253.376C5.30752 256.874 5.82095 260.433 4.87557 263.844C1.04514 277.653 1.63194 291.939 0.111168 305.996C-0.234383 309.198 0.768051 309.971 3.84707 309.907C11.6775 309.744 19.516 309.93 27.3513 309.976C28.7009 311.414 30.4694 310.884 32.07 310.885C60.0273 310.92 87.9846 310.926 115.944 310.894C117.508 310.892 119.349 311.524 120.457 309.673C121.586 306.2 125.697 305.38 127.166 302.359C130.736 295.018 133.559 287.48 133.52 279.062C133.498 274.298 134.328 269.53 134.775 264.763C135.669 264.773 136.564 264.783 137.459 264.792C137.464 267.481 137.467 270.167 137.472 272.855C137.352 272.948 137.117 273.079 137.132 273.128C137.208 273.366 137.352 273.584 137.472 273.807C137.48 276.494 137.487 279.182 137.495 281.869C135.484 286.452 137.03 291.272 136.556 295.957C135.586 298.025 135.158 300.961 133.531 301.975C130.372 303.944 129.756 306.572 129.559 309.723C135.531 311.792 141.529 311.459 147.542 309.932C149.818 307.136 147.686 303.818 148.616 300.864C150.199 293.858 150.243 286.856 148.582 279.854C148.791 277.717 149.055 275.583 149.195 273.439C149.423 269.975 150.193 266.401 149.632 263.059C148.157 254.286 146.538 245.6 150.38 237.056C151.456 234.663 152.145 231.44 156.339 233.373C157.505 233.919 156.201 232.266 156.574 231.709ZM88.3856 372.8C89.2136 369.323 91.0049 367.04 94.9886 367.479C93.2266 372.718 93.2266 372.713 99.0195 372.873C99.5053 372.886 99.9894 373.005 100.473 373.075C101.471 374.327 102.465 374.339 103.456 373.066C104.133 373.069 104.808 373.072 105.484 373.075C106.971 374.701 108.93 374.027 110.679 374.027C196.073 374.062 281.469 374.062 366.863 374.027C368.604 374.027 370.581 374.724 372.009 372.986C373.267 371.331 371.427 370.664 370.879 369.644C365.535 359.662 358.249 350.684 354.28 340.068C352.689 335.81 351.026 334.948 347.056 334.951C259.12 335.034 171.183 335.062 83.2479 334.894C77.3409 334.882 72.746 335.117 71.9652 342.315C71.8365 343.498 70.5602 344.532 69.9033 345.686C65.077 354.161 62.1447 363.162 62.4006 373.035C62.1169 374.561 63.315 374.05 63.9425 374.054C70.927 374.088 77.9114 374.083 84.8974 374.059C86.1868 374.055 87.6277 374.336 88.3856 372.8ZM249.099 71.5321C249.003 73.5128 249.116 74.6116 249.737 75.9321C251.505 79.7028 252.345 83.8289 252.851 87.9713C252.992 89.1141 253.939 91.0084 252.144 91.372C250.064 91.7926 250.625 89.613 250.408 88.5142C248.881 80.7771 246.377 73.4166 242.543 66.4979C240.071 62.0344 235.826 59.6966 231.804 57.0589C231.08 56.5845 230.428 56.3432 229.761 57.3474C228.475 59.289 226.003 59.651 224.2 59.9428C220.886 60.4775 220.767 62.2674 220.816 64.7601C220.884 68.2602 220.792 71.7652 220.79 75.2669C220.79 76.8238 220.162 77.9372 218.523 77.9275C216.779 77.9177 216.554 76.6021 216.423 75.1463C216.246 73.1607 217.245 71.6233 218.084 70.0322C220.068 66.2729 216.316 64.0836 215.171 61.4671C214.57 60.0944 210.563 61.6594 208.64 64.0151C204.169 69.4927 200.07 75.3321 198.13 82.0324C196.681 87.0388 193.877 89.6047 189.481 91.3361C188.459 91.7387 186.063 91.4551 187.09 93.4733C187.98 95.2242 189.509 93.444 190.414 92.8848C200.19 86.8497 211.528 86.7193 222.268 84.3978C224.653 83.8827 227.253 84.274 229.748 84.3914C231.062 84.4533 232.518 84.6782 233.098 86.1128C233.776 87.7903 231.479 87.8849 231.259 89.1467C242.446 93.8059 253.086 99.2313 260.891 108.9C262.105 110.405 263.181 112.818 265.453 110.71C266.96 109.311 269.101 108.574 268.512 104.953C268.013 101.884 265.774 97.213 270.729 94.2053C267.013 94.3927 266.017 92.1887 264.987 89.6391C263.494 85.9417 261.593 82.4106 259.867 78.8077C259.287 77.5965 258.457 75.6778 257.295 76.1049C252.98 77.696 251.717 73.9889 249.099 71.5321ZM-27.8363 249.688C-27.8363 247.766 -27.7288 246.26 -27.8608 244.775C-28.0874 242.215 -30.2373 242.431 -31.5788 243.019C-32.6203 243.475 -35.005 243.536 -34.2095 246.068C-31.4761 254.755 -32.591 263.808 -31.9683 272.684C-31.463 279.883 -32.0906 287.162 -29.9406 295.033C-28.0271 292.128 -24.4085 291.729 -24.2781 288.354C-24.0793 283.232 -23.2871 278.136 -24.6237 272.976C-26.86 264.334 -23.129 252.424 -17.1209 248.169C-16.9367 248.625 -16.5341 249.11 -16.6254 249.468C-20.2488 263.7 -20.1217 278.146 -19.2252 292.65C-18.9579 296.973 -18.8405 301.305 -19.4615 305.636C-19.6148 306.707 -21.5528 307.938 -19.53 309.017C-17.68 310.004 -15.5561 310.233 -13.7045 309.523C-12.2424 308.962 -12.7917 307.069 -13.0378 305.905C-13.8398 302.115 -13.4225 298.411 -13.2888 294.593C-12.9791 285.801 -11.2856 277.058 -12.6434 268.157C-13.5154 262.442 -14.7884 256.662 -14.0256 250.786C-13.9783 250.417 -13.4958 250.104 -13.297 249.864C-11.6638 250.323 -12.3402 252.807 -10.35 252.812C-10.0566 246.043 -10.0501 246.02 -20.3483 242.983C-26.1591 241.265 -24.3694 247.866 -27.8363 249.688ZM254.411 322.828C247.841 324.076 252.038 326.808 251.97 328.802C251.891 331.094 254.243 329.894 255.376 329.9C273.689 330.023 292.002 330.02 310.313 330.013C311.032 330.013 311.992 330.399 312.46 329.245C311.485 327.799 309.966 326.796 309.196 325.081C307.464 321.218 304.551 319.963 300.103 320.054C284.127 320.383 268.142 320.142 252.16 320.192C251.021 320.196 249.554 319.415 248.617 320.936C249.637 322.431 251.114 322.674 254.411 322.828ZM449.713 308.696C459.768 309.045 459.905 310.563 459.206 300.455C459.081 298.647 459.45 296.808 459.525 294.981C459.837 287.539 463.343 280.5 461.307 272.657C459.925 267.332 457.93 261.71 459.936 255.994C460.503 254.377 461.591 252.8 458.914 252.258C456.971 251.863 455.93 252.667 455.431 254.753C453.196 264.098 450.254 273.284 450.996 283.129C451.371 288.101 451.263 293.122 451.136 298.114C451.046 301.565 451.579 305.132 449.713 308.696ZM467.767 255.195C467.895 256.043 468.199 256.682 468.034 257.165C466.314 262.231 466.461 267.605 466.014 272.787C465.595 277.647 466.525 282.826 467.951 287.534C468.485 289.305 469.284 290.684 468.441 292.359C466.288 296.639 466.606 301.44 465.473 305.931C465.23 306.893 464.631 308.129 466.295 308.844C470.741 310.758 473.789 308.362 473.996 303.494C474.247 297.604 470.802 292.547 471.354 286.481C472.577 273.05 475.856 259.854 475.864 246.299C475.864 245.316 475.801 244.106 476.989 243.805C478.862 243.329 478.324 245.838 479.845 246.208C479.845 245.044 480.198 243.738 479.755 242.82C479.209 241.692 472.917 243.44 472.95 244.752C473.01 247.225 471.362 247.924 469.778 249.207C467.553 251.007 464.844 251.534 462.251 252.579C463.477 255.386 464.523 257.781 465.703 260.484C466.798 258.575 465.793 256.615 467.767 255.195ZM278.823 221.241C274.866 219.325 270.498 219.428 266.338 219.069C262.938 218.776 260.861 221.479 259.943 224.879C259.314 227.209 260.524 227.716 262.224 227.287C268.124 225.797 274.083 227.406 279.218 229.108C284.049 230.708 288.191 229.839 292.662 229.747C294.07 229.718 295.143 229.154 294.382 227.685C293.759 226.487 295.998 224.183 293.343 224.134C290.701 224.086 288.37 222.796 285.56 223.184C280.171 223.927 274.683 223.952 268.251 224.332C270.315 222.985 269.091 218.874 271.081 220.613C274.116 223.267 276.299 221.117 278.823 221.241ZM145.475 100.581C141.135 100.659 137.819 102.542 135.785 106.386C135.332 107.242 134.154 108.471 135.503 109.42C136.354 110.017 137.474 109.541 138.145 108.708C139.198 107.402 141.026 106.277 141.27 108.45C141.606 111.44 143.21 110.302 144.582 110.359C147.554 110.48 150.569 110.283 153.487 110.733C155.449 111.036 155.671 110.695 155.567 108.864C155.257 103.476 151.747 100.509 145.475 100.581ZM181.537 80.4119C183.63 80.2195 184.684 80.4462 185.214 80.0207C187.907 77.8508 189.361 77.9714 190.741 81.584C191.608 83.8533 195.564 83.0529 196.283 80.4918C197.498 76.1636 198.911 71.9397 201.048 67.9749C201.426 67.2739 202.035 66.5224 201.248 65.7676C200.521 65.0699 199.68 65.4089 198.968 65.8458C192.749 69.6557 186.79 73.7752 181.537 80.4119ZM134.473 122.113C141.854 119.322 150.075 122.24 156.667 117.247C157.079 116.934 157.917 116.994 158.499 117.13C160.306 117.55 162.266 116.885 162.342 115.387C162.435 113.585 160.388 113.74 158.857 113.889C157.937 113.978 156.662 113.378 156.104 113.81C150.582 118.08 143.911 117.602 137.58 118.404C135.498 118.668 134.069 119.009 134.473 122.113ZM151.752 252.861C155.987 251.508 159.663 249.467 163.951 249.827C164.96 249.912 166.126 249.866 166.049 248.43C165.984 247.176 166.209 245.784 164.639 245.006C158.13 241.783 152.861 244.785 151.752 252.861ZM264.576 250.648C264.576 250.644 264.576 250.639 264.576 250.632C266.566 250.632 268.556 250.622 270.546 250.634C274.196 250.657 271.945 248.277 272.124 246.848C272.462 244.146 270.093 244.467 269.344 245.114C265.955 248.039 262.044 246.537 258.371 246.845C257.397 246.927 256.04 245.528 255.714 247.54C255.432 249.276 256.325 250.495 258.111 250.614C260.256 250.758 262.419 250.648 264.576 250.648ZM113.618 319.94C111.65 320.597 108.087 319.351 108.235 320.714C108.672 324.729 104.392 326.232 104.292 329.685C108.777 329.858 111.613 326.925 113.618 319.94ZM-23.2952 307.896C-25.2235 304.428 -24.6074 301.556 -24.9872 298.668C-27.5592 301.371 -29.8657 303.794 -32.2601 306.311C-29.7679 306.751 -27.0751 307.227 -23.2952 307.896ZM19.6008 191.818C19.7181 182.875 17.6269 181.318 9.93665 183.576C13.49 185.513 16.4582 188.027 19.6008 191.818ZM373.859 118.913C372.345 116.197 371.323 114.327 370.262 112.482C369.882 111.82 368.894 110.586 368.677 111.199C367.844 113.563 364.384 111.978 364.227 114.057C364.047 116.463 366.327 117.051 368.372 117.456C369.804 117.739 371.201 118.197 373.859 118.913ZM101.618 141.912C102.279 144.863 102.817 147.455 103.458 150.021C103.712 151.042 103.424 152.704 105.13 152.561C106.229 152.47 107.466 151.961 108.301 151.244C109.769 149.98 108.046 149.221 107.443 148.462C105.714 146.289 104.467 143.668 101.618 141.912ZM207.085 223.345C202.828 220.682 198.787 222.012 194.971 221.937C192.803 221.895 193.969 223.921 193.886 225.047C193.742 226.981 195.762 226.914 196.194 226.391C198.961 223.05 202.906 223.994 207.085 223.345ZM168.618 240.748C167.009 237.644 157.599 236.329 156.09 238.657C155.852 239.025 155.752 239.692 155.922 240.075C156.329 240.996 157.258 240.75 158.049 240.75C161.346 240.747 164.642 240.748 168.618 240.748ZM231.199 44.0627C228.343 46.0532 225.693 47.84 225.893 50.0473C226.084 52.1552 229.435 52.2171 231.958 53.4332C231.699 50.2429 231.481 47.5449 231.199 44.0627ZM255.207 237.401C256.149 241.219 261.086 241.922 269.014 239.465C264.168 238.096 259.471 239.825 255.207 237.401ZM-35.8591 213.186C-30.9268 214.829 -30.0629 213.848 -30.8029 207.558C-32.5845 209.541 -34.1639 211.298 -35.8591 213.186ZM117.078 143.774C116.442 141.976 114.556 141.969 113.248 141.273C112.239 140.737 111.904 141.974 111.831 142.685C111.655 144.405 113.024 145.605 114.188 146.069C115.613 146.638 116.134 144.754 117.078 143.774ZM177.323 101.463C174.505 99.0194 172.975 100.423 171.462 102.427C170.678 103.467 170.831 104.688 171.762 104.865C174.494 105.387 175.185 102.526 177.323 101.463ZM162.69 97.2065C163.205 99.3552 164.911 99.7921 166.383 100.214C167.495 100.534 168.478 99.1449 168.194 98.4912C167.552 97.0028 166.989 94.9568 165.227 94.6667C164.525 94.5509 163.511 96.3392 162.69 97.2065ZM477.542 219.694C476.731 221.833 475.789 224.02 478.052 226.391C477.845 223.678 477.693 221.686 477.542 219.694ZM26.1043 159.84C24.7515 163.519 24.7514 163.519 25.7539 165.57C26.5509 163.95 26.1158 162.313 26.1043 159.84Z" fill="#F2F3F4"/>
<path d="M134.611 381.527C136.021 378.871 138.507 380.147 140.45 380.146C223.924 380.056 307.4 380.045 390.874 380.03C450.308 380.019 509.743 380.006 569.177 380.05C571.242 380.051 573.545 379.215 575.362 381.034C551.49 381.134 527.619 381.295 503.746 381.318C439.131 381.38 374.517 381.355 309.902 381.419C253.303 381.474 196.705 381.602 140.106 381.688C138.276 381.691 136.443 381.584 134.611 381.527Z" fill="#F2F3F4"/>
<path d="M251.848 166.728C250.524 168.558 252.984 171.462 249.292 172.727C250.508 173.12 251.015 173.48 251.373 173.368C253.422 172.722 255.913 171.362 256.764 174.452C257.642 177.647 254.92 178.708 252.433 179.409C251.17 179.766 249.788 179.691 248.513 180.019C247.96 180.161 246.404 180.232 247.233 181.335C250.563 185.764 245.82 184.942 244.396 185.273C239.581 186.39 234.694 185.017 229.886 184.88C231.985 186.566 233.859 185.28 234.161 183.529C234.673 180.57 231.625 181.618 231.284 181.263C234.792 181.054 239.466 180.775 244.35 180.485C244.206 177.991 240.213 176.809 242.21 173.335C243.044 171.881 240.306 171.693 238.932 171.363C230.938 169.431 222.691 169.864 214.613 168.738C211.26 168.27 207.778 168.273 204.719 166.198C216.989 163.775 229.072 168.606 241.801 167.249C240.634 165.776 241.996 161.811 237.949 164.607C237.416 164.975 235.861 164.89 235.626 164.504C233.048 160.238 228.805 162.246 225.289 161.607C222.758 161.147 219.948 162.047 217.79 159.76C216.856 158.769 215.822 159.561 214.681 160.042C211.674 161.31 208.673 160.61 205.726 159.366C206.385 157.996 207.496 157.864 208.414 158.076C214.754 159.534 221.022 157.105 227.387 157.871C232.238 158.454 233.817 156.011 231.033 152.03C229.843 150.328 229.791 149.633 230.942 148.513C232.114 147.37 233.638 147.558 234.386 148.857C236.058 151.765 240.526 149.384 241.747 152.943C240.614 154.447 238.66 154.014 237.273 154.894C237.189 156.7 238.81 157.007 239.858 157.442C242.876 158.696 246.166 158.906 245.802 163.916C245.525 167.737 248.322 169.08 251.929 166.834C251.934 166.842 251.848 166.728 251.848 166.728Z" fill="#F2F3F4"/>
<path d="M218.708 206.65C214.697 206.673 210.685 206.694 206.674 206.717C200.989 204.994 195.303 204.986 189.619 206.73C183.051 207.78 178.63 203.211 173.465 200.268C178.034 200.268 182.602 200.268 187.29 200.268C188.355 202.045 184.881 202.472 185.985 204.445C186.526 204.445 187.419 204.725 187.783 204.404C196.221 196.932 206.428 198.305 216.34 198.871C225.306 199.383 234.227 200.558 242.911 203.879C242.242 206.22 240.447 206.381 238.672 206.57C232.01 205.134 225.355 205.04 218.708 206.65Z" fill="#F2F3F4"/>
<path d="M371.513 180.925C368.079 181.026 365.647 182.925 363.479 185.346C362.553 186.38 362.203 188.299 360.179 187.798C357.633 187.169 359.243 185.082 358.725 183.237C355.194 184.288 353.22 186.698 352.13 189.942C351.581 191.575 351.238 193.489 348.977 192.865C346.643 192.221 347.594 190.074 347.77 188.615C348.453 182.976 354.653 177.868 360.632 178.336C363.227 178.54 365.388 177.999 367.789 177.277C371.095 176.281 374.757 174.646 377.424 179.044C378.172 180.276 380.185 179.05 381.616 178.992C384.343 178.879 386.097 179.916 384.926 182.753C383.085 187.216 388.053 189.433 387.962 193.22C392.188 191.598 392.24 196.835 394.03 197.255C398.905 198.4 397.381 201.937 398.085 204.704C398.085 204.704 398.173 204.625 398.177 204.624C396.405 204.457 394.294 205.721 394.089 201.993C393.958 199.617 391.565 197.227 388.612 196.628C387.072 196.315 384.736 197.674 384.038 196.186C382.884 193.722 381.686 191.075 381.746 188.186C381.759 187.526 381.893 186.859 382.048 186.214C383.083 181.907 381.287 181.135 377.634 182.652C376.262 183.221 374.923 184.099 373.502 184.269C371.844 184.466 371.724 183.201 372.234 181.895C372.446 181.585 372.656 181.276 372.868 180.964C372.416 180.95 371.965 180.937 371.513 180.925Z" fill="#F2F3F4"/>
<path d="M73.883 95.6709C82.1323 95.8845 84.9978 97.9745 84.8821 103.692C84.781 108.721 80.5235 113.564 76.1943 113.576C71.4625 113.589 67.1789 108.723 67.267 103.434C67.337 99.1042 70.3411 95.5796 73.883 95.6709Z" fill="#F2F3F4"/>
<path d="M43.006 181.761C41.9172 177.308 40.5627 176.944 38.6849 179.285C36.9197 181.488 34.0884 182.702 33.9646 186.378C33.9042 188.175 31.2947 189.585 29.2311 190.372C28.1358 190.79 27.3143 190.108 26.6949 189.296C26.1244 188.55 26.1358 187.545 26.8351 187.04C30.6965 184.246 31.4723 178.961 35.4658 176.351C39.9384 173.428 45.0353 171.449 48.6229 167.199C49.4656 166.201 51.3433 165.619 52.1942 166.736C53.4118 168.335 51.4476 169.046 50.4191 169.523C46.0166 171.569 44.5284 175.549 43.006 181.761Z" fill="#F2F3F4"/>
<path d="M74.8971 183.173C74.4179 184.562 75.4122 187.112 73.2574 187.661C71.0683 188.219 70.4848 185.849 69.7089 184.239C69.4302 183.661 68.8956 182.58 68.8548 182.598C61.9959 185.588 64.7131 179.683 64.3088 177.378C63.7726 174.315 61.5085 175.2 59.8134 174.633C58.1508 174.078 55.0392 175.052 55.5575 171.952C56.0449 169.046 58.7588 170.166 60.498 170.666C64.0529 171.688 69.4579 170.28 69.3292 176.778C69.3243 177.022 70.3935 177.536 70.9363 177.505C75.1204 177.264 74.6804 180.307 74.8971 183.173Z" fill="#F2F3F4"/>
<path d="M508.032 372.888C508.189 375.068 506.495 373.998 505.755 373.998C463.728 374.06 421.701 374.059 379.673 374.05C378.374 374.05 376.961 374.336 375.996 373.049C391.833 372.986 407.668 372.878 423.505 372.865C451.681 372.842 479.856 372.877 508.032 372.888Z" fill="#F2F3F4"/>
<path d="M223.915 190.495C212.603 192.229 201.462 190.242 191.004 194.114C198.886 187.463 217.251 185.325 223.915 190.495Z" fill="#F2F3F4"/>
<path d="M431.396 219.826C442.875 222.03 454.421 221.844 466.997 220.191C460.694 226.076 440.87 225.504 431.396 219.826Z" fill="#F2F3F4"/>
<path d="M302.887 228.759C299.728 223.083 306.064 225.709 307.218 223.805C306.627 225.267 306.997 225.677 308.68 225.822C319.102 226.722 329.533 226.668 339.971 226.417C343.29 226.337 346.512 226.699 349.635 228.758C348.168 228.758 346.701 228.792 345.236 228.753C333.237 228.425 321.241 228.073 309.243 227.759C307.913 227.724 306.574 227.936 305.44 226.968C302.288 224.271 303.624 227.998 302.887 228.759Z" fill="#F2F3F4"/>
<path d="M366.419 335.786C369.245 337.99 368.378 341.201 369.493 343.748C373.043 351.855 380.132 357.854 382.596 366.542C383.2 368.664 383.713 369.957 380.678 370.508C379.187 370.779 378.566 370.619 377.928 369.57C377.006 368.056 378.461 368.204 379.201 367.75C381.643 366.243 380.769 364.615 379.408 362.823C374.469 356.32 370.346 349.31 366.822 341.95C365.925 340.076 364.484 338.185 366.419 335.786Z" fill="#F2F3F4"/>
<path d="M466.02 216.547C454.788 217.757 444.161 214.365 431.811 213.088C437.582 211.156 460.865 213.686 466.02 216.547Z" fill="#F2F3F4"/>
<path d="M328.462 180.058C328.984 177.446 327.649 175.169 330.234 174.44C333.312 173.571 332.886 176.535 333.859 177.996C335.848 180.979 337.199 184.094 336.153 187.759C335.734 189.225 335.025 190.811 333.307 190.698C331.939 190.609 331.954 189.011 331.854 187.883C331.569 184.665 327.069 182.968 328.462 180.058Z" fill="#F2F3F4"/>
<path d="M18.2155 220.004C7.53263 223.306 -3.13553 220.458 -13.8086 220.357C-3.13879 219.006 7.52774 217.739 18.2155 220.004Z" fill="#F2F3F4"/>
<path d="M385.093 230.623C380.95 230.422 376.823 230.271 372.707 229.984C371.781 229.918 370.065 230.756 370.179 228.743C370.259 227.326 370.305 225.69 372.548 225.681C377.358 225.662 382.262 225.261 385.093 230.623Z" fill="#F2F3F4"/>
<path d="M-16.6992 206.288C-16.7122 205.798 -16.7252 205.307 -16.7383 204.818C-5.62513 204.818 5.4864 204.818 16.5996 204.818C16.6126 205.269 16.6273 205.721 16.6403 206.173C5.57605 207.501 -5.56482 206.812 -16.6992 206.288Z" fill="#F2F3F4"/>
<path d="M193.763 182.314C196.53 182.797 199.159 183.175 201.742 183.749C202.626 183.946 203.796 184.323 203.768 185.571C203.737 186.96 202.459 186.902 201.553 187.037C197.861 187.59 194.287 186.682 190.701 186.005C189.542 185.787 188.89 185.038 189.221 183.889C190.039 181.072 192.38 183.188 193.763 182.314Z" fill="#F2F3F4"/>
<path d="M60.86 133.887C59.1142 140.644 55.6848 146.466 52.1755 152.24C51.7337 152.967 51.2105 154.278 49.9505 153.462C49.1763 152.962 49.3377 152.083 49.7582 151.247C52.8649 145.064 56.1379 138.989 60.86 133.887Z" fill="#F2F3F4"/>
<path d="M184.365 211.714C181.87 212.974 179.475 212.961 177.374 215.247C175.276 217.531 170.897 215.287 170.057 212.061C169.741 210.845 169.705 209.497 170.739 208.887C171.984 208.153 172.179 209.583 172.685 210.382C173.884 212.28 175.708 210.827 177.227 211.057C179.588 211.416 181.985 211.508 184.365 211.714Z" fill="#F2F3F4"/>
<path d="M5.17904 330.644C4.66071 332.088 3.42844 331.935 2.27116 331.937C-12.3432 331.958 -26.9559 331.979 -41.5702 331.992C-42.7242 331.994 -43.9223 332.061 -44.7812 331.037C-28.1278 330.905 -11.4744 330.774 5.17904 330.644Z" fill="#F2F3F4"/>
<path d="M252.684 195.087C246.215 196.572 240.697 194.368 235.564 190.672C241.196 192.436 247.114 193.085 252.684 195.087Z" fill="#F2F3F4"/>
<path d="M281.495 174.994C282.528 175.606 283.404 176.347 282.641 177.419C280.871 179.901 279.991 182.715 279.208 185.589C278.972 186.46 278.594 187.156 277.516 186.838C276.76 186.616 276.563 185.977 276.618 185.281C276.905 181.709 278.382 178.607 280.466 175.764C280.719 175.421 281.177 175.228 281.495 174.994Z" fill="#F2F3F4"/>
<path d="M49.0812 359.582C52.2369 365.593 47.7284 367.063 44.9199 370.558C45.0308 365.945 47.298 363.426 49.0812 359.582Z" fill="#F2F3F4"/>
<path d="M52.3704 373.056C51.7331 374.022 50.7405 374.068 49.7332 374.07C39.4627 374.076 29.1906 374.083 18.9201 374.083C17.9177 374.083 16.9169 374.04 16.3008 373.048C28.3235 373.049 40.3478 373.053 52.3704 373.056Z" fill="#F2F3F4"/>
<path d="M32.3066 223.786C32.8869 222.782 33.8698 222.682 34.8722 222.682C44.0881 222.679 53.3039 222.684 62.5198 222.692C63.6803 222.693 64.8556 222.7 65.5124 223.934C54.4449 223.885 43.3758 223.835 32.3066 223.786Z" fill="#F2F3F4"/>
<path d="M341.903 233.815C339.39 235.768 336.476 234.679 333.765 234.755C327.646 234.928 321.519 234.827 315.397 234.744C313.842 234.723 312.011 235.388 310.906 233.546C321.239 233.635 331.571 233.725 341.903 233.815Z" fill="#F2F3F4"/>
<path d="M12.2612 227.602C11.4071 228.997 9.99387 228.748 8.70945 228.753C0.455267 228.781 -7.80053 228.777 -16.0547 228.787C-17.0604 228.789 -18.0449 228.748 -18.7246 227.842C-8.3971 227.762 1.93202 227.682 12.2612 227.602Z" fill="#F2F3F4"/>
<path d="M9.27603 373.002C7.89545 374.777 5.91503 374.132 4.22801 374.036C-3.41656 373.597 -11.1377 375.13 -18.7188 373.163C-9.38716 373.108 -0.0555592 373.056 9.27603 373.002Z" fill="#F2F3F4"/>
<path d="M78.963 90.6073C78.7984 92.7592 77.2923 92.813 75.721 92.7592C74.1676 92.7054 72.4529 92.544 72.4969 90.5486C72.5409 88.6086 74.2622 88.4521 75.8009 88.3543C77.4928 88.2483 78.7576 88.7227 78.963 90.6073Z" fill="#F2F3F4"/>
<path d="M221.744 221.973C219.607 219.249 215.935 222.155 213.703 219.78C218.678 219.633 223.651 219.485 228.626 219.338C227.807 220.387 229.118 222.685 226.624 222.749C225.268 220.788 223.131 223.737 221.744 221.973Z" fill="#F2F3F4"/>
<path d="M81.5941 209.44C80.8117 211.16 82.0537 213.176 80.7889 214.815C80.766 214.844 80.5134 214.697 80.3683 214.632C80.6047 208.991 78.7384 203.328 80.5558 197.705C80.8394 197.687 81.123 197.681 81.4066 197.684C81.4685 201.603 81.5321 205.521 81.5941 209.44Z" fill="#F2F3F4"/>
<path d="M183.717 259.846C185.146 267.862 185.423 275.873 183.593 283.873C183.031 275.86 182.918 267.851 183.717 259.846Z" fill="#F2F3F4"/>
<path d="M175.524 267.794C173.444 260.078 175.027 252.23 174.689 244.45C176.831 245.681 175.786 247.747 175.798 249.388C175.838 255.523 175.635 261.659 175.524 267.794Z" fill="#F2F3F4"/>
<path d="M194.697 137.948C195.331 136.366 196.741 136.521 198.029 136.518C203.607 136.505 209.184 136.528 214.762 136.539C215.926 136.543 217.098 136.541 217.623 137.897C209.982 137.915 202.339 137.932 194.697 137.948Z" fill="#F2F3F4"/>
<path d="M87.3476 154.158C81.7616 156.77 76.0893 156.009 70.4023 154.586C76.0502 154.442 81.6997 154.3 87.3476 154.158Z" fill="#F2F3F4"/>
<path d="M218.711 206.65C225.36 205.04 232.013 205.134 238.675 206.569C232.023 207.523 225.364 206.711 218.711 206.65Z" fill="#F2F3F4"/>
<path d="M479.105 264.788C477.812 259.414 476.957 254.056 479.71 248.836C479.509 254.153 479.307 259.47 479.105 264.788Z" fill="#F2F3F4"/>
<path d="M538.269 373.139C531.586 374.362 524.912 375.283 518.328 372.632C524.975 372.802 531.622 372.971 538.269 373.139Z" fill="#F2F3F4"/>
<path d="M91.4181 215.618C91.4312 216.34 91.4459 217.064 91.4589 217.786C88.1158 217.762 84.7728 217.739 81.4297 217.715C81.7655 217.043 82.0996 216.37 82.4354 215.698C85.4296 215.67 88.4239 215.644 91.4181 215.618Z" fill="#F2F3F4"/>
<path d="M54.3926 163.564C59.4259 162.385 64.4609 161.143 69.3231 164.172C64.3452 163.97 59.3689 163.767 54.3926 163.564Z" fill="#F2F3F4"/>
<path d="M189.635 309.94C183.615 311.454 177.607 311.784 171.625 309.748C177.63 309.811 183.631 309.876 189.635 309.94Z" fill="#F2F3F4"/>
<path d="M238.71 283.851C236.991 278.186 237.067 272.516 238.678 266.845C238.688 272.513 238.699 278.183 238.71 283.851Z" fill="#F2F3F4"/>
<path d="M254.76 309.909C249.071 311.36 243.397 311.929 237.775 309.606C243.436 309.707 249.097 309.808 254.76 309.909Z" fill="#F2F3F4"/>
<path d="M189.621 206.73C195.305 204.986 200.989 204.994 206.675 206.717C200.99 206.722 195.305 206.725 189.621 206.73Z" fill="#F2F3F4"/>
<path d="M129.484 211.792C124.479 213.249 119.48 213.457 114.49 211.712C119.491 211.011 124.487 211.613 129.484 211.792Z" fill="#F2F3F4"/>
<path d="M397 245.766C395.469 241.048 395.292 236.348 397.171 231.671C397.57 236.374 397.437 241.073 397 245.766Z" fill="#F2F3F4"/>
<path d="M171.664 140.854C175.925 138.502 180.257 139.074 184.613 140.535C180.295 140.641 175.979 140.747 171.664 140.854Z" fill="#F2F3F4"/>
<path d="M192.377 139.284C191.736 138.107 191.335 136.899 191.958 135.336C192.986 136.244 193.936 137.08 194.888 137.92C194.205 138.662 193.439 139.249 192.377 139.284Z" fill="#F2F3F4"/>
<path d="M187.678 140.209C188.46 138.07 190.181 138.579 191.784 138.751C190.861 140.496 189.075 139.801 187.678 140.209Z" fill="#F2F3F4"/>
<path d="M81.4059 197.684C81.1223 197.681 80.8387 197.687 80.5551 197.705C80.4133 196.667 79.9422 195.584 80.974 194.699C82.0318 195.57 81.6292 196.641 81.4059 197.684Z" fill="#F2F3F4"/>
<path d="M397.059 230.755C396.05 230.184 395.936 229.537 396.891 228.799C396.946 229.451 397.002 230.103 397.059 230.755Z" fill="#F2F3F4"/>
<path d="M410.172 319.567C410.459 319.664 410.747 319.764 411.034 319.862L410.54 319.896L410.172 319.567Z" fill="#F2F3F4"/>
<path d="M105.484 373.074C132.152 373.017 158.819 372.927 185.487 372.911C246.162 372.873 306.84 372.872 367.516 372.862C369.013 372.862 370.511 372.942 372.009 372.986C370.581 374.724 368.603 374.026 366.864 374.027C281.469 374.062 196.073 374.062 110.679 374.027C108.93 374.026 106.971 374.701 105.484 373.074Z" fill="#F2F3F4"/>
<path d="M329.943 158.709C336.61 158.606 343.278 158.42 349.945 158.441C352.411 158.449 353.322 157.988 353.099 155.135C352.463 147.008 354.668 139.379 357.945 131.996C358.404 130.959 361.664 128.491 356.994 128.699C358.897 127.015 358.106 123.628 360.908 122.514C360.76 123.877 360.134 125.46 360.626 126.526C360.978 127.291 361.976 125.639 362.857 125.418C363.079 125.646 363.317 125.856 363.571 126.047C358.626 134.646 354.897 143.535 354.887 153.787C354.884 157.709 355.94 158.526 359.584 158.417C372.585 158.029 385.595 157.92 398.603 157.765C401.589 157.729 404.58 157.934 407.571 158.029C406.286 159.793 404.383 159.555 402.563 159.556C379.768 159.574 356.973 159.596 334.178 159.587C332.731 159.587 331.143 160.013 329.943 158.709Z" fill="#F2F3F4"/>
<path d="M360.057 309.681C378.746 309.576 397.434 309.479 416.123 309.358C418.12 309.345 420.115 309.201 422.11 309.12C421.559 311.048 420.004 310.907 418.488 310.907C400.002 310.902 381.515 310.905 363.03 310.903C361.877 310.902 360.637 311.088 360.057 309.681Z" fill="#F2F3F4"/>
<path d="M27.3438 309.977C58.3784 309.876 89.4131 309.777 120.449 309.676C119.341 311.528 117.499 310.895 115.936 310.897C87.9787 310.928 60.0214 310.923 32.0625 310.889C30.4619 310.885 28.695 311.415 27.3438 309.977Z" fill="#F2F3F4"/>
<path d="M156.574 231.708C148.234 231.366 139.891 231.024 131.551 230.681C139.513 228.737 147.555 229.959 155.567 230.15C155.916 230.158 156.238 231.166 156.574 231.708Z" fill="#F2F3F4"/>
<path d="M190.656 119.599C194.976 119.502 199.293 119.404 203.613 119.306C200.369 121.124 196.141 120.719 193.408 124.086C193.015 124.57 190.679 121.777 190.656 119.599Z" fill="#F2F3F4"/>
<path d="M221.743 221.973C223.13 223.737 225.267 220.789 226.623 222.747C221.368 223.82 215.986 222.829 210.713 223.916C214.335 222.757 218.516 225.375 221.743 221.973Z" fill="#F1EEEE"/>
<path d="M62.4021 373.036C71.0621 372.958 79.7238 372.878 88.3838 372.8C87.6275 374.336 86.1867 374.055 84.8973 374.06C77.9129 374.085 70.9268 374.089 63.9424 374.055C63.3165 374.052 62.1185 374.562 62.4021 373.036Z" fill="#F2F3F4"/>
<path d="M229.708 236.78C230.717 236.818 231.728 236.854 232.737 236.889C232.722 237.481 232.709 238.071 232.694 238.663C225.019 238.673 217.342 238.683 209.666 238.692C212.851 236.695 216.378 238.187 219.708 237.7C223.027 237.214 226.543 238.896 229.708 236.78Z" fill="#F2F3F4"/>
<path d="M279.745 261.835C280.442 270.169 280.335 278.499 279.712 286.832C278.226 278.498 278.185 270.166 279.745 261.835Z" fill="#F2F3F4"/>
<path d="M137.605 222.199C144.252 222.397 150.9 222.596 157.547 222.793C150.86 223.932 144.171 225.163 137.605 222.199Z" fill="#F2F3F4"/>
<path d="M137.255 253.858C138.135 257.49 137.474 261.15 137.454 264.797C136.559 264.787 135.664 264.778 134.77 264.768C135.462 261.132 136.157 257.499 136.849 253.863L137.255 253.858Z" fill="#F2F3F4"/>
<path d="M148.612 300.871C148.406 293.868 147.776 286.866 148.578 279.861C150.24 286.861 150.196 293.864 148.612 300.871Z" fill="#F2F3F4"/>
<path d="M137.491 281.875C137.833 286.615 138.848 291.399 136.552 295.964C137.026 291.277 135.479 286.458 137.491 281.875Z" fill="#F2F3F4"/>
<path d="M129.555 309.73C135.55 309.8 141.545 309.868 147.538 309.938C141.525 311.466 135.525 311.798 129.555 309.73Z" fill="#F2F3F4"/>
<path d="M280.836 112.363C286.484 112.311 292.132 112.259 297.779 112.208C292.151 114.375 286.5 114.137 280.836 112.363Z" fill="#F2F3F4"/>
<path d="M196.721 251.372C201.006 251.428 205.291 251.485 209.578 251.54C205.265 253.578 200.977 253.746 196.721 251.372Z" fill="#F2F3F4"/>
<path d="M210.707 130.625C216.032 130.111 221.357 130.292 226.682 130.6C221.361 132.188 216.034 132.216 210.707 130.625Z" fill="#F2F3F4"/>
<path d="M191.718 236.128C196.336 237.318 200.959 236.174 205.58 236.157C205.259 238.215 203.371 237.426 202.233 237.998C198.718 237.985 195.203 237.972 191.688 237.96C191.699 237.349 191.709 236.739 191.718 236.128Z" fill="#F2F3F4"/>
<path d="M477.544 219.694C477.696 221.686 477.847 223.678 478.054 226.391C475.79 224.02 476.734 221.833 477.544 219.694Z" fill="#F1EEEE"/>
<path d="M437.096 307.913C436.51 302.905 436.681 297.902 437.17 292.899C438.712 297.912 438.849 302.917 437.096 307.913Z" fill="#F2F3F4"/>
<path d="M396.34 255.865C396.214 260.511 396.089 265.158 395.963 269.804C394.568 265.115 394.015 260.451 396.34 255.865Z" fill="#F2F3F4"/>
<path d="M391.998 244.721C387.674 244.716 383.348 244.713 379.023 244.708C383.351 243.112 387.675 243.071 391.998 244.721Z" fill="#F2F3F4"/>
<path d="M106.507 217.793C102.812 217.793 99.117 217.791 95.4219 217.791C99.117 216 102.812 215.998 106.507 217.793Z" fill="#F2F3F4"/>
<path d="M351.043 309.72C352.645 309.285 354.251 309.262 355.86 309.684C354.267 311.58 352.662 311.543 351.043 309.72Z" fill="#F2F3F4"/>
<path d="M145.499 216.944C142.182 216.851 138.864 216.758 135.547 216.665C138.906 215.302 142.24 214.85 145.499 216.944Z" fill="#F2F3F4"/>
<path d="M81.5566 256.775C81.5681 255.794 81.5795 254.812 81.5892 253.831C82.608 253.964 83.3952 254.338 83.2388 255.567C83.1149 256.545 82.3635 256.713 81.5566 256.775Z" fill="#F2F3F4"/>
<path d="M202.636 319.883C201.65 319.883 200.662 319.881 199.676 319.881C200.664 318.683 201.65 318.683 202.636 319.883Z" fill="#F2F3F4"/>
<path d="M100.473 373.074C101.467 373.071 102.461 373.067 103.456 373.064C102.464 374.337 101.47 374.326 100.473 373.074Z" fill="#F2F3F4"/>
<path d="M251.73 230.761C252.814 231.327 252.837 232.15 252.048 233.71C251.937 232.33 251.872 231.515 251.809 230.696L251.73 230.761Z" fill="#F1EEEE"/>
<path d="M245.72 319.888C245.065 319.888 244.411 319.886 243.758 319.884C244.411 318.922 245.067 318.926 245.72 319.888Z" fill="#F2F3F4"/>
<path d="M285.94 96.5186C285.268 96.2627 285.382 95.922 285.86 95.5845C285.967 95.5079 286.251 95.4834 286.293 95.5437C286.693 96.129 286.254 96.3018 285.808 96.4599L285.94 96.5186Z" fill="#F1EEEE"/>
<path d="M355.807 129.511C355.263 129.997 354.718 130.483 354.174 130.972C354.2 129.907 355.023 129.731 355.807 129.511Z" fill="#F2F3F4"/>
<path d="M342.04 135.602C341.391 135.328 341.635 134.928 341.966 134.627C342.095 134.508 342.423 134.607 342.661 134.606C342.411 134.917 342.162 135.228 341.912 135.54L342.04 135.602Z" fill="#F1EEEE"/>
<path d="M345.339 139.729C344.865 140.316 344.392 140.903 343.918 141.49C344.094 140.664 344.286 139.85 345.339 139.729Z" fill="#F2F3F4"/>
<path d="M318.053 146.71C317.894 147.137 317.734 147.566 317.572 147.993C317.405 147.842 317.072 147.59 317.095 147.553C317.308 147.196 317.584 146.875 317.84 146.542L318.053 146.71Z" fill="#F1EEEE"/>
<path d="M266.452 215.215C265.468 216.06 264.167 216.523 263.593 215.18C263.16 214.167 264.519 214.219 265.297 214.166C265.681 214.516 266.066 214.867 266.452 215.215Z" fill="#F1EEEE"/>
<path d="M204.671 95.4964C204.739 95.3871 204.806 95.2779 204.875 95.1687C204.782 95.2486 204.691 95.3285 204.598 95.4084L204.671 95.4964Z" fill="#F1EEEE"/>
<path d="M423.68 200.262C424.081 200.185 424.482 200.108 424.884 200.032C424.799 200.41 424.715 200.787 424.632 201.166C424.315 200.865 423.998 200.563 423.68 200.262Z" fill="#F1EEEE"/>
<path d="M265.295 214.167C265.717 214.092 266.139 214.017 266.563 213.942C266.526 214.366 266.486 214.79 266.451 215.216C266.064 214.867 265.68 214.516 265.295 214.167Z" fill="#F1EEEE"/>
<path d="M243.758 60.3766C243.567 60.2136 243.376 60.0489 243.186 59.8858C243.38 59.863 243.573 59.8386 243.767 59.8158C243.723 60.0277 243.681 60.2396 243.635 60.4532L243.758 60.3766Z" fill="#F1EEEE"/>
<path d="M109.455 217.653C109.125 217.685 108.796 217.716 108.467 217.749C108.746 217.203 109.067 217.085 109.455 217.653Z" fill="#F2F3F4"/>
<path d="M230.189 40.8871C229.834 40.9653 229.478 41.042 229.123 41.1202C229.198 40.7469 229.273 40.3752 229.346 40.0002C229.627 40.2953 229.907 40.5904 230.189 40.8871Z" fill="#F1EEEE"/>
<path d="M347.273 137.685C346.872 138.089 346.473 138.494 346.07 138.9C346.47 138.495 346.872 138.091 347.273 137.685Z" fill="#F2F3F4"/>
<path d="M349.278 135.683C348.879 136.087 348.479 136.492 348.08 136.898C348.479 136.493 348.879 136.089 349.278 135.683Z" fill="#F2F3F4"/>
<path d="M388.498 136.013C388.433 135.577 388.366 135.142 388.301 134.707C388.685 134.836 389.07 134.963 389.455 135.09C389.137 135.396 388.816 135.705 388.498 136.013Z" fill="#F1EEEE"/>
<path d="M350.278 134.669C349.881 135.077 349.481 135.484 349.082 135.894C349.48 135.486 349.879 135.078 350.278 134.669Z" fill="#F2F3F4"/>
<path d="M346.262 138.671C346.148 139.349 345.803 139.804 345.084 139.907C345.477 139.496 345.87 139.084 346.262 138.671Z" fill="#F2F3F4"/>
<path d="M87.3171 239.806C87.485 240.112 87.4947 240.424 87.3464 240.74C87.2258 240.525 87.0791 240.318 87.0009 240.086C86.9846 240.034 87.2046 239.902 87.3171 239.806Z" fill="#F2F3F4"/>
<path d="M137.465 272.86C137.61 273.178 137.61 273.494 137.466 273.812C137.346 273.587 137.202 273.37 137.126 273.132C137.11 273.084 137.346 272.953 137.465 272.86Z" fill="#F2F3F4"/>
<path d="M351.272 133.66C351.185 134.385 350.74 134.749 350.051 134.868C350.457 134.465 350.864 134.063 351.272 133.66Z" fill="#F2F3F4"/>
<path d="M352.275 132.662C352.185 133.378 351.777 133.779 351.068 133.885C351.469 133.479 351.872 133.07 352.275 132.662Z" fill="#F2F3F4"/>
<path d="M353.297 131.689C353.217 132.415 352.782 132.785 352.088 132.899C352.489 132.496 352.893 132.093 353.297 131.689Z" fill="#F2F3F4"/>
<path d="M354.31 130.701C354.23 131.42 353.814 131.805 353.113 131.909C353.224 131.225 353.615 130.814 354.31 130.701Z" fill="#F2F3F4"/>
<path d="M371.514 180.925C371.965 180.938 372.417 180.95 372.868 180.963C372.656 181.273 372.446 181.582 372.234 181.894C371.994 181.571 371.755 181.248 371.514 180.925Z" fill="#F1EEEE"/>
<path d="M266.716 369.549C262.271 364.152 257.348 347.985 257.027 338.994C263.766 348.946 266.222 358.976 266.716 369.549Z" fill="#F2F3F4"/>
<path d="M182.611 371.629C183.27 361.351 186.225 352.525 187.909 342.192C188.976 348.148 185.495 367.536 182.611 371.629Z" fill="#F2F3F4"/>
<path d="M338.857 361.678C336.72 359.678 335.863 357.763 334.729 355.414C337.04 355.146 339.34 354.84 340.388 356.37C341.392 357.839 339.632 359.566 338.857 361.678Z" fill="#F2F3F4"/>
<path d="M137.255 253.858L136.849 253.863C136.256 252.329 135.726 250.768 135.037 249.279C134.796 248.759 134.192 248.102 133.699 248.052C129.893 247.652 129.881 247.696 128.734 243.705C128.468 242.779 128.471 241.187 127.381 241.358C122.134 242.18 123.95 237.672 122.268 235.602C124.807 234.475 125.267 237.038 127.351 237.414C127.351 236.198 127.334 235.008 127.356 233.818C127.389 232.009 129.019 232.667 129.899 232.15C130.786 231.63 131.395 231.563 131.778 232.613C134.3 239.514 138.874 245.888 137.255 253.858Z" fill="#F2F3F4"/>
<path d="M88.375 283.866C102.331 282.074 116.324 280.13 130.436 282.06C116.554 285.902 102.451 284.182 88.375 283.866Z" fill="#F2F3F4"/>
<path d="M128.273 288.941C113.827 291.659 99.2893 293.209 84.582 292.549C99.0415 289.973 113.586 288.524 128.273 288.941Z" fill="#F2F3F4"/>
<path d="M43.3281 282.963C53.7388 282.963 64.151 282.963 74.5617 282.963C64.1934 285.286 53.7779 285.379 43.3281 282.963Z" fill="#F2F3F4"/>
<path d="M77.9082 279.598C78.3744 277.743 77.6491 274.624 80.464 274.618C82.8226 274.613 82.7085 277.556 82.6906 279.43C82.671 281.418 83.1714 284.484 80.2423 284.486C77.6262 284.487 78.3776 281.519 77.9082 279.598Z" fill="#F2F3F4"/>
<path d="M344.895 290.1C328.282 291.011 311.723 290.723 295.273 287.963C311.914 286.439 328.435 287.552 344.895 290.1Z" fill="#F2F3F4"/>
<path d="M339.276 280.849C325.685 279.016 312.122 278.835 298.553 281.14C307.979 275.004 332.864 274.761 339.276 280.849Z" fill="#F2F3F4"/>
<path d="M415.526 289.538C410.073 294.154 399.572 294.125 395.608 290.183C395.108 289.686 394.687 289.233 394.93 288.502C395.202 287.681 395.955 287.63 396.521 287.906C402.338 290.742 408.632 289.714 415.526 289.538Z" fill="#F2F3F4"/>
<path d="M235.292 70.153C236.891 77.1466 236.769 78.8991 234.583 83.0839C232.419 78.816 232.419 78.816 235.292 70.153Z" fill="#F2F3F4"/>
<path d="M362.857 125.418C362.936 124.762 363.286 124.417 363.964 124.441L363.982 124.503C364.323 125.145 363.998 125.61 363.571 126.047C363.317 125.856 363.079 125.646 362.857 125.418Z" fill="#F2F3F4"/>
<path d="M363.965 124.441L364.103 124.369L363.98 124.506L363.965 124.441Z" fill="#F2F3F4"/>
<path d="M336.318 150.94C335.95 151.462 336.107 152.835 335.013 152.192C334.27 151.756 334.829 150.782 335.233 150.099C335.593 150.38 335.955 150.66 336.318 150.94Z" fill="#F2F3F4"/>
<path d="M202.238 238C203.376 237.426 205.264 238.216 205.585 236.159C206.937 235.613 208.328 235.634 209.731 235.898C215.05 237.264 220.364 237.372 225.672 235.849C227.073 235.928 228.761 234.751 229.71 236.783C226.546 238.899 223.029 237.217 219.712 237.703C216.382 238.192 212.854 236.7 209.669 238.696C208.776 240.732 211.836 239.741 211.531 241.917C208.351 240.585 203.479 244.534 202.238 238Z" fill="#F2F3F4"/>
<path d="M278.762 107.519C278.762 106.15 279.458 105.478 280.816 105.473C281.591 107.622 280.672 108.069 278.762 107.519Z" fill="#F2F3F4"/>
<path d="M225.67 235.846C220.361 237.37 215.047 237.261 209.729 235.895C215.044 235.88 220.356 235.864 225.67 235.846Z" fill="#F2F3F4"/>
</svg>
