<svg width="654" height="264" viewBox="0 0 654 264" fill="none" xmlns="http://www.w3.org/2000/svg">
<path d="M107.795 149.157C105.277 149.267 102.609 150.809 100.353 148.383C101.594 147.434 101.387 146.619 100.119 145.905C99.0985 145.261 97.9664 143.938 97.0762 144.085C91.3446 145.019 85.8671 144.099 80.4383 142.408C78.1721 141.703 75.4506 142.648 75.2616 144.284C74.9507 146.972 77.5583 147.86 80.0623 147.428C83.2147 146.883 84.6801 147.968 84.3386 151.224C81.8164 151.114 79.2941 151.004 76.7718 150.895C76.3571 150.21 75.7271 149.572 75.5624 148.832C74.5706 144.349 74.9649 138.006 67.5768 144.408C66.087 145.698 66.7496 141.806 65.1602 141.286C62.5851 137.715 58.1624 141.296 55.3231 138.748C50.3943 134.297 50.4025 132.686 57.4023 131.889C63.9469 131.143 68.335 125.715 75.2454 125.758C72.5605 122.492 69.0402 120.76 65.4814 120.71C59.6177 120.626 55.634 116.452 50.4817 115.023C49.6951 114.806 48.8192 114.582 49.0326 113.434C49.2765 112.113 50.3557 111.892 51.3821 111.924C55.4592 112.052 58.197 110.705 58.6035 106.159C58.7498 104.529 60.1095 103.517 61.6888 103.738C63.5485 104 62.8879 105.474 62.5627 106.64C61.6806 109.798 63.9977 109.534 65.8066 109.53C85.552 109.479 105.208 112.672 124.992 111.121C126.618 110.993 128.108 111.343 129.73 111.8C132.027 112.448 135.134 112.587 135.073 108.53C135.459 108.179 135.848 107.827 136.234 107.478C136.089 107.386 135.953 107.228 135.803 107.213C132.543 106.894 129.088 107.86 126.106 105.72C126.031 103.868 126.116 101.995 125.84 100.174C125.515 98.0276 125.09 95.5219 127.645 95.0219C130.222 94.5179 130.61 97.353 131.394 99.1637C132.083 100.753 131.27 102.872 133.911 104.797C133.911 102.432 133.403 100.503 134.027 99.0702C135.014 96.8042 130.974 90.3783 138.89 92.8088C139.685 93.0527 145.595 89.1203 144.851 83.9929C147.929 89.4088 151.272 94.3167 150.27 100.71C149.774 103.876 152.059 103.598 154.302 103.592C157.916 103.582 163.266 100.777 162.942 108.238C162.934 108.408 163.121 108.748 163.188 108.742C169.906 108.028 168.737 112.487 169.274 116.84C169.818 121.266 169.392 122.915 164.579 122.724C161.182 122.587 157.447 122.498 154.701 125.378C152.435 126.528 152 128.853 151.016 130.883C150.183 132.604 147.977 133.759 147.778 131.092C147.368 125.611 145.734 123.602 140.427 126.369C140.236 126.469 139.315 125.697 139.124 125.187C137.768 121.537 135.24 123.63 133.64 124.414C128.273 127.046 124.163 126.371 121.2 121.508C120.391 120.181 118.994 119.332 118.358 119.917C114.301 123.646 110.836 119.38 107.108 119.356C105.885 119.348 104.174 118.785 103.651 119.994C102.092 123.608 101.251 121.433 99.6838 119.968C97.1513 117.596 93.8059 118.377 90.8344 118.876C89.1515 119.161 90.2674 120.899 90.3954 122.018C90.0905 122.311 89.7857 122.604 89.4808 122.896C85.8752 121.86 84.3651 116.068 78.7737 118.438C80.5644 119.931 81.0928 121.982 83.0785 123.087C84.7919 124.04 87.4158 125.333 86.4016 127.609C85.3386 129.997 82.7858 128.066 80.8773 128.054C80.3916 128.052 79.9038 128.45 79.4262 128.664C80.4688 132.96 83.4403 134.082 86.9361 133.007C92.6819 131.241 98.3322 132.121 104.039 132.714C110.517 136.453 117.214 134.982 123.907 133.541C127.029 133.08 130.016 133.69 133.075 134.336C145.689 137.004 151.205 134.882 155.3 126.085C158.004 125.544 157.849 132.468 162.308 128.8C161.55 130.347 160.792 131.893 159.932 133.645C164.766 136.25 168.113 131.231 172.294 131.722C172.534 131.751 172.965 131.318 173.087 131.011C173.599 129.731 170.07 128.142 173.07 127.255C175.375 126.575 174.934 129.452 175.922 130.568C177.023 131.812 177.475 130.332 178.282 129.981C182.924 127.953 187.517 127.093 191.456 131.611C187.517 131.68 184.875 134.671 181.412 135.968C184.58 137.274 187.641 138.156 190.224 134.868C197.696 137.411 205.389 135.649 212.964 135.852C217.388 135.97 222.065 137.254 226.348 134.809C227.622 134.803 228.896 134.799 230.171 134.793C238.077 136.616 245.971 136.99 253.839 134.572C254.203 134.082 254.495 133.247 254.94 133.155C264.997 131.082 274.97 126.195 285.31 132.06C285.216 132.245 285.068 132.425 285.045 132.619C285.027 132.787 285.149 133.127 285.21 133.127C293.507 133.161 301.888 135.053 310.045 132.013C318.219 128.225 326.685 130.907 335.03 130.897C344.355 130.885 353.68 130.895 363.757 130.895C361.192 127.56 358.338 126.743 354.987 127.026C346.27 125.268 337.558 125.116 328.857 127.142C320.136 128.103 311.661 125.361 301.429 126.243C304.638 123.528 306.961 123.831 309.045 123.788C324.611 123.473 340.205 123.197 355.739 122.748C383.878 121.935 411.994 122.553 440.115 122.234C442.816 122.203 445.521 122.386 448.222 122.506C450.881 122.626 453.489 123.258 453.472 126.479C453.454 129.826 450.834 130.017 448.127 130.156C445.22 130.304 442.005 129.062 438.887 131.647C446.277 133.986 453.417 131.31 460.212 132.895C482.352 138.061 504.863 135.21 527.194 136.189C538.415 136.681 549.649 136.866 560.878 137.177C567.148 137.35 574.034 134.23 579.152 140.687C579.492 141.115 580.748 140.851 581.577 140.851C599.005 140.857 616.434 140.857 635.393 140.857C614.107 132.194 592.827 134.899 572.268 132.281C570.016 131.995 568.185 134.287 565.831 132.797C564.872 132.192 563.352 132.606 562.254 130.964C567.848 128.528 562.728 122.169 566.699 118.793C568.825 119.728 567.691 121.711 568.205 123.126C569.002 125.325 566.827 129.206 571.311 129.31C575.662 129.412 580.784 131.243 583.441 125.92C583.912 124.973 586.463 122.417 582.778 121.179C579.994 120.244 579.644 121.726 579.25 123.732C579.106 124.465 578.593 125.126 578.288 125.743C576.433 125.37 576.077 124.16 576.024 122.902C575.845 118.726 576.187 113.991 569.693 115.428C566.356 116.165 561.584 112.04 559.771 118.194C559.712 118.393 559.651 118.592 559.592 118.791C558.039 112.554 554.868 119.695 552.96 118.019C547.159 112.918 540.074 115.302 533.544 114.467C532.324 114.31 531.115 114.082 529.901 113.887C519.997 110.8 510.022 111.662 500.034 113.365C487.882 113.473 475.825 112.611 463.846 110.111C467.799 107.163 472.332 107.841 476.614 107.445C480.545 107.081 484.518 107.004 488.467 107.089C491 107.144 493.451 106.9 493.5 103.974C493.557 100.566 490.217 103.12 488.628 101.661C489.258 100.125 493.612 101.537 492.047 98.7064C490.679 96.2332 486.608 96.5929 485.272 97.6009C477.411 103.539 468.897 99.5864 460.706 99.9725C457.848 100.107 452.621 99.0621 452.545 100.241C452.265 104.657 447.885 107.522 448.659 111.912C449.363 115.897 447.214 115.834 444.129 116.509C425.168 120.663 406.616 115.383 387.88 114.645C384.691 114.519 381.525 114.501 378.208 115.365C373.934 116.476 371.572 111.262 367.306 110.924C368.505 108.522 371.165 109.876 371.988 108.406C366.954 98.9035 358.129 101.121 350.056 101.113C339.278 101.104 328.445 101.873 317.851 99.2165C314.093 98.2736 313.177 100.04 312.791 103.659C318.618 103.659 324.195 103.761 329.766 103.596C331.42 103.547 333.03 103.204 334.686 103.689C336.914 104.344 338.455 105.557 338.262 108.065C338.054 110.743 336.215 111.394 333.859 111.3C323.148 110.878 312.415 111.758 301.736 111.92C283.123 112.207 264.379 110.941 245.808 113.542C243.971 113.8 241.985 113.96 240.215 113.544C234.553 112.213 231.164 113.867 230.673 120.328C229.24 115.405 226.86 111.278 226.669 106.037C226.555 102.873 222.006 100.348 218.083 101.174C214.319 101.966 208.811 100.668 207.133 104.163C204.734 109.156 202.344 114.696 203.259 120.762C203.525 122.524 204.124 123.4 205.939 123.39C211.017 123.366 216.096 123.382 221.173 123.382C221.201 122.789 221.23 122.197 221.26 121.604C217.415 121.232 213.543 121.016 209.736 120.397C208.529 120.2 205.37 120.811 206.604 118.151C207.72 115.743 205.901 112.253 209.017 110.908C211.382 109.888 211.679 111.969 211.811 113.7C211.972 115.767 211.734 118.281 214.834 118.06C218.004 117.832 216.1 115.162 216.559 113.643C217.067 111.961 216.787 110.014 218.049 108.61C220.535 109.288 219.862 111.4 220.551 112.835C220.809 112.678 221.285 112.497 221.27 112.381C221.051 110.729 221.362 109.236 223.315 109.359C224.754 109.451 225.041 110.932 225.173 112.229C225.551 115.907 226.518 119.622 224.193 123.278C226.886 123.524 229.408 123.406 231.725 124.042C235.607 125.107 238.142 125.065 237.492 119.921C237.276 118.212 238.132 115.783 240 116.842C242.128 118.049 246.245 117.31 246.233 120.301C246.223 123.079 246.128 126.754 243.221 128.698C241.319 129.973 239.081 130.749 237.339 127.993C236.67 126.934 235.49 127.603 234.502 127.871C219.699 131.897 205.33 126.235 190.163 126.548C193.295 122.88 194.035 122.618 200.511 122.453C202.22 121.553 195.568 120.551 200.69 119.053C202.891 118.409 202.068 114.223 202.122 111.558C202.068 110.995 202.017 110.435 201.964 109.874C201.643 110.107 201.322 110.343 201.003 110.577C200.259 110.75 199.59 111.583 198.74 110.835L198.86 110.924C197.93 107.268 196.57 103.553 201.588 101.527C202.629 101.107 202.019 100.182 201.578 99.1109C198.049 90.5591 203.305 77.4979 212.523 75.3173C217.793 74.0715 217.415 71.0922 218.583 67.9544C220.872 68.2023 220.083 69.8139 220.029 71.2222C219.935 73.5512 220.567 75.1424 223.02 76.5041C230.291 80.5401 233.026 86.893 230.984 95.1337C230.286 97.9443 230.173 99.0377 233.223 99.938C235.42 100.586 237.258 102.434 235.538 105.246C234.807 106.443 234.248 107.559 236.166 107.978C237.784 108.329 239.03 107.854 239.105 105.868C239.136 105.037 239.095 104.157 239.359 103.393C239.849 101.98 238.967 99.4421 241.241 99.4319C243.63 99.4197 242.869 101.948 243.077 103.401C243.43 105.88 243.115 108.545 246.914 108.394C260.219 107.864 273.472 106.844 286.702 104.504C273.194 103.271 259.568 103.494 246.262 100.576C267.149 96.792 288.423 100.814 309.795 96.1966C306.646 92.1869 303.262 88.3704 300.195 84.4502C297.645 81.1904 298.645 78.4144 300.187 76.8028C302.862 74.0085 304.935 69.7773 309.762 69.7916C313.532 69.8038 313.134 66.7127 313.62 64.5016C314.112 62.2662 315.262 59.6791 311.661 58.4353C309.99 57.8582 308.372 56.588 309.039 54.1574C309.724 51.6578 311.693 53.3039 312.782 52.806C316.439 51.1355 322.398 51.9647 321.62 44.6689C325.66 46.6564 326.339 50.5726 328.865 52.869C329.642 53.5742 330.246 56.1206 329.067 57.529C327.443 59.4718 326.28 57.0839 324.884 56.7018C322.231 55.9743 319.384 52.1943 316.963 56.6449C315.516 59.3071 319.63 68.1353 322.225 68.9299C322.408 68.9847 322.544 69.19 322.703 69.3241C325.555 63.2314 329.071 68.5214 332.333 68.6921C337.316 68.9522 342.318 68.8547 347.312 68.9441C352.416 69.0355 349.826 65.1967 350.111 63.0994C350.546 59.9067 349.31 55.7487 355.092 57.3603C355.487 58.0228 355.879 58.0187 356.273 57.3603C357.107 57.3156 357.942 57.2729 358.775 57.2282C359.759 58.8418 361.485 58.4577 362.95 58.7767C362.418 67.3996 362.418 67.3996 370.726 67.2207C370.925 67.2167 371.127 67.2919 371.326 67.3285C382.137 69.318 392.945 69.2876 403.756 67.3224C412.097 66.8021 420.402 69.5477 430.089 67.6272C422.873 64.6866 416.556 63.3148 410.132 62.2641C398.339 60.3355 386.582 61.1423 374.801 62.3962C372.442 62.6482 368.745 63.9 369.966 58.8723C368.903 56.462 366.537 57.9618 364.928 57.1957C363.749 55.2894 362.574 54.7366 361.407 57.2058C360.525 57.2139 359.645 57.2201 358.763 57.2282C361.903 53.375 366.267 53.1169 370.675 53.4136C374.184 53.6494 377.663 54.3038 381.155 54.7753C388.956 55.828 389.968 55.0232 390.508 47.3819C390.596 46.1382 390.716 44.8965 390.872 43.6588C391.134 41.6042 392.193 39.8138 394.291 39.8788C396.352 39.9439 397.472 41.8603 397.585 43.8133C397.778 47.1035 397.638 50.4141 397.638 54.9419C401.008 50.7473 399.492 46.9877 399.839 43.5816C400.061 41.4071 400.152 39.0314 402.776 38.8505C405.831 38.6412 406.323 41.1104 406.341 43.5633C406.368 46.947 406.347 50.3328 406.347 53.7165C407.079 53.7205 407.811 53.7246 408.542 53.7286C408.823 47.9631 409.376 42.1895 409.223 36.4362C409.175 34.6051 408.862 32.8513 409.38 31.0243C410.776 26.1063 408.191 23.3119 402.083 23.0559C401.74 22.7206 401.396 22.3873 401.051 22.052C402.5 20.034 402.093 18.4082 399.593 16.5954C399.059 20.1315 397.559 21.8731 393.951 22.5031C390.159 23.1656 388.677 26.8969 390.701 30.181C394.325 36.0583 387.191 35.8794 385.952 39.1005C384.815 42.0493 383.34 37.0215 381.094 37.5072C379.941 42.852 381.468 46.2459 389.567 45.9553C385.728 47.9022 383.872 49.2069 381.813 49.8247C374.316 52.0724 374.643 52.0459 375.927 44.49C376.6 40.5414 376.694 35.7107 370.586 35.2677C367.938 35.0746 365.922 34.2719 366.198 31.3474C366.48 28.3702 368.995 29.7095 370.643 29.6343C376.651 29.3599 376.289 23.5639 378.631 20.2168C379.801 18.5443 379.649 15.9471 380.143 13.5409C385.521 20.0969 389.846 15.2439 395.266 13.8254C404.563 11.3928 396.262 2.77809 402.211 0C404.026 3.31257 407.087 6.48896 406.805 11.0697C406.579 14.7175 410.248 14.7623 411.746 16.7864C411.427 17.136 411.107 17.4855 410.788 17.835C409.744 17.7212 408.475 16.0324 407.721 17.8533C407.112 19.3267 407.986 20.7371 409.388 21.4951C410.585 22.1434 411.941 23.4319 413.219 22.1719C413.542 21.8528 412.445 20.0929 412.002 18.9934C412.355 18.6622 412.709 18.3309 413.063 17.9976C415.62 19.5685 414.622 23.8017 418.321 24.7284C419.729 21.741 422.916 19.6478 422.841 14.9655C425.829 17.9936 430.259 18.9853 430.642 22.9034C430.946 26.0168 424.77 25.8157 425.465 30.2439C427.904 31.9205 430.589 29.5286 433.489 30.6342C437.503 32.1644 439.406 34.8267 436.101 37.6312C432.914 40.3361 433.166 42.9008 433.924 45.9553C434.646 48.8675 435.503 51.5175 431.217 52.2491C430.703 52.3365 430.097 53.4685 430.022 54.1696C429.918 55.1329 430.822 55.4621 431.702 55.5414C438.103 56.1145 444.499 56.7283 450.905 57.214C451.775 57.281 452.206 56.3421 452.314 55.011C446.826 55.011 441.351 55.011 435.875 55.011C441.706 51.3448 448.239 51.7716 454.501 51.4505C458.32 51.2554 459.57 55.007 457.436 58.4313C455.513 61.5163 453.948 65.0239 456.279 68.2348C458.488 71.2771 461.708 70.8158 464.868 68.8912C465.996 68.2043 467.708 68.4604 469.157 68.3182C469.775 68.2572 470.403 68.2592 471.025 68.2633C481.016 68.3466 483.029 66.162 481.305 56.9234C483.132 55.8849 484.591 58.2606 484.516 58.3866C481.681 63.2274 487.663 67.0318 486.018 71.7181C485.583 72.9558 485.366 74.8397 487.661 74.8783C489.24 74.9047 489.634 73.6772 489.793 72.3461C490.406 67.2147 491.252 62.1015 491.573 56.9518C491.752 54.0965 489.425 53.0458 487.069 53.942C484.754 54.824 483.417 53.7713 482.407 52.3345C480.986 50.3104 483.594 49.7068 484.262 48.3879C485.9 45.1505 489.321 44.2949 491.89 45.1525C494.941 46.1707 496.561 49.6702 498.144 52.5906C498.737 53.6859 497.874 55.0842 497.03 55.0984C490.695 55.198 494.618 59.1832 494.579 61.5203C494.547 63.5688 495.518 65.7474 495.093 67.6557C493.599 74.3946 496.992 75.3497 502.443 74.5694C506.138 74.041 509.867 73.6915 513.595 73.4801C515.845 73.3521 518.503 73.1305 519.93 75.1933C521.627 77.6482 519.219 80.4467 518.225 81.731C514.412 86.6552 513.455 93.8757 505.103 96.1966C511.516 98.8263 516.45 96.5177 521.235 97.2676C527.454 99.3161 533.682 99.1718 539.913 97.3245C549.917 100.328 560.496 96.0279 571.323 99.1149C566.764 102.287 566.764 102.287 553.696 102.212C549.555 99.3933 544.901 100.948 540.566 101.037C532.875 101.196 525.054 99.5518 517.483 102.175C514.776 102.175 512.071 102.175 509.237 102.175C509.552 104.594 511.392 104.866 512.436 105.899C518.961 108.632 525.708 106.862 532.365 106.793C532.806 106.789 533.233 105.579 533.668 104.931C535.785 104.913 537.905 104.895 540.023 104.874C542.923 106.537 545.81 106.785 548.673 104.791C555.484 104.998 562.295 105.202 569.106 105.417C571.622 105.496 574.419 105.992 573.264 101.785C572.982 100.757 573.327 99.6534 574.555 99.314C576 98.9137 577.152 99.7144 577.51 100.932C579.309 107.069 583.742 104.773 587.487 103.968C588.839 103.677 590.152 102.826 589.955 100.416C589.248 91.7622 589.924 91.1505 598.544 89.7991C600.727 93.8453 596.741 95.3207 593.937 98.5702C600.871 98.1089 606.416 96.0117 612.129 96.9099C613.401 97.1111 613.946 96.3754 613.981 95.1419C614.08 91.4858 612.113 88.1306 609.398 87.0148C607.316 86.1593 603.253 84.1799 601.046 88.3318C600.615 89.1426 600.199 90.9026 598.44 89.8702C597.664 88.2383 600.857 87.6794 599.371 85.5699C597.314 82.6516 600.172 81.3449 601.922 81.8834C607.656 83.6454 607.038 79.7333 607.448 76.1566C607.784 79.463 608.345 81.4892 611.948 83.0845C617.468 85.5293 618.55 91.8354 619.718 97.3184C620.279 99.9501 621.05 101.822 623.578 103.112C627.633 105.181 626.781 110.331 629.519 113.438C630.415 114.456 628.281 115.676 627.239 114.865C623.054 111.609 623.359 115.568 623.31 117.48C623.229 120.575 621.214 125.205 626.607 125.711C632.594 126.272 638.669 125.993 644.704 125.904C647.09 125.867 649.199 124.63 646.675 122.329C643.135 119.1 645.578 118.826 648.157 118.566C650.947 118.283 653.876 119.072 653.781 114.336C653.724 111.571 656.793 112.251 658.813 112.316C666.772 112.579 666.764 112.581 667.207 104.411C667.329 102.163 667 99.625 669.687 98.5357C672.252 97.4972 670.044 94.4875 672.626 92.9165C673.465 96.4872 675.252 99.3588 678.292 101.393C679.008 101.871 678.534 104.059 680.351 102.165C683.111 99.2897 683.699 101.812 683.999 103.966C684.426 107.016 684.593 110.105 684.886 113.339C687.727 112.227 686.703 109.721 687.381 107.953C688.146 105.96 689.111 103.687 691.621 104.261C693.822 104.763 693.629 106.976 693.467 108.949C693.304 110.904 691.755 112.936 693.574 114.861C691.971 116.997 688.575 114.804 687.203 117.499C686.469 117.482 685.735 117.466 685.001 117.45C684.587 116.657 684.156 116.346 683.68 117.405C683.062 119.887 684.947 119.45 686.274 119.596C692.828 120.321 699.424 120.452 705.918 122.008C711.326 123.305 716.354 119.915 721.81 119.844C733.665 119.687 745.516 119.1 757.364 118.598C759.561 118.505 763.146 119.431 761.177 114.851C760.65 113.625 761.37 112.776 762.577 112.768C764.144 112.757 765.804 113.615 765.89 115.099C766.185 120.232 769.404 121.014 773.54 120.872C774.581 120.836 775.711 121.106 775.989 122.323C776.083 122.734 775.548 123.717 775.314 123.713C770.564 123.616 768.258 128.702 763.343 128.904C757.683 129.135 752.038 130.653 747.673 134.496C756.502 137.48 765.099 140.384 774.127 143.432C769.058 147.484 769.081 147.669 774.536 150.578C770.14 150.578 765.977 150.155 761.949 150.708C758.54 151.175 755.441 154.079 751.752 151.193C751.065 150.655 748.734 150.86 748.801 152.419C749.177 161.269 744.624 164.596 735.927 163.285C737.092 165.498 738.512 165.405 739.634 165.177C745.116 164.062 745.754 168.921 745.955 171.652C746.252 175.666 742.175 172.812 740.183 173.629C738.358 174.377 735.061 172.715 735.478 176.688C735.766 179.454 735.46 183.337 739.98 182.356C746 181.049 748.118 182.864 746.728 188.942C746.5 189.938 747.587 191.223 745.719 192.529C745.035 189.534 746.474 185.057 740.64 186.083C731.244 187.735 738.72 195.246 735.086 199C733.023 198.34 733.947 196.126 734.138 194.663C735.706 182.634 734.191 170.414 736.651 158.377C737.149 155.939 737.004 155.339 739.262 155.508C740.506 155.601 741.758 155.587 743.004 155.666C744.766 155.78 746.463 155.841 746.297 153.299C746.128 150.714 744.384 151.041 742.693 151.409C736.98 152.648 731.364 154.638 725.342 153.154C724.484 152.943 722.649 153.49 722.527 153.99C720.716 161.479 714.826 157.955 710.542 158.453C707.875 158.763 705.133 158.341 702.434 158.449C698.062 158.623 693.373 159.639 694.505 152.372C694.843 150.202 692.676 148.771 690.694 149.612C688.225 150.661 684.229 149.96 684.467 154.878C684.938 164.639 684.552 174.446 685.938 184.156C686.457 187.784 685.13 189.839 681.473 189.707C680.384 189.668 677.187 188.867 680.678 186.811C682.03 186.014 682.121 184.766 680.707 183.982C679.621 183.38 677.92 183.22 677.416 184.508C676.845 185.965 676.827 187.76 677.006 189.357C677.237 191.426 679.056 190.916 680.445 190.962C681.898 191.011 683.386 190.881 684.792 191.16C686.644 191.525 686.599 193.239 686.66 194.659C686.739 196.559 685.292 196.224 684.064 196.324C676.642 196.921 675.654 196.053 674.288 188.605C673.91 186.538 674.624 183.945 672 182.254C670.532 184.335 671.756 186.201 672.02 188.079C672.274 189.881 672.288 191.718 671.693 193.641C671.256 192.188 670.817 190.737 670.394 189.335C669.892 189.335 669.317 189.172 669.154 189.361C668.044 190.662 668.567 194.102 666.311 193.348C663.809 192.513 661.555 190.272 661.136 187.04C660.144 179.373 659.811 171.707 660.774 164.011C660.982 162.359 661.179 160.7 661.25 159.04C661.388 155.859 659.36 154.569 656.614 154.419C652.575 154.199 653.939 157.233 654.116 159.233C654.868 167.728 655.974 176.219 654.031 184.693C653.533 186.868 653.319 189.55 649.819 188.361L649.931 188.481C649.37 185.427 648.447 182.382 648.346 179.312C648.232 175.895 647.405 174.266 643.661 175.257C642.545 175.554 641.23 175.101 640.007 174.991C639.939 174.357 639.874 173.723 639.807 173.089C641.017 170.843 643.149 172.109 644.834 171.88C646.486 171.656 647.521 171.471 647.468 169.406C647.344 164.559 647.427 159.706 647.427 154.034C640.761 157.526 634.724 155.156 628.812 156.146C629.702 158.633 632.588 160.483 630.342 163.82C627.732 162.216 626.129 158.971 622.67 158.987C619.186 159.003 618.422 163.149 615.442 164.086C613.489 159.662 617.627 157.845 619.284 154.843C614.43 154.433 610.082 154.055 605.731 153.707C604.908 153.642 604.072 153.697 603.083 153.697C604.243 156.991 607.298 159.963 604.672 163.728C601.595 162.574 602.304 157.969 598.341 158.056C595.107 158.127 592.8 160.078 589.733 162.424C590.13 156.92 593.845 155.62 597.601 153.457C585.579 151.277 574.077 151.968 562.947 149.503C561.181 149.11 561.63 151.189 561.138 152.181C560.319 152.077 559.502 151.974 558.683 151.87C558.409 150.307 557.551 148.566 559.671 147.615C560.71 147.149 562.512 147.389 562.094 145.605C561.622 143.591 559.73 144.452 558.441 144.438C551.846 144.367 545.247 144.406 537.995 144.406C539.436 147.493 539.468 150.124 539.462 152.764C539.456 155.453 539.468 158.142 539.476 160.83C539.505 169.425 539.507 169.392 547.755 169.868C549.366 169.961 550.958 170.412 552.557 170.699C552.736 171.081 552.716 171.463 552.5 171.843C550.683 172.762 546.371 169.795 547.407 175.239C547.728 176.926 548.129 179.478 545.425 179.598C543.09 179.7 542.434 177.365 542.503 175.536C542.655 171.5 540.527 170.67 537.102 170.821C534.83 170.92 532.542 170.607 530.444 170.49C531.383 168.813 534.785 171.296 534.899 167.677C535.115 160.826 536.273 153.912 535.629 147.159C535.141 142.05 530.013 145.123 527.032 144.595C523.438 143.956 525.19 146.787 525.385 148.206C526.182 154.039 525.276 159.822 525.097 165.626C525.058 166.903 524.696 168.262 522.983 167.982C521.891 167.803 521.263 166.895 521.245 165.72C521.223 164.265 521.385 162.791 521.2 161.359C520.444 155.469 522.965 149.722 521.912 143.83C522.839 143.493 523.767 143.156 524.696 142.82C515.601 142.873 506.506 140.78 497.516 143.302C478.025 143.089 458.639 141.388 438.942 139.429C438.942 144.8 439.286 150.423 438.851 155.987C438.369 162.137 443.867 164.948 445.684 169.473C439.194 171.863 435.824 168.301 433.461 162.982C432.17 160.076 432.694 156.778 434.406 154.764C437.481 151.145 435.276 147.113 436.397 143.515C437.938 138.573 434.749 136.429 430.085 134.167C432.416 133.726 433.391 133.517 434.375 133.358C435.548 133.169 437.158 133.464 437.241 131.743C437.355 129.412 435.369 129.999 434.089 129.938C415.416 129.046 396.74 128.28 378.074 127.28C374.318 127.079 373.086 127.802 373.342 131.954C373.513 134.722 374.936 139.668 369.115 139.626C356.054 139.528 342.971 140.384 329.941 138.784C317.963 135.795 305.931 136.738 293.889 138.26C285.356 139.071 276.893 137.781 268.397 137.488C266.654 137.427 264.373 136.496 263.304 138.622C261.387 142.436 257.92 141.965 254.686 142.091C251.158 142.229 247.607 142.314 244.091 142.079C240.977 141.871 240.01 143.121 240.339 146.033C240.526 147.678 240.416 149.354 240.42 151.017C240.471 167.689 240.469 167.569 257.03 167.512C260.922 167.498 262.717 166.762 262.424 162.413C262.076 157.243 262.345 152.027 262.487 146.834C262.526 145.393 261.568 142.916 264.184 143.026C266.078 143.105 265.424 145.296 265.448 146.607C265.546 152.008 265.67 157.418 265.501 162.816C265.395 166.204 266.44 167.594 270.066 167.644C273.678 167.693 275.186 166.925 275.287 162.924C275.442 156.817 274.67 150.411 278.005 144.064C282.214 151.311 278.578 157.873 278.777 164.36C278.95 169.998 280.895 170.971 285.507 168.449C286.6 169.071 287.696 169.695 288.789 170.317C267.696 170.577 246.605 170.835 225.512 171.099C219.01 171.181 212.517 173.625 206.009 171.15C207.163 170.723 208.651 170.721 208.777 168.982C216.37 167.626 224.067 167.506 231.73 167.512C235.459 167.516 236.394 166.512 236.809 162.692C238 151.756 234.51 150.704 222.776 153.189C224.632 149.322 227.772 147.913 233.006 148.706C234.632 148.952 236.75 150.858 237.016 147.346C237.238 144.434 235.073 144.448 233.232 144.715C230.305 145.135 226.595 142.892 224.821 147.739C224.171 149.517 221.035 148.519 219.033 148.348C216.775 148.157 214.541 147.712 211.7 147.289C212.313 148.917 212.832 150.096 213.204 151.319C213.825 153.37 214.226 156.325 212.132 156.8C209.029 157.506 210.834 154.301 210.299 152.888C209.006 149.478 206.86 148.81 204.124 151.12C202.753 152.281 201.818 153.959 200.553 155.575C196.23 151.059 202.175 149.409 203.009 146.2C191.44 143.121 179.727 143.926 168.02 144.629C165.073 152.065 165.953 159.585 167.528 167.118C168.759 171.461 163.148 177.42 171.121 180.12C172.871 179.212 171.235 174.725 174.524 175.168C176.938 175.493 177.017 178.716 178.149 180.639C178.255 180.817 178.367 181.002 178.42 181.2C179.088 183.675 182.306 186.861 179.757 188.465C176.294 190.643 176.865 184.953 174.426 184.106C174.227 184.335 173.971 184.646 173.696 184.939C172.095 186.638 171.849 190.538 168.816 189.717C165.877 188.92 165.802 185.402 166.148 182.817C166.654 179.029 162.132 178.712 161.817 174.995C161.201 167.691 161.304 160.485 161.875 153.234C161.957 152.197 162.373 151.108 162.166 150.147C161.556 147.324 165.073 142.278 159.884 142.235C157.365 142.215 155.012 147.206 155.54 151.149C156.595 159.018 156.811 166.858 156.002 174.778C155.577 178.938 154.256 182.319 150.4 184.923C148.729 181.157 144.297 178.7 146.658 173.418C142.49 174.103 144.902 177.572 142.77 179.139C141.226 176.379 139.939 172.766 135.598 175.318C136.36 176.895 140.463 176.196 139.095 179.326C138.242 181.279 135.894 181.295 134.098 180.962C131.199 180.425 132.537 177.938 132.671 176.391C133.537 166.439 133.88 156.477 133.927 146.493C133.939 143.78 133.805 142.073 130.494 141.085C127.244 140.116 125.395 140.286 124.197 143.501C123.606 143.404 123.015 143.306 122.423 143.209C120.011 139.386 116.541 142.087 113.562 141.772C113.362 141.751 113.167 141.686 112.97 141.642C113.098 141.656 113.291 141.621 113.346 141.693C113.574 141.983 113.759 142.304 113.96 142.615C115.769 145.491 117.885 145.475 120.23 143.278C120.972 143.251 121.714 143.225 122.456 143.199C123.047 143.741 123.639 144.286 124.232 144.828C124.22 145.58 124.208 146.334 124.195 147.086C121.716 147.121 119.191 146.875 116.769 147.263C113.783 147.769 110.112 145.363 107.795 149.157ZM145.435 147.409C143.38 147.107 141.943 148.588 140.435 149.462C138.831 150.391 139.016 153.146 140.697 152.848C144.518 152.171 144.849 156.172 147.943 157.377C148.217 153.28 147.166 150.191 145.288 147.283C147.303 146.794 149.563 146.271 148.88 143.526C148.333 141.331 146.034 141.871 144.821 142.398C139.947 144.519 145.52 145.67 145.435 147.409ZM658.762 138.382C658.776 138.671 658.789 138.959 658.803 139.25C658.978 139.197 659.15 139.146 659.325 139.093C659.091 138.89 658.856 138.689 658.622 138.486C658.571 135.801 659.667 134.889 662.187 136.183C664.059 139.341 664.232 143.613 669.76 143.798C684.199 144.282 698.528 142.243 713.011 142.526C721.373 142.688 730.177 141.166 738.815 140.778C741.033 140.678 743.455 140.815 743.018 137.079C742.11 137.185 741.327 137.364 740.551 137.348C738.858 137.313 736.506 138.845 735.74 136.334C735.193 134.545 737.258 133.521 738.592 132.663C740.689 131.316 742.746 130.062 743.211 127.302C738.222 125.493 736.431 130.548 732.968 131.907C732.649 131.47 732.332 131.033 732.013 130.596C732.244 129.066 732.344 127.528 730.189 127.489C726.301 127.422 722.222 126.896 719.651 130.924C716.61 128.182 713.019 128.205 709.249 128.674C707.07 128.944 708.265 131.714 706.454 132.123C703.221 127.471 702.194 128.259 697.826 131.985C695.097 134.313 691.048 138.209 685.955 134.545C683.851 133.033 680.802 129.143 678.504 134.864C677.981 136.165 676.886 135.828 675.5 135.104C672.183 133.373 670.496 134.633 670.347 138.248C670.282 139.866 669.815 141.457 668.002 142.136C665.191 140.565 665.766 136.748 663.175 135.112C659.362 130.735 653.964 132.499 649.269 131.639C647.539 131.322 645.445 131.539 643.852 132.257C641.486 133.32 642.403 135.313 643.702 136.661C644.653 137.648 647.972 137.549 644.905 139.784C643.939 140.487 643.529 140.538 644.854 140.863C648.632 141.792 651.988 145.251 656.362 142.877C656.754 140.676 653.75 139.75 654.244 137.73C656.22 135.891 657.136 138.89 658.762 138.382ZM473.706 91.2562C477.399 90.5855 481.423 89.6832 484.5 92.1179C487.705 94.6561 491.394 92.4634 492.205 91.4188C494.38 88.6163 497.719 87.0494 500.042 83.9909C493.382 83.2979 487.415 81.6213 481.228 82.1456C472.454 80.3003 463.692 80.0605 454.954 82.3752C453.982 82.2188 452.667 81.5908 452.106 81.9993C450.56 83.1231 452.139 83.9604 452.759 84.8932C453.533 86.0597 454.188 87.3055 454.893 88.5167C450.804 91.4533 453.06 92.9674 456.304 93.3372C460.167 93.7782 464.124 93.5689 468.031 93.4103C470.082 93.3311 472.791 94.4976 473.706 91.2562ZM308.732 81.0522C308.714 80.8287 308.695 80.6052 308.675 80.3816C308.608 80.4873 308.466 80.6621 308.488 80.6885C308.592 80.8043 308.742 80.8754 308.876 80.9649C310.567 82.3956 313.067 83.495 313.813 85.3139C317.799 95.0281 325.941 93.4836 333.792 93.4348C339.587 93.3982 345.396 94.3391 351.178 94.1664C356.399 94.0099 362.025 93.9408 366.667 91.9552C370.69 90.2339 367.828 84.8383 368.806 81.2128C369.163 79.8837 368.832 77.1097 371.47 79.7699C373.34 81.6559 374.415 79.0911 374.305 78.5648C373.444 74.4088 377.167 74.7583 380.633 73.4557C376.051 72.3827 373.281 73.0066 370.263 74.0126C367.001 75.0998 365.446 78.5424 362.938 79.4285C355.462 82.0704 347.812 84.2347 339.493 83.2328C329.3 82.0094 318.99 81.7371 308.732 81.0522ZM407.878 109.225C411.221 105.831 410.689 101.879 411.018 98.1293C411.303 94.8939 412.101 91.8435 415.833 92.3048C418.983 92.695 419.237 95.8714 419.158 98.6373C419.087 101.133 418.997 103.626 418.951 106.122C418.928 107.327 418.672 108.829 420.599 108.695C421.831 108.61 422.154 107.597 422.28 106.48C422.654 103.183 423.142 99.8973 423.477 96.597C423.713 94.2802 424.568 92.3089 427.109 92.4187C429.709 92.5304 431.188 94.3249 431.215 97.0075C431.241 99.7083 431.375 102.438 431.06 105.108C430.379 110.869 435.105 107.606 437.111 108.63C440.032 110.122 438.928 107.004 439.017 105.903C439.601 98.6495 439.987 91.3801 440.481 84.1189C440.548 83.1272 440.975 81.3672 439.885 81.5603C435.343 82.3671 432.207 77.886 427.717 78.7335C411.221 81.8469 394.821 78.6603 378.078 78.0222C377.946 79.6663 377.187 81.7249 377.757 83.3019C380.155 89.9372 378.598 96.3978 377.462 102.901C377.159 104.641 375.47 106.781 377.842 107.837C379.602 108.622 381.988 108.74 383.891 108.286C386.395 107.691 385.242 105.342 385.212 103.602C385.189 102.364 385.067 101.041 385.433 99.8994C386.502 96.5583 387.547 92.0447 391.588 92.3272C396.226 92.6523 395.539 97.3184 395.48 100.789C395.449 102.633 395.516 104.634 394.831 106.264C394.155 107.874 392.679 109.036 395.6 109.697C397.892 110.215 398.608 109.132 398.648 107.075C398.707 104.165 398.752 101.251 398.947 98.3488C399.132 95.6113 400.167 93.3332 403.394 93.4693C406.282 93.5913 407.122 95.8511 407.319 98.2552C407.614 101.905 407.701 105.569 407.878 109.225ZM604.294 124.711C604.438 122.451 604.528 120.187 604.743 117.936C604.891 116.375 604.184 114.04 606.261 113.66C609.089 113.142 607.839 116.678 609.05 117.566C611.17 116.682 610.731 112.851 613.397 113.7C615.617 114.408 614.822 117.312 615.068 119.301C615.271 120.945 615.219 122.62 615.342 124.276C615.444 125.63 616.45 125.932 617.534 125.768C617.987 125.699 618.592 125.185 618.737 124.746C620.168 120.413 613.928 107.148 609.635 105.275C601.347 101.655 588.949 108.453 584.504 118.813C590.122 123.504 592.512 118.112 595.729 114.302C596.335 117.663 596.329 120.102 595.707 122.561C595.306 124.144 594.581 125.93 597.398 126.087C599.898 126.225 599.76 124.75 599.841 122.911C599.975 119.901 598.717 116.454 602.229 113.532C603.076 117.663 604.343 121.114 604.294 124.711ZM217.661 96.8916C220.065 96.9993 221.992 97.4342 223.762 97.0786C226.039 96.6193 229.175 94.1216 227.612 92.7458C223.896 89.4759 225.026 85.0334 223.321 81.3835C220.313 74.9514 215.567 73.8683 210.919 79.1887C208.059 82.4647 207.706 86.9539 205.149 90.5246C203.393 92.9775 207.978 97.7818 211.401 97.542C213.671 97.3814 215.931 97.0745 217.661 96.8916ZM413.632 40.2894C415.256 43.3926 415.461 46.4918 415.939 49.5361C416.817 55.1431 421.959 56.7608 427.449 52.7166C422.01 54.1737 420.782 51.8894 421.882 47.3961C422.176 46.189 422.154 44.9046 422.451 43.6995C423.201 40.6531 422.162 39.4013 418.995 39.885C417.39 40.1288 415.746 40.139 413.632 40.2894ZM670.837 166.059C671.961 162.422 675.892 162.84 678.453 160.993C678.998 160.601 678.339 158.432 677.487 158.304C674.357 157.835 674.282 155.965 674.699 153.478C675.036 151.449 673.528 151.12 671.935 151.155C670.502 151.185 668.701 150.954 668.408 152.819C668.195 154.191 668.553 155.78 670.66 155.784C673.363 155.792 672.729 156.38 671.325 158.01C670.148 159.375 669.752 161.495 669.274 163.348C669.047 164.232 669.008 165.462 670.837 166.059ZM437.121 64.8512C439.523 67.9402 447.35 69.7611 449.298 68.1048C449.781 67.6943 450.031 66.6842 449.95 66.0034C449.783 64.6235 448.568 64.8532 447.584 64.8532C444.336 64.8491 441.088 64.8512 437.121 64.8512ZM340.379 74.2523C337.713 73.5207 335.693 73.2098 333.902 72.3969C332.605 71.8075 332.227 69.1331 330.113 70.3606C328.831 71.1064 329.64 72.5371 329.867 73.7321C330.394 76.4899 332.514 75.7948 334.211 75.744C335.965 75.6932 337.859 76.2277 340.379 74.2523ZM697.223 150.882C697.196 151.323 697.17 151.764 697.145 152.203C700.316 151.789 703.487 151.374 706.659 150.96C706.623 150.872 706.584 150.785 706.627 150.882C703.43 150.882 700.326 150.882 697.223 150.882ZM435.375 76.3415C438.773 76.9044 442.292 77.5507 446.859 75.051C442.08 75.2705 438.66 74.2808 435.375 76.3415ZM321.616 69.8119C320.532 70.1797 319.12 70.3402 319.335 71.9762C319.475 73.037 319.331 74.7442 321.079 74.4678C322.862 74.1853 322.455 72.2831 322.892 71.0516C323.284 69.944 322.49 69.8037 321.616 69.8119ZM202.891 96.2941C202.952 97.6273 201.915 99.0763 203.458 100.038C203.712 100.196 204.862 99.6148 204.907 99.2815C205.102 97.8386 204.698 96.601 202.891 96.2941Z" fill="#F2F3F4"/>
<path d="M531.65 263.442C526.155 264.115 520.663 264.029 515.172 263.366C513.824 260.426 511.166 261.666 509.096 261.664C366.058 261.587 223.018 261.57 79.9793 261.601C77.8421 261.601 75.306 260.611 73.6858 263.093C64.4573 263.836 55.2247 264.089 45.984 263.317C35.6644 260.179 25.2696 261.062 14.8606 262.74C11.1215 262.652 7.3784 262.621 3.64343 262.448C1.97236 262.37 0.0122719 262.111 5.94167e-05 259.899C-0.012153 257.667 1.86042 257.526 3.59865 257.42C6.71893 257.23 9.83718 257.024 12.9493 256.744C20.1221 256.099 27.3335 256.767 34.4941 254.712C38.6789 253.512 43.3359 253.579 47.9603 254.932C53.6595 256.599 59.3586 253.81 65.5178 253.338C61.223 250.894 56.4867 252.857 52.2856 251.181C53.4844 248.028 56.1915 249.122 58.1964 249.024C77.3557 248.094 96.5272 247.994 115.709 248.01C251.426 248.137 387.143 248.137 522.861 248.177C524.278 248.177 525.695 248.177 528.457 248.177C521.502 242.441 515.113 237.903 510.187 231.823C508.919 230.258 507.549 231.26 506.191 231.289C495.19 231.526 484.162 232.358 473.246 229.45C483.784 226.322 494.675 227.771 505.998 227.432C503.718 223.448 501.49 220.004 499.733 216.331C498.534 213.825 496.643 214.023 494.557 214.004C488.103 213.951 481.648 213.843 475.194 213.755C473.147 212.133 471.097 212.125 469.045 213.751C430.576 213.788 392.107 213.874 353.64 213.835C342.011 213.823 330.383 213.474 318.755 213.28C317.735 210.453 315.297 211.464 313.402 211.455C294.259 211.372 275.116 211.359 255.973 211.39C253.972 211.394 251.76 210.766 250.078 212.566C246.252 212.849 242.435 212.937 238.67 211.988C237.414 208.937 234.721 210.211 232.671 210.206C197.467 210.123 162.261 210.131 127.056 210.166C125.057 210.168 122.835 209.496 121.186 211.38C112.35 212.57 104.406 207.988 95.4138 208.019C77.4147 208.082 59.2853 208.509 41.0746 206.582C42.5604 203.056 44.5124 201.513 48.0886 202.172C50.5188 202.619 53.0733 202.425 55.5707 202.448C64.093 202.521 63.9994 202.527 62.4138 194.146C61.909 191.479 62.3018 188.726 63.5638 186.208C64.1642 187.226 65.0903 187.584 66.22 187.528C69.3504 192.102 67.6549 196.779 66.4093 201.883C75.1167 202.664 84.1519 199.315 92.4279 203.925C103.661 206.074 114.899 205.682 126.138 203.97C129.163 203.331 131.18 204.089 131.194 207.629C133.028 209.696 135.477 208.854 137.655 208.854C201.703 208.898 265.753 208.896 329.801 208.856C332.003 208.854 334.419 209.598 336.335 207.725C340.949 209.035 345.557 207.005 350.171 207.703C351.423 209.225 353.17 208.878 354.79 208.88C380.295 208.909 405.803 208.927 431.309 208.913C433.108 208.913 435.107 209.429 436.479 207.609C436.949 206.539 439.935 208.517 438.891 205.611C433.19 202.425 427.35 203.344 421.486 205.031C400.271 205.001 379.18 202.889 358.079 201.068C354.1 200.725 350.41 200.107 346.233 202.797C348.392 198.595 350.552 194.395 352.712 190.194C353.487 190.563 354.263 190.93 355.038 191.3C355.411 191.585 355.472 191.928 355.223 192.328C354.778 193.255 354.332 194.181 353.886 195.108C353.937 197.618 353.941 197.76 356.662 197.669C385.771 196.693 414.757 199.826 443.822 200.274C451.474 200.393 451.469 200.552 448.915 193.263C445.628 190.347 442.343 190.081 439.06 193.271C419.418 193.848 399.776 194.428 380.135 195.005C378.075 192.999 375.51 194.122 373.165 193.865C368.425 193.342 363.446 195.165 358.932 192.422C361.378 190.628 365.323 193.142 367.621 189.563C363.638 188.151 359.947 189.149 356.367 188.712C358.301 183.565 363.64 188.157 366.341 185.206C369.227 180.874 366.626 180.396 363.068 180.406C361.728 180.411 359.005 180.247 359.243 179.882C361.065 177.101 357.214 175.282 358.252 173.16C359.213 171.197 361.067 171.838 362.339 173.189C363.357 174.268 364.189 175.627 365.856 174.488C366.847 173.811 366.475 172.646 366.396 171.623C366.164 168.695 363.937 170.407 362.636 169.972C360.843 167.848 358.439 168.909 356.28 168.777C350.377 168.415 344.338 169.738 338.606 167.311C343.442 167.113 344.552 164.483 344.014 159.989C343.467 155.404 344.348 150.833 346.192 146.535C347.346 143.842 349.561 142.962 352.298 143.286C355.124 143.623 355.887 145.729 356.247 148.16C356.886 152.472 357.521 156.786 358.27 161.081C358.559 162.734 357.59 165.348 360.411 165.501C363.573 165.673 362.842 162.748 363.359 160.928C363.583 160.143 363.45 159.263 363.575 158.441C363.717 157.506 363.365 156.2 364.889 156.082C366.298 155.973 366.286 157.235 366.774 158.102C367.979 160.245 367.149 163.167 369.327 164.91C370.847 164.214 368.932 161.702 371.374 161.41C371.175 165.691 370.941 169.85 370.808 174.013C370.757 175.641 370.544 177.643 373.106 177.486C378.714 177.141 384.326 176.799 389.911 176.207C392.03 175.982 391.928 173.707 392.201 172.201C393.391 165.628 393.837 159.028 392.73 152.359C391.704 146.184 391.92 140.207 397.081 135.62C400.794 132.318 405.581 130.975 409.788 132.861C413.998 134.748 416.33 138.873 415.661 144.248C414.527 153.353 416.049 162.653 414.006 171.703C413.206 175.246 415.889 176.154 417.802 175.911C423.466 175.192 429.829 179.031 434.802 173.503C435.441 172.793 436.167 173.215 437.004 173.513C444.16 176.062 451.689 175.846 459.121 176.309C460.435 176.39 462.094 177.084 462.896 175.158C464.443 171.438 465.723 173.307 467.736 175.019C469.69 176.68 471.813 182.445 475.117 175.788C476.257 173.493 477.749 175.07 478.872 176.501C481.036 179.255 482.739 179.56 483.869 175.588C485.231 170.807 487.122 172.087 488.75 175.439C490.043 178.103 491.105 178.184 492.385 175.503C493.881 172.368 495.485 173.017 496.483 175.692C497.185 177.576 498.434 177.603 499.892 177.588C501.142 177.576 501.538 176.923 501.585 175.617C501.657 173.621 499.69 170.185 503.087 170.103C505.721 170.04 505.556 173.87 506.399 176.086C506.69 176.854 506.772 177.701 506.949 178.511C505.699 178.8 504.553 179.219 504.288 180.708C506.291 184.178 505.536 189.161 510.044 191.259C511.565 190.616 513.415 190.145 511.895 187.853C510.138 185.21 512.576 185.524 513.865 185.024C518.862 190.21 518.903 190.224 521.105 184.694C521.667 183.284 524.532 183.751 523.7 181.186C521.302 180.574 518.913 180.306 516.525 181.333C519.143 177.494 522.898 179.262 526.094 179.758C529.096 180.223 530.637 180.213 529.82 176.615C529.552 175.429 529.179 173.903 530.942 173.635C532.762 173.36 532.192 175.415 532.853 176.06C535.593 178.739 535.615 183.61 538.542 185.255C542.731 187.61 543.36 186.786 544.714 189.669C545.937 192.271 547.982 192.075 549.936 191.646C552.951 190.987 550.681 189.102 550.514 187.757C550.293 185.969 549.279 184.212 550.396 182.394C554.656 183.861 553.026 189.985 558.265 192.993C556.936 188.908 556.185 186.6 555.434 184.292C556.008 183.967 556.584 183.643 557.158 183.318C559.065 185.361 559.843 187.951 560.691 190.524C561.176 191.993 562.503 192.334 563.73 191.885C565.809 191.124 564.156 189.924 563.838 188.932C563.185 186.894 561.017 185.267 562.2 182.37C566.476 184.065 566.688 189.09 570.445 192.016C568.904 186.404 569.802 179.935 561.204 180.8C566.252 179.576 570.887 179.953 578.79 180.727C571.658 182.753 571.219 184.01 575.77 185.539C579.468 186.782 580.274 192.8 585.43 192.147C586.374 190.075 583.185 187.622 585.177 186.941C589.366 185.508 593.417 186.963 596.242 190.455C598.662 188.951 596.604 185.918 599.016 184.896C603.12 189.683 609.242 188.175 612.845 181.486C614.723 181.064 616.303 180.411 618.574 180.659C625.686 181.437 633.443 182.81 639.936 180.747C645.615 178.943 646.7 180.427 648.206 184.612C648.749 186.118 649.698 187.479 650.463 188.906L650.351 188.786C652.134 192.742 647.931 194.063 646.779 196.732C644.56 201.874 642.059 197.509 639.462 196.818C634.369 195.458 629.329 197.667 624.141 197.667C578.593 197.673 533.047 198.118 487.498 198.256C481.848 198.273 475.98 198.554 470.606 195.418C470.118 199.777 470.712 203.789 472.772 207.548C474.262 209.717 476.536 208.923 478.496 208.925C508.42 208.964 538.343 208.956 568.267 208.903C570.248 208.898 572.483 209.635 574.089 207.668C595.792 207.684 617.496 207.701 639.197 207.717C643.486 210.18 648.177 208.9 652.606 208.772C661.037 208.527 669.58 210.37 677.908 207.731C685.041 207.464 692.175 207.113 699.29 208.05C699.272 209.143 699.252 210.235 699.233 211.329C697.157 211.845 695.073 211.968 692.979 211.437C691.778 209.855 690.033 210.162 688.411 210.162C672.665 210.149 656.919 210.153 641.173 210.172C639.551 210.174 637.803 209.86 636.626 211.476C602.167 215.055 567.587 213.898 533.044 214.008C521.215 214.045 522.676 213.459 527.042 223.404C529.468 228.93 531.294 234.525 535.581 238.886C536.871 240.198 537.292 243.263 540.706 240.988C542.326 239.907 544.095 242.423 543.804 244.41C543.472 246.663 541.854 248.116 539.297 247.459C536.533 246.747 534.681 244.733 532.935 242.627C526.008 234.28 518.939 226.046 512.239 217.522C510.02 214.7 507.828 213.306 503.668 214.494C508.78 223.489 515.251 231.115 523.136 237.431C528.054 241.37 532.851 245.22 535.686 251.034C536.401 252.5 537.268 254.148 539.36 253.853C541.186 253.595 541.518 252.24 541.51 250.624C541.493 246.973 544.359 248.288 546.065 248.282C560.856 248.22 575.648 248.304 590.439 248.353C635.647 248.504 680.858 248.592 726.064 248.945C729.618 248.973 734.886 246.12 736.532 252.651C736.616 252.983 738.458 252.877 739.484 252.963C742.368 253.2 745.254 253.43 748.138 253.663C750.1 256.356 752.138 255.934 754.216 253.81C755.909 253.189 757.574 253.438 759.231 253.971C765.05 256.063 770.892 255.983 776.752 254.159C790.672 252.842 804.108 257.356 817.898 257.605C819.451 257.634 820.928 258.02 820.998 259.877C821.073 261.901 819.343 262.038 817.932 262.158C814.641 262.436 811.338 262.572 808.04 262.766C803.992 260.252 799.534 261.691 795.305 261.715C792.522 261.732 788.985 259.842 786.89 263.544C777.21 264.254 767.542 264.154 757.89 263.111C756.76 260.772 754.637 261.728 752.915 261.726C680.956 261.662 608.996 261.634 537.036 261.652C535.125 261.64 532.696 260.646 531.65 263.442ZM521.335 221.779L521.49 221.581L521.211 221.704C521.286 218.014 520.903 214.649 515.239 213.878C517.663 217.02 519.503 219.404 521.335 221.779ZM385.121 180.143C381.802 180.035 378.48 179.947 375.16 179.809C372.929 179.717 370.346 178.825 370.462 182.698C370.572 186.42 373.338 184.984 375.038 185.012C389.019 185.251 402.949 184.194 416.849 182.827C421.378 182.382 426.123 182.976 430.34 180.898C431.061 180.543 429.194 180.759 428.97 180.055C428.28 179.647 427.59 178.888 426.896 178.884C413.637 178.813 400.379 178.813 387.122 178.888C386.453 178.894 385.789 179.706 385.121 180.143ZM433.857 189.49C435.703 189.259 437.555 189.075 439.393 188.792C442.931 188.245 448.219 190.824 448.266 183.833C448.268 183.48 449.621 182.802 450.303 182.851C451.911 182.967 451.744 184.263 451.954 185.565C453.151 192.997 453.981 200.436 460.767 205.713C462.825 207.313 464.565 207.705 466.084 206.921C467.883 205.993 467.808 203.76 466.566 201.979C463.385 197.409 462.133 192.195 461.142 186.81C460.146 181.412 451.398 177.537 447.792 181.435C444.411 185.09 440.68 185.133 436.766 185.553C416.45 187.73 396.029 187.99 375.638 188.824C373.874 188.896 371.511 187.792 370.416 190.23C382.964 190.23 395.355 190.23 407.749 190.23C415.616 192.602 423.664 190.798 431.614 191.267C432.825 191.336 433.446 190.51 433.857 189.49ZM504.997 191.593C500.429 179.723 500.429 179.723 494.018 182.057C498.329 184.361 497.657 191.6 504.997 191.593ZM525.713 181.166C526.627 184.137 527.559 186.853 528.278 189.626C528.752 191.455 530.185 192.585 531.131 191.042C532.32 189.108 531.219 186.633 530.553 184.316C529.796 181.676 529.078 180.053 525.713 181.166ZM610.514 188.014C610.343 188.253 610.129 188.477 610.024 188.743C609.991 188.824 610.282 189.163 610.378 189.145C610.671 189.085 610.942 188.912 611.22 188.781C610.986 188.524 610.752 188.269 610.514 188.014Z" fill="#F2F3F4"/>
<path d="M224.867 197.707C199.901 197.765 174.92 198.249 150 195.47C156.833 192.456 163.914 192.766 170.989 192.848C178.025 192.931 185.061 192.867 192.183 192.867C191.574 188.088 190.624 181.367 188.278 181.472C184.436 181.646 189.56 187.457 186.41 190.5C183.411 186.977 183.879 182.765 184.731 179.248C185.533 175.947 189.35 177.316 191.837 177.312C219.512 177.267 247.189 178.087 274.862 177.001C277.138 176.912 279.432 177.265 281.717 177.302C284.093 177.341 287.64 180.93 288.039 174.729C288.157 172.9 291.146 173.775 291.933 175.246C292.658 176.601 292.395 178.493 292.566 180.147C290.328 180.38 287.152 177.941 286.087 181.413C285.046 184.816 287.44 187.604 289.463 190.669C290.106 187.206 287.215 184.398 288.692 181.611C291.042 181.105 290.428 184.701 292.713 183.647C290.798 184.455 292.399 185.53 292.491 186.486C292.796 186.433 293.325 186.451 293.372 186.311C293.708 185.276 293.472 184.367 292.558 183.705C292.517 182.474 292.477 181.244 292.436 180.013C293.555 179.745 294.589 179.788 295.354 180.825C296.684 183.8 298.017 186.775 299.822 190.811C298.982 181.221 298.982 181.221 296.288 179.842C297.608 177.949 292.914 174.671 297.159 173.88C301.153 173.135 302.376 177.166 302.74 179.998C303.238 183.868 303.212 187.7 306.586 190.815C306.193 187.606 306.044 184.338 305.326 181.204C304.805 178.939 305.576 177.122 306.095 175.112C306.586 173.218 307.536 172.066 309.518 172.426C311.249 172.742 311.268 174.164 311.62 175.719C312.836 181.079 314.472 186.34 316.438 191.525C317.032 187.599 316.751 183.759 315.252 180.225C314.358 178.12 314.086 176.1 314.814 174.15C315.632 171.958 317.706 170.862 318.613 173.725C320.086 178.366 321.832 175.76 323.147 174.139C326.366 170.175 327.562 172.977 328.527 175.712C329.125 177.413 328.988 179.271 329.778 181.087C331.412 184.839 333.377 184.614 335.227 181.784C338.822 176.279 341.28 184.804 344.491 182.336C346.013 184.769 343.704 185.882 342.98 187.665C341.508 191.294 336.014 193.254 338.668 198.839C339.343 200.264 336.957 202.737 334.743 202.972C332.293 203.232 332.142 201.62 333.011 199.655C333.636 198.245 332.643 197.381 331.617 198.056C329.306 199.579 327.306 196.761 325.165 197.928C323.393 195.79 320.945 196.489 318.743 196.485C289.406 196.443 260.069 196.446 230.731 196.487C228.735 196.495 226.513 195.796 224.867 197.707ZM225.455 192.928C226.825 189.197 224 186.723 225.689 183.13C227.222 188.999 232.435 188.9 235.841 191.461C237.068 190.193 236.146 188.954 236.195 187.775C236.25 186.447 235.013 184.455 236.885 183.975C239.326 183.348 238.797 186.115 239.601 187.354C240.445 188.657 239.473 191.238 243.302 191.397C241.2 187.781 243.359 181.648 238.413 181.689C232.825 181.734 227.163 180.178 221.315 181.512C222.535 185.194 222.812 188.964 225.455 192.928ZM247.805 184.074C253.464 182.079 255.309 185.556 256.895 189.269C257.743 191.261 259.141 191.654 260.811 190.793C262.732 189.803 260.929 188.193 260.6 187.55C259.554 185.495 260.217 183.668 260.649 181.839C255.069 181.839 249.661 181.839 243.553 181.839C245.821 185.371 245.121 189.772 249.854 191.081C249.181 188.777 248.505 186.47 247.805 184.074ZM191.322 181.18C193.566 184.144 194.848 187.36 195.98 190.628C196.476 192.065 197.31 192.665 198.69 192.481C199.241 192.409 200.232 191.863 200.204 191.755C199.302 188.374 198.651 184.853 197.196 181.72C196.167 179.5 193.788 180.304 191.322 181.18ZM206.86 180.609C206.597 180.765 205.702 180.996 205.331 181.573C204.208 183.324 208.323 192.044 210.347 192.296C210.878 192.362 211.955 191.904 211.949 191.873C211.291 188.878 210.459 185.919 209.863 182.913C209.564 181.402 208.833 180.728 206.86 180.609ZM325.737 191.815C326.233 191.77 326.73 191.722 327.226 191.677C327.226 188.486 327.212 185.295 327.234 182.105C327.241 181.182 326.972 180.425 326.024 180.306C325.072 180.188 324.494 180.738 324.606 181.767C324.968 185.119 325.358 188.467 325.737 191.815ZM271.907 182.311C273.213 185.328 274.247 187.585 275.163 189.888C275.507 190.752 275.991 191.395 276.87 191.347C277.348 191.32 278.209 190.488 278.201 190.475C276.481 187.783 278.011 182.689 271.907 182.311ZM279.326 182.759C280.563 185.686 280.811 189.251 284.103 190.855C283.07 187.797 283.253 183.952 279.326 182.759ZM203.653 188.533C202.664 185.657 204.943 182.683 201.889 180.691C201.569 180.483 200.8 180.978 200.24 181.147C201.207 183.478 200.713 186.428 203.653 188.533ZM204.743 192.149C204.827 191.811 205.047 191.43 204.959 191.147C204.855 190.813 204.485 190.564 204.229 190.277C204.094 190.733 203.862 191.191 203.877 191.642C203.883 191.821 204.436 191.982 204.743 192.149Z" fill="#F2F3F4"/>
<path d="M89.7271 106.934C85.3266 105.893 80.7448 108.047 76.4278 106.264C74.9331 105.647 73.5769 105.233 74.4037 102.417C75.4137 98.9755 74.6012 95.0103 74.6256 91.2704C74.6561 86.3529 72.4569 85.0758 67.9301 87.4148C67.0749 87.8574 66.2094 88.2777 64 89.3842C69.4105 79.933 75.9268 73.8644 85.1046 69.889C83.6466 69.7652 82.1784 69.483 80.7305 69.5581C79.1931 69.6393 78.0263 71.7731 76.0449 70.3682C76.1936 69.8504 76.1712 69.014 76.5377 68.7805C80.8059 66.0761 83.6853 63.6904 85.4365 57.6421C86.9516 52.4099 92.1646 46.1504 97.8195 41.5395C102.318 37.8728 108.504 38.2545 112.52 33C112.552 35.8952 112.897 37.5703 116.026 38.421C126.695 41.3203 135.573 46.7778 138.55 58.44C139.44 61.922 140.874 64.0132 144.867 64.801C151.119 66.0354 154.077 71.4849 157.12 76.4206C158.234 78.2276 158.301 80.5482 157.262 82.4405C156.423 83.9714 155.499 86.2799 153.407 85.9489C151.218 85.6017 152.275 83.2506 151.986 81.7603C151.593 79.732 151.341 77.6713 150.85 75.6673C150.538 74.3923 148.575 73.0117 148.384 73.3325C145.02 78.9626 136.876 71.8604 133.382 79.1087C132.69 80.5441 128.943 81.2203 129.256 85.2058C129.383 86.8037 126.817 85.8819 125.337 84.8627C119.342 80.7411 114.1 75.2551 106.37 74.1831C104.934 73.9842 103.293 73.0807 102.122 73.5132C94.7344 76.2439 87.4382 79.2285 80.1441 82.2111C78.8653 82.7329 78.4926 83.9612 78.6616 85.3439C79.3173 90.706 79.9791 96.0681 80.5676 101.438C80.7978 103.54 81.9157 104.173 83.9194 104.145C86.7561 104.106 85.8458 102.086 86.0087 100.606C86.4689 96.4091 84.5772 91.8978 87.9738 88.0686C88.941 86.9783 89.4176 85.3682 91.2218 85.892C92.8182 86.3549 93.307 87.7559 93.3273 89.3294C93.3925 94.3098 93.4699 99.2902 93.5432 104.271C92.2745 105.16 90.9998 106.047 89.7271 106.934ZM91.7614 66.2426C94.0421 70.1185 94.429 70.5509 98.8865 68.6932C104.332 66.4233 109.194 66.5187 114.133 69.8748C117.171 71.9397 120.61 72.697 124.363 70.89C119.004 69.1784 115.358 64.2386 108.518 64.2346C113.964 61.6276 118.114 63.2154 122.272 64.8335C123.369 65.2599 125.051 66.9186 125.412 66.0537C127.352 61.4185 131.67 63.9544 134.81 62.5758C134.229 60.381 134.16 57.8573 132.967 56.0868C130.702 52.7267 129.096 47.3909 123.927 48.4264C120.4 49.133 117.399 48.5259 114.236 47.9128C109.681 47.0275 105.289 46.721 100.717 48.1625C97.4448 49.1939 93.6226 49.6467 93.8588 53.9104C94.0604 57.569 92.8203 62.4661 98.7379 63.6762C99.8314 63.8996 101.257 65.1015 100.648 67.3836C97.7034 67.0323 94.8505 65.1056 91.7614 66.2426ZM139.456 67.7429C135.938 70.3885 130.598 68.7683 127.65 72.7518C131.763 71.5011 136.984 72.8452 139.456 67.7429Z" fill="#F2F3F4"/>
<path d="M74 262.494C75.6184 260.296 78.1497 261.173 80.2866 261.173C223.167 261.146 366.05 261.16 508.931 261.229C510.999 261.23 513.652 260.131 515 262.736C512.511 262.828 510.021 263 507.532 263C370.718 262.973 233.907 262.937 97.0927 262.874C89.3931 262.87 81.6955 262.626 74 262.494Z" fill="#F2F3F4"/>
<path d="M531 262.791C532.045 260.254 534.471 261.156 536.366 261.156C608.254 261.139 680.142 261.167 752.03 261.222C753.753 261.224 755.871 260.358 757 262.48C730.788 262.613 704.575 262.811 678.365 262.863C631.528 262.957 584.689 262.969 537.852 263C535.567 263.002 533.283 262.863 531 262.791Z" fill="#F2F3F4"/>
<path d="M184.447 228.129C202.288 226.44 220.168 227.19 238.034 227.042C240.039 227.026 241.933 227.469 241.998 230.32C242.08 233.868 239.473 232.867 237.914 232.878C224.806 232.982 211.697 232.966 198.589 232.897C170.079 232.749 141.569 232.611 113.059 232.315C108.37 232.267 103.686 231.432 99 230.004C105.804 228.477 112.615 227.937 119.495 228.482C120.697 230.283 122.46 229.903 124.071 229.903C142.735 229.909 161.398 229.891 180.064 229.849C181.667 229.847 183.464 230.255 184.447 228.129Z" fill="#F2F3F4"/>
<path d="M333 219.037C350.025 218.513 367.051 217.993 384.076 217.469C385.117 221.271 388.153 219.74 390.331 219.752C413.354 219.881 436.376 219.882 459.401 219.839C461.315 219.835 463.394 220.555 466.146 218.465C462.953 218.465 460.72 218.46 458.484 218.465C437.744 218.509 417.002 218.588 396.261 218.554C393.88 218.549 391.244 219.473 389.153 217.342C413.899 216.9 438.646 216.468 463.392 216.002C467.306 215.928 470.962 218.139 474.959 217.304C476.144 217.056 477.028 217.645 476.999 219.005C476.967 220.502 476.184 221.309 474.658 221.379C470.71 221.559 466.763 222.042 462.819 221.997C420.387 221.538 377.958 221.004 335.526 220.464C334.727 220.453 333.931 220.104 333.132 219.913C333.285 219.591 333.24 219.301 333 219.037Z" fill="#F2F3F4"/>
<path d="M675 231.808C630.927 233.352 586.837 233.039 542 232.805C546.771 228.62 668.685 227.326 675 231.808Z" fill="#F2F3F4"/>
<path d="M366.594 240.649C362.384 240.971 358.18 241.084 354 240.343C354.018 239.367 354.039 238.391 354.057 237.415C357.811 237.394 361.563 237.372 365.317 237.351C376.104 239.19 386.895 239.09 397.687 237.388C408.095 237.39 418.503 237.392 428.911 237.394C433.048 239.037 437.184 239.049 441.319 237.39C447.571 236.807 453.824 236.937 460.075 237.392C462.111 238.982 464.163 238.909 466.23 237.444C475.425 237.309 484.632 236.76 493.775 238.212C494.183 238.684 494.592 239.155 495 239.627C494.996 240.001 494.994 240.372 494.99 240.746C475.541 240.74 456.091 240.709 436.642 240.763C434.462 240.768 432.044 240.045 430.16 241.804C425.532 242.06 420.91 242.183 416.317 241.41C415.155 238.578 412.467 239.698 410.417 239.681C397.985 239.575 385.551 239.584 373.117 239.644C370.922 239.651 368.519 238.989 366.594 240.649Z" fill="#F2F3F4"/>
<path d="M75 231.314C64.0555 233.368 53.3981 234.237 42.6962 233.529C39.3183 233.305 38.8129 234.219 39.013 237.122C39.199 239.798 39.0049 242.506 38.92 245.196C38.8655 246.884 38.7725 248.887 36.6317 248.995C34.3636 249.111 33.369 247.173 33.2942 245.245C33.0577 239.205 32.9626 233.152 33.0132 227.105C33.0496 222.731 33.4397 218.361 33.6014 213.985C33.6783 211.9 34.7133 210.843 36.6944 211.019C38.5461 211.182 38.7907 212.698 38.819 214.242C38.8938 218.618 39.3607 223.029 38.9585 227.358C38.5117 232.181 40.3493 232.052 44.2002 231.377C53.3577 229.771 62.6425 229.053 71.9637 229.282C72.9239 229.302 74.0721 229.192 75 231.314Z" fill="#F2F3F4"/>
<path d="M100.091 159.901C99.7893 151.757 99.7873 151.795 107.568 152.089C112.376 152.272 117.189 152.318 121.999 152.424C122.011 164.721 122.011 164.721 109.931 164.777C109.321 164.779 108.693 164.685 108.104 164.799C103.956 165.601 101.274 164.011 100.091 159.901Z" fill="#F2F3F4"/>
<path d="M338.175 166.805C343.857 169.213 349.845 167.902 355.698 168.259C357.841 168.391 360.222 167.335 362 169.446C357.829 170.833 352.979 168.79 349.169 172L349.328 171.927C346.957 169.855 344.59 168.931 342.235 171.949C341.829 171.905 341.424 171.858 341.016 171.814C339.256 169.142 336.544 170.398 334.29 170.372C319.122 170.193 303.952 170.189 288.784 170.128C287.698 169.509 286.611 168.887 285.525 168.267C285.293 164.888 285.156 161.514 285.959 158.18C286.042 158.02 286.237 157.781 286.191 157.716C285.995 157.447 285.727 157.23 285.485 156.993C285.259 155.249 284.163 153.367 286.28 152C288.901 155.745 287.412 159.977 287.446 163.947C287.484 168.352 290.001 168.346 293.087 168.293C296.035 168.243 298.828 168.628 298.854 164.092C298.874 160.517 297.5 156.699 299.89 153.323C300.091 156.158 300.001 159.057 300.59 161.81C301.042 163.924 298.866 167.722 302.261 167.894C305.585 168.064 309.934 170.159 312.555 165.792C318.979 169.985 325.638 168.917 332.35 166.689C334.292 166.728 336.233 166.766 338.175 166.805Z" fill="#F2F3F4"/>
<path d="M336 207.138C334.086 209.829 331.672 208.76 329.471 208.76C265.467 208.819 201.46 208.822 137.456 208.757C135.278 208.754 132.831 209.967 131 207C199.333 207.047 267.665 207.094 336 207.138Z" fill="#F2F3F4"/>
<path d="M123.51 169.732C123.679 170.728 123.988 171.722 123.994 172.718C124.04 180.268 124.021 180.27 115.954 179.86C113.404 179.729 110.85 179.619 108.305 179.422C95.3161 178.422 95.2827 178.362 99.4845 166C100.127 166.104 100.77 166.209 101.412 166.313C100.826 168.517 98.8753 171.784 103.507 171.328C110.179 170.672 116.997 171.808 123.535 169.78L123.51 169.732Z" fill="#F2F3F4"/>
<path d="M225 197.188C226.641 195.49 228.857 196.112 230.845 196.108C260.096 196.07 289.346 196.068 318.597 196.106C320.792 196.11 323.233 195.487 325 197.389H324.943C324.408 197.356 323.874 197.323 323.338 197.29C297.63 198.775 271.899 197.408 246.182 197.791C245.675 197.644 245.168 197.497 244.661 197.351C238.108 197.296 231.553 197.241 225 197.188Z" fill="#F2F3F4"/>
<path d="M100 105.679C100.102 101.274 100.258 96.8685 100.287 92.4611C100.304 89.7697 100.447 87.6977 104.053 87.1092C108.256 86.4219 109.6 89.0968 110.21 91.8376C111.26 96.5516 111.269 101.43 110.203 106.227C106.673 108.43 103.233 108.934 100 105.679Z" fill="#F2F3F4"/>
<path d="M126 189C115.266 189 105.165 189 95.0409 189C94.7152 185.474 96.3126 183.748 100.698 183.839C105.557 183.94 110.48 183.815 115.283 183.203C120.334 182.561 124.162 183.175 126 189Z" fill="#F2F3F4"/>
<path d="M87 172.241C87 178.809 87 184.957 87 192C85.054 188.819 85.7929 186.264 85.8166 183.829C85.8482 180.596 86.2809 177.944 81.5255 177.544C76.6832 177.136 77.4241 179.813 77.4162 182.724C77.4122 183.96 77.3154 185.278 75 186.307C75.7764 176.755 76.3731 167.662 77.3174 158.607C77.7441 154.518 81.2153 156.457 83.1772 156.475C86.6464 156.508 86.0991 159.62 86.2394 162.115C86.3875 164.765 85.0698 165.427 82.9243 165.083C78.8703 164.433 76.2683 165.038 77.0507 170.441C77.9002 176.308 81.7883 173.139 84.4712 173.461C85.1172 173.537 85.8522 172.821 87 172.241Z" fill="#F2F3F4"/>
<path d="M407.2 230.775C398.788 231.022 390.371 231.324 382 230.117C382.018 229.24 382.035 228.36 382.053 227.483C386.245 226.918 390.447 226.847 394.657 227.279C395.693 228.572 397.187 228.453 398.629 228.451C417.272 228.447 435.913 228.437 454.556 228.423C455.995 228.423 457.492 228.574 458.536 227.281C460.375 227.147 462.238 226.935 464 229.118C461.435 230.679 458.827 231.046 456.034 230.822C455.052 229.456 453.545 229.599 452.114 229.599C438.47 229.599 424.828 229.609 411.184 229.627C409.744 229.63 408.252 229.513 407.2 230.775Z" fill="#F2F3F4"/>
<path d="M255 243C255.295 239.598 257.703 237.759 259.701 235.951C267.393 228.988 275.254 222.213 283.089 215.409C283.993 214.624 285.111 213.523 286.362 214.223C287.415 214.814 286.969 215.943 286.415 216.931C284.677 220.024 258.856 241.683 255 243Z" fill="#F2F3F4"/>
<path d="M121 211.404C122.654 209.559 124.888 210.217 126.896 210.215C162.255 210.181 197.616 210.173 232.975 210.255C235.034 210.259 237.739 209.012 239 212C220.308 211.866 201.617 211.732 182.925 211.598C165.945 210.927 148.965 210.953 131.984 211.578C128.321 211.52 124.661 211.462 121 211.404Z" fill="#F2F3F4"/>
<path d="M245 243C246.488 237.512 250.619 234.593 254.271 231.262C259.511 226.481 264.804 221.759 270.122 217.067C271.034 216.264 272.24 215.445 273.425 216.502C274.357 217.334 274.024 218.744 273.356 219.353C264.239 227.64 255.77 236.75 245 243Z" fill="#F2F3F4"/>
<path d="M112 105.612C112.473 101.199 112.914 96.7819 113.433 92.3727C113.707 90.0305 113.395 87.002 116.995 87C120.562 86.998 120.476 90.254 120.688 92.4166C121.12 96.7819 120.932 101.205 121 105.606C118.003 107.059 115.003 107.829 112 105.612Z" fill="#F2F3F4"/>
<path d="M574 207.159C572.399 209.751 570.171 208.78 568.197 208.786C538.366 208.856 508.537 208.869 478.706 208.815C476.752 208.813 474.487 209.859 473 207C506.668 207.054 540.334 207.105 574 207.159Z" fill="#F2F3F4"/>
<path d="M525.97 131C517.099 130.915 508.228 130.879 499.359 130.685C498.091 130.658 495.943 130.946 496.001 128.733C496.062 126.404 498.127 127.087 499.447 127.113C508.302 127.286 517.192 126.427 526 128.129C525.988 129.085 525.978 130.042 525.97 131Z" fill="#F2F3F4"/>
<path d="M112.465 106.241C115.418 108.348 118.369 107.616 121.32 106.235C122.839 106.178 124.358 106.121 125.88 106.064C128.859 108.062 132.312 107.159 135.569 107.458C135.72 107.472 135.858 107.62 136 107.705C135.614 108.033 135.226 108.361 134.84 108.688C119.884 108.57 104.881 110.032 90 107.485C91.2694 106.656 92.5387 105.827 93.8081 105C95.9122 105.182 98.0163 105.364 100.12 105.544C103.277 108.545 106.632 108.081 110.08 106.049C110.877 106.114 111.671 106.178 112.465 106.241Z" fill="#F2F3F4"/>
<path d="M250 212.283C251.689 210.48 253.91 211.108 255.922 211.104C275.155 211.073 294.389 211.086 313.622 211.17C315.524 211.178 317.973 210.164 319 213C296 212.762 273 212.523 250 212.283Z" fill="#F2F3F4"/>
<path d="M389.072 217C391.161 219.361 393.795 218.339 396.175 218.343C416.897 218.383 437.622 218.294 458.345 218.245C460.577 218.24 462.81 218.245 466 218.245C463.251 220.565 461.174 219.767 459.261 219.769C436.258 219.816 413.253 219.816 390.25 219.673C388.075 219.659 385.04 221.359 384 217.141C385.691 217.094 387.381 217.047 389.072 217Z" fill="#F2F3F4"/>
<path d="M436 207C434.633 209.656 432.641 208.9 430.848 208.903C405.434 208.923 380.017 208.897 354.602 208.855C352.988 208.852 351.247 209.358 350 207.137C378.668 207.092 407.334 207.048 436 207Z" fill="#F2F3F4"/>
<path d="M459 227.774C457.954 229.126 456.455 228.966 455.013 228.968C436.334 228.982 417.658 228.993 398.979 228.997C397.535 228.997 396.038 229.124 395 227.772C416.332 227.724 437.666 226.058 459 227.774Z" fill="#F2F3F4"/>
<path d="M101.852 166.447C101.234 166.34 100.617 166.233 100 166.126C100.104 164.051 100.206 161.976 100.311 159.901C101.503 164.121 104.206 165.753 108.388 164.932C108.981 164.814 109.614 164.911 110.23 164.909C122.407 164.851 122.407 164.851 122.395 152.226C122.928 149.501 121.417 149.101 119.263 149.155C115.419 149.25 111.572 149.2 107.727 149.212C110.013 145.369 113.63 147.809 116.606 147.317C118.994 146.923 121.483 147.172 123.928 147.137C124.076 154.76 124.084 162.375 123.074 169.951L123.1 170C122.958 166.624 120.908 166.214 118.149 166.309C112.72 166.5 107.284 166.418 101.852 166.447Z" fill="#F2F3F4"/>
<path d="M310 237.889C298.329 239.532 286.665 239.183 275 237.942C286.673 235.516 298.339 235.213 310 237.889Z" fill="#F2F3F4"/>
<path d="M354 237C353.982 238.333 353.962 239.667 353.943 241C351.43 240.807 348.916 240.614 346.405 240.421C345.511 239.654 344.594 239.753 343.664 240.297C336.466 240.297 329.267 240.297 322.069 240.297C322.047 239.342 322.022 238.389 322 237.434C332.666 237.287 343.332 237.145 354 237Z" fill="#F2F3F4"/>
<path d="M66.5957 186.995C65.4918 187.05 64.5848 186.692 64 185.674C65.464 174.034 64.3541 162.174 67.1706 149C69.0861 162.762 67.1606 174.875 66.5957 186.995Z" fill="#F2F3F4"/>
<path d="M430 242.358C431.889 240.34 434.313 241.17 436.499 241.164C455.999 241.102 475.5 241.138 495 241.144C494.445 243.736 492.397 242.859 490.96 242.851C470.638 242.74 450.32 242.537 430 242.358Z" fill="#F2F3F4"/>
<path d="M185 228C184.014 230.35 182.218 229.899 180.612 229.904C161.935 229.95 143.258 229.971 124.58 229.963C122.965 229.963 121.203 230.384 120 228.393C141.668 228.26 163.334 228.13 185 228Z" fill="#F2F3F4"/>
<path d="M382 228C381.982 228.666 381.966 229.334 381.948 230C379.299 229.946 376.649 229.891 373.998 229.838C372.054 229.82 370.111 229.802 368.169 229.784C357.781 229.784 347.392 229.784 337.006 229.784C337.004 229.376 337.002 228.966 337 228.557C344.494 228.557 351.987 228.557 359.481 228.557C360.213 228.545 360.943 228.534 361.673 228.52C368.449 228.347 375.224 228.173 382 228Z" fill="#F2F3F4"/>
<path d="M366 241.217C367.937 239.498 370.354 240.184 372.564 240.173C385.066 240.111 397.568 240.102 410.068 240.211C412.13 240.229 414.832 239.071 416 242C399.332 241.74 382.666 241.479 366 241.217Z" fill="#F2F3F4"/>
<path d="M526 130.884C526.01 129.922 526.021 128.962 526.031 128C537.615 129.873 549.366 128.737 561 130.43C549.354 133.946 537.65 130.385 526 130.884Z" fill="#F2F3F4"/>
<path d="M332.781 219C333.019 219.352 333.063 219.741 332.912 220.16C323.599 222.022 314.311 220.405 305 219C314.259 219 323.52 219 332.781 219Z" fill="#F2F3F4"/>
<path d="M636 211.557C637.192 209.677 638.959 210.041 640.599 210.038C656.526 210.017 672.453 210.012 688.38 210.026C690.021 210.029 691.785 209.672 693 211.511C673.999 211.922 655.001 212.345 636 211.557Z" fill="#F2F3F4"/>
<path d="M260.94 126.912C258.794 125.182 254.368 129.194 254.012 125.034C253.74 121.879 258.303 124.028 260.635 123.166C263.275 122.191 266.195 122.263 268.999 122.026C270.187 121.927 271.828 122.029 271.983 123.711C272.197 126.014 270.303 126.118 269.003 126.292C266.406 126.64 263.783 126.712 260.94 126.912Z" fill="#F2F3F4"/>
<path d="M132 211.435C149 210.864 166 210.84 183 211.454C166.002 212.173 149 212.197 132 211.435Z" fill="#F2F3F4"/>
<path d="M407 230.96C408.058 229.93 409.555 230.027 410.996 230.026C424.686 230.013 438.375 230.005 452.066 230.004C453.502 230.004 455.014 229.887 456 231C439.666 230.987 423.332 230.974 407 230.96Z" fill="#F2F3F4"/>
<path d="M313 228C305.35 228 297.699 228 290.049 228C290.033 227.667 290.016 227.333 290 227C297.658 227 305.318 227 312.975 227C312.984 227.333 312.992 227.667 313 228Z" fill="#F2F3F4"/>
<path d="M15 262.304C25.3678 260.864 35.7214 260.105 46 262.8C35.6525 263.32 25.3293 262.707 15 262.304Z" fill="#F2F3F4"/>
<path d="M137.669 182.161C139.001 183.059 142.175 180.278 141.992 184.021C141.755 188.87 137.735 187.244 135.134 187.72C133.824 187.96 131.881 188.792 132.006 185.651C132.196 180.955 135.329 182.576 137.669 182.161Z" fill="#F2F3F4"/>
<path d="M678 207.019C669.609 210.53 661.005 208.076 652.509 208.405C648.047 208.576 643.321 210.283 639 207C651.999 207.005 664.999 207.014 678 207.019Z" fill="#F2F3F4"/>
<path d="M167.308 167C165.89 159.63 165.098 152.274 167.751 145C168.203 152.348 168.031 159.68 167.308 167Z" fill="#F2F3F4"/>
<path d="M518 101.978C525.527 100.419 533.302 101.396 540.947 101.302C545.257 101.249 549.886 100.325 554 102C542.002 101.993 530 101.985 518 101.978Z" fill="#F2F3F4"/>
<path d="M226 135C221.732 136.646 217.069 135.782 212.662 135.703C205.111 135.566 197.446 136.753 190 135.041C201.997 135.027 213.999 135.014 226 135Z" fill="#F2F3F4"/>
<path d="M191 153.833C185.427 151.525 181.215 151.053 178.464 158C177.07 152.537 178.983 150.447 181.968 149.569C185.292 148.591 188.847 148.255 191 153.833Z" fill="#F2F3F4"/>
<path d="M126 204.03C114.664 205.193 103.332 205.459 92 204C103.334 204.01 114.666 204.019 126 204.03Z" fill="#F2F3F4"/>
<path d="M397 237.055C386.33 239.581 375.664 239.733 365 237C375.666 237.017 386.334 237.036 397 237.055Z" fill="#F2F3F4"/>
<path d="M471 127C477.139 127 483.28 127 489 127C483.488 130.362 477.245 128.868 471 127Z" fill="#F2F3F4"/>
<path d="M500 113.493C510.034 111.839 520.052 111.002 530 114C528.473 113.933 526.946 113.866 525.419 113.799C524.798 113.775 524.178 113.753 523.557 113.73C515.703 113.651 507.852 113.572 500 113.493Z" fill="#F2F3F4"/>
<path d="M209 169C208.871 170.603 207.38 170.606 206.221 171C198.148 171 190.073 171 182 171C182 170.466 182.002 169.932 182.002 169.397C189.216 169.397 196.428 169.397 203.642 169.397C204.583 169.358 205.523 169.321 206.464 169.281C207.309 169.187 208.155 169.094 209 169Z" fill="#F2F3F4"/>
<path d="M349.974 172L349.818 172.074C353.53 171.788 353.86 174.357 353.988 177.263C354.063 178.94 353.828 180.04 351.911 179.999C350.187 179.962 348.733 179.785 349.041 177.342C349.269 175.542 348.852 173.629 349.974 172Z" fill="#F2F3F4"/>
<path d="M534 105C533.551 105.782 533.107 107.239 532.65 107.243C525.755 107.327 518.76 109.462 512 106.165C519.333 105.777 526.667 105.387 534 105Z" fill="#F2F3F4"/>
<path d="M329 127.52C337.658 125.435 346.326 125.592 355 127.401C346.338 128.671 337.666 127.529 329 127.52Z" fill="#F2F3F4"/>
<path d="M310 132C301.844 135.52 293.463 133.332 285.167 133.289C285.106 133.289 284.982 132.896 285.002 132.701C285.025 132.478 285.173 132.268 285.266 132.054C293.51 132.038 301.755 132.019 310 132Z" fill="#F2F3F4"/>
<path d="M254 135C246.022 136.421 238.019 136.201 230 135.13C238.001 135.087 245.999 135.043 254 135Z" fill="#F2F3F4"/>
<path d="M355.219 191C354.479 190.661 353.74 190.323 353 189.984C353.161 186.201 354.943 184.482 359.063 185.136C361.329 185.496 363.686 185.331 366 185.404C363.424 188.114 358.331 183.899 356.487 188.624C356.064 189.416 355.64 190.209 355.219 191Z" fill="#F2F3F4"/>
<path d="M76 151C78.7087 151.102 81.4197 151.204 84.1262 151.306C85.6258 151.117 86.9485 151.568 86.9987 152.895C87.0554 154.338 85.2634 154.066 84.589 153.745C81.8715 152.442 76.9407 156.289 76 151Z" fill="#F2F3F4"/>
<path d="M54.8284 139C57.7643 141.008 62.3373 138.187 65 141C59 140.902 53 140.805 47 140.709C48.1832 139.168 50.7387 140.388 52.1131 139.232C53.0168 139.154 53.9226 139.077 54.8284 139Z" fill="#F2F3F4"/>
<path d="M341.156 172C341.592 172.047 342.027 172.095 342.465 172.142C346.037 174.177 345.417 176.725 343.174 180C341.31 177.35 338.345 175.505 341.156 172Z" fill="#F2F3F4"/>
<path d="M540 97.4671C533.661 99.4448 527.326 99.5969 521 97.4063C527.335 97.0651 533.669 96.6674 540 97.4671Z" fill="#F2F3F4"/>
<path d="M421 204.453C427.065 202.861 433.102 201.994 439 205C433.001 204.819 426.999 204.636 421 204.453Z" fill="#F2F3F4"/>
<path d="M402 23.0678C400.302 25.9662 398.73 28.9942 394 31C396.215 26.6621 397.987 23.8934 400.922 22C401.281 22.3566 401.639 22.7111 402 23.0678Z" fill="#F2F3F4"/>
<path d="M441 237C437.001 239.675 433.001 239.657 429 237.006C433.001 237.006 437.001 237.003 441 237Z" fill="#F2F3F4"/>
<path d="M52 139C50.7129 140.53 48.3197 138.915 47.2117 140.954C45.9403 141.019 44.602 141.303 43 139C46.511 139 49.2565 139 52 139Z" fill="#F2F3F4"/>
<path d="M549 105C546.02 106.411 543.015 106.235 540 105.059C543.001 105.039 545.999 105.02 549 105Z" fill="#F2F3F4"/>
<path d="M466 237.089C463.986 239.588 461.985 239.715 460 237C461.999 237.032 463.999 237.06 466 237.089Z" fill="#F2F3F4"/>
<path d="M469 212.997C471 211.664 473 211.671 475 213C473 212.998 471 212.997 469 212.997Z" fill="#F2F3F4"/>
<path d="M368 230C369.999 230.054 371.999 230.108 374 230.161C371.995 231.331 369.993 231.277 368 230Z" fill="#F2F3F4"/>
<path d="M100 146C101.19 146.864 101.385 147.851 100.219 149C100.147 148.001 100.072 147.002 100 146Z" fill="#F2F3F4"/>
<path d="M206 169C205 169.339 204 169.661 203 170C204 169.661 205 169.323 206 169Z" fill="#F2F3F4"/>
<path d="M343 240.395C344.02 239.894 345.024 239.805 346 240.51C344.976 241.2 343.976 241.161 343 240.395Z" fill="#F2F3F4"/>
<path d="M356 57.2073C355.668 58.261 355.334 58.2675 355 57.2073C355.334 56.9309 355.666 56.9309 356 57.2073Z" fill="#F2F3F4"/>
<path d="M494.974 240C494.65 239.332 494.324 238.668 494 238C494.716 238.16 495.109 238.741 494.974 240Z" fill="#F2F3F4"/>
<path d="M124 145C123.345 144.334 122.691 143.666 122.034 143L122 143.015C122.655 143.135 123.309 143.254 123.964 143.374C123.975 143.913 123.989 144.456 124 145Z" fill="#F2F3F4"/>
<path d="M198.725 111C198.526 111.334 198.328 111.666 198.129 112C198.089 111.86 197.931 111.663 198.035 111.591C198.296 111.404 198.675 111.275 199 111.117C198.995 111.111 198.725 111 198.725 111Z" fill="#F2F3F4"/>
<path d="M324 197C324.334 197.044 324.666 197.088 325 197.131C324.616 198.525 324.297 198.063 324 197Z" fill="#F2F3F4"/>
<path d="M411.842 17C412.228 17.3665 412.614 17.733 413 18.0976C412.689 18.3978 412.378 18.698 412.067 19C411.711 18.6501 411.356 18.3002 411 17.9503C411.281 17.6317 411.561 17.3168 411.842 17Z" fill="#F2F3F4"/>
<path d="M553.054 170.861C554.289 170.816 555.524 170.771 556.759 170.725C557.393 171.079 557.798 170.885 557.991 170.193C558.37 164.129 558.749 158.064 559.125 152C559.935 152.104 560.745 152.208 561.556 152.311C561.639 156.365 561.722 160.418 561.802 164.471C561.734 164.64 561.583 164.827 561.615 164.974C561.685 165.316 561.844 165.637 561.969 165.967C561.166 173.538 569.091 169.106 572 174C565.053 173.271 559.027 172.638 553 172.007C553.211 171.626 553.232 171.244 553.054 170.861Z" fill="#F2F3F4"/>
<path d="M330 139C317.999 138.821 305.999 138.643 294 138.464C306.023 136.909 318.04 135.946 330 139Z" fill="#F2F3F4"/>
<path d="M371 67.4359C382.001 66.8775 392.999 66.8346 404 67.4295C393.001 69.5063 382.001 69.5385 371 67.4359Z" fill="#F2F3F4"/>
<path d="M455.205 89C455.493 91.7483 456.945 92.6717 459.782 92.4119C464.503 91.9781 469.259 91.9121 474 91.6903C473.086 94.8783 470.379 93.731 468.333 93.813C464.43 93.9689 460.476 94.1727 456.616 93.741C453.374 93.3772 451.12 91.8882 455.205 89Z" fill="#F2F3F4"/>
<path d="M640 175C629.334 174.848 618.668 174.697 608 174.545C608.511 174.062 609.023 173.581 609.534 173.098C619.625 173.066 629.714 173.032 639.804 173C639.87 173.667 639.934 174.333 640 175Z" fill="#F2F3F4"/>
<path d="M522.236 144C514.158 143.801 506.078 143.602 498 143.405C506.93 140.563 515.965 142.922 525 142.862C524.079 143.242 523.159 143.622 522.236 144Z" fill="#F2F3F4"/>
<path d="M481 82.4501C472.337 83.015 463.673 83.2311 455 82.6806C463.647 80.3579 472.317 80.5985 481 82.4501Z" fill="#F2F3F4"/>
<path d="M104 133C110.666 133.234 117.334 133.466 124 133.7C117.262 134.92 110.523 136.163 104 133Z" fill="#F2F3F4"/>
<path d="M370 59C367.703 58.9612 365.408 58.92 363.111 58.8813C361.674 58.5006 359.978 58.9588 359.012 57.0339L359 57.0388C359.866 57.0291 360.73 57.0218 361.596 57.0121C362.748 57.0072 363.901 57.0048 365.053 57C366.633 57.9164 368.956 56.1248 370 59Z" fill="#F2F3F4"/>
<path d="M114 143C115.999 143.198 118.001 143.394 120 143.591C117.754 145.552 115.731 145.566 114 143Z" fill="#F2F3F4"/>
<path d="M365 56.9939C363.667 56.9963 362.333 56.9975 361 57C362.326 55.5054 363.661 55.84 365 56.9939Z" fill="#F1EEEE"/>
<path d="M201 110.835C201.287 110.557 201.573 110.277 201.858 110C201.904 110.666 201.951 111.334 202 112C201.668 111.612 201.334 111.223 201 110.835Z" fill="#F1EEEE"/>
<path d="M309 80.8697C308.657 80.7394 308.271 80.6303 308.006 80.4576C307.949 80.4182 308.313 80.1576 308.485 80C308.532 80.3333 308.579 80.6667 308.625 81L309 80.8697Z" fill="#F1EEEE"/>
<path d="M599.135 184.267C594.067 180.885 587.849 184.157 582 181.118C592.714 178.782 602.876 180.813 613 180.935C609.388 187.473 603.249 188.948 599.135 184.267ZM608.098 182.94C608.233 182.844 608.367 182.75 608.502 182.655C608.392 182.537 608.28 182.417 608.169 182.299C607.998 182.461 607.825 182.621 607.653 182.782C607.8 182.836 607.949 182.888 608.098 182.94Z" fill="#F2F3F4"/>
<path d="M506.736 178.303C509.24 179.045 514.459 173.363 513.968 181.189C513.959 181.927 513.949 182.667 513.94 183.405C513.907 183.867 513.876 184.328 513.842 184.79C512.518 185.288 510.014 184.975 511.817 187.607C513.382 189.89 511.478 190.36 509.916 191C509.253 188.878 508.606 186.749 507.922 184.635C507.284 182.667 507.64 179.787 504 180.492C504.274 179.008 505.45 178.594 506.736 178.303Z" fill="#F2F3F4"/>
<path d="M429 180.3C414.335 181.246 399.667 181.19 385 180.391C385.67 179.928 386.336 179.064 387.008 179.06C400.313 178.98 413.616 178.982 426.921 179.055C427.615 179.062 428.306 179.867 429 180.3Z" fill="#F2F3F4"/>
<path d="M380 194.89C371.333 194.927 362.665 194.963 354 195C354.442 194 354.883 193 355.325 192C356.548 192.033 357.772 192.068 358.996 192.101C363.468 195.062 368.399 193.095 373.095 193.659C375.421 193.936 377.96 192.725 380 194.89Z" fill="#F2F3F4"/>
<path d="M408 189.741C416.667 189.493 425.335 189.248 434 189C433.591 190.023 432.97 190.852 431.764 190.78C423.849 190.309 415.834 192.118 408 189.741Z" fill="#F2F3F4"/>
<path d="M449 192.993C445.667 192.995 442.333 192.998 439 193C442.331 190.219 445.665 190.452 449 192.993Z" fill="#F2F3F4"/>
<path d="M521 221C519.192 218.89 517.384 216.78 515 214C520.566 214.683 520.942 217.662 520.868 220.928L521 221Z" fill="#F1EEEE"/>
<path d="M610.413 188C610.61 188.225 610.805 188.453 611 188.678C610.768 188.794 610.542 188.947 610.297 188.999C610.218 189.016 609.975 188.716 610.002 188.644C610.089 188.408 610.267 188.211 610.413 188Z" fill="#F2F3F4"/>
<path d="M204.784 192C204.508 191.819 204.006 191.648 204.001 191.458C203.988 190.976 204.198 190.487 204.32 190C204.55 190.306 204.886 190.573 204.982 190.93C205.061 191.229 204.862 191.637 204.784 192Z" fill="#F1EEEE"/>
<path d="M292.898 183.061C293.95 183.76 294.218 184.721 293.833 185.815C293.781 185.963 293.171 185.943 292.82 186C292.715 184.987 290.875 183.852 293.075 183C293.085 182.998 292.898 183.061 292.898 183.061Z" fill="#F1EEEE"/>
<path d="M313 166.082C313.039 160.601 313.488 155.138 314.875 149.848C316.453 143.833 320.698 142.813 326.404 145.178C333.35 148.056 335.022 152.593 333.46 159.45C332.909 161.871 333.144 164.478 333.02 166.998C326.23 169.274 319.496 170.365 313 166.082Z" fill="#F2F3F4"/>
<path d="M286 152.563C291.41 146.043 296.51 146.529 300 153.898C297.542 157.3 298.956 161.151 298.935 164.755C298.908 169.325 296.035 168.939 293.002 168.99C289.828 169.043 287.237 169.049 287.2 164.608C287.165 160.604 288.697 156.338 286 152.563Z" fill="#F2F3F4"/>
<path d="M285.665 159C285.444 158.334 285.221 157.666 285 157C285.339 157.399 285.716 157.764 285.99 158.218C286.055 158.328 285.784 158.73 285.665 159Z" fill="#F2F3F4"/>
<path d="M474 170.552C475.815 166.193 475.17 161.729 475.776 157.431C476.377 153.164 477.034 148.393 483.129 149.063C488.169 149.617 490.251 152.994 489.976 158.042C489.249 171.346 493.458 171.295 475.474 170.883C475.07 170.877 474.671 170.709 474 170.552Z" fill="#F2F3F4"/>
<path d="M463.967 162.939C463.967 164.802 463.894 166.666 463.987 168.522C464.083 170.433 463.676 171.379 461.329 171.667C450.274 173.024 447.268 170.451 448.142 159.873C448.555 154.871 449.452 150.113 456.104 150.002C461.403 149.912 463.749 153.158 463.909 160.458C463.927 161.284 463.911 162.113 463.911 162.939C463.931 162.939 463.95 162.939 463.967 162.939Z" fill="#F2F3F4"/>
<path d="M501.314 166C500.605 161.895 501.144 157.886 502.45 153.98C503.366 151.244 504.448 148.64 507.968 148.087C511.633 147.513 513.166 149.863 514.653 152.379C515.161 153.237 515.554 154.159 516 155.051C515.668 155.536 515.115 155.987 515.034 156.509C513.559 165.926 513.571 165.928 503.761 165.958C502.945 165.96 502.128 165.986 501.314 166Z" fill="#F2F3F4"/>
<path d="M420.303 155.574C418.948 151.074 422.556 147.144 422.991 142.507C423.148 140.832 424.851 139.893 426.667 140.01C428.338 140.117 428.956 141.292 429.347 142.822C431.237 150.206 428.6 157.007 426.804 163.903C426.275 165.933 424.938 164.582 423.963 164.278C422.462 163.81 420.067 164.635 420.279 161.579C420.407 159.738 420.303 157.882 420.303 155.574Z" fill="#F2F3F4"/>
<path d="M384.645 158.366C384.649 160.009 386.328 163.157 382.35 161.561C380.196 160.697 378.431 161.712 376.435 161.609C375.058 155.827 377.307 150.394 378.234 144.939C378.838 141.389 381.811 141.079 384.468 143.878C382.957 148.727 382.713 153.559 384.645 158.366Z" fill="#F2F3F4"/>
<path d="M585 157.688C577.57 154.875 571.101 154.863 566.052 164C565.525 156.897 569.121 154.855 572.798 153.851C577.25 152.634 582.16 151.884 585 157.688Z" fill="#F2F3F4"/>
<path d="M609 173.631C608.484 174.079 607.968 174.529 607.452 174.979C598.842 175.123 590.312 174.559 582 172C591.015 172.349 600.081 171.713 609 173.631Z" fill="#F2F3F4"/>
<path d="M555.473 184C554.985 183.327 554.638 182.396 553.983 182.027C551.399 180.572 549.539 178.776 550.1 175.465C550.335 174.076 551.409 172.569 552.494 173.115C554.987 174.369 557.516 175.946 559.375 178.002C561.683 180.555 556.824 180.778 557.235 182.992C556.647 183.33 556.061 183.665 555.473 184Z" fill="#F2F3F4"/>
<path d="M501 165.937C501.861 165.923 502.719 165.899 503.58 165.897C513.922 165.867 513.909 165.865 515.464 156.457C515.549 155.935 516.132 155.482 516.482 155C516.596 156.391 516.875 157.793 516.788 159.174C516.615 161.908 517.804 166.757 515.914 166.963C511.097 167.491 505.649 169.488 501 165.937Z" fill="#F2F3F4"/>
<path d="M384.613 159C382.354 154.023 382.64 149.02 384.407 144C385.36 148.991 384.96 153.997 384.613 159Z" fill="#F2F3F4"/>
<path d="M516 181C515.333 181.666 514.666 182.334 514 183C514.006 182.377 514.014 181.752 514.02 181.129C514.68 181.084 515.341 181.041 516 181Z" fill="#F2F3F4"/>
<path d="M561.518 166C561.34 165.78 561.11 165.565 561.006 165.336C560.962 165.237 561.18 165.113 561.276 165C561.526 165.227 561.838 165.445 561.995 165.686C562.047 165.759 561.689 165.893 561.518 166Z" fill="#F2F3F4"/>
<path d="M89.9952 122C91.5522 122.564 93.1113 123.125 95 123.809C92.0122 126.285 90.5592 124.363 89 122.879C89.3317 122.586 89.6635 122.293 89.9952 122Z" fill="#F2F3F4"/>
<path d="M558 170C557.686 170.984 557.029 171.256 556 170.753C556.667 170.502 557.333 170.251 558 170Z" fill="#F2F3F4"/>
</svg>
