<svg width="325" height="35" viewBox="0 0 325 35" fill="none" xmlns="http://www.w3.org/2000/svg">
<path d="M34.6719 27.3672L35.8672 28.375C35.1016 30.2812 34.0938 31.7891 32.8438 32.8984C31.5938 33.9922 30.3516 34.5391 29.1172 34.5391C28.3828 34.5391 27.75 34.2031 27.2188 33.5312C26.6875 32.8594 26.4219 31.9219 26.4219 30.7188C26.4219 29.5156 26.75 27.7266 27.4062 25.3516C28.0625 22.9609 28.7812 20.625 29.5625 18.3438C31.6562 12.2344 32.7031 7.91406 32.7031 5.38281C32.7031 3.53906 32.2266 2.61719 31.2734 2.61719C30.3359 2.61719 29.2812 3.19531 28.1094 4.35156C26.9375 5.50781 25.7891 7.00781 24.6641 8.85156C23.5547 10.6953 22.4297 12.7344 21.2891 14.9688C20.1484 17.2031 19.0938 19.4375 18.125 21.6719C17.1719 23.8906 16.3125 25.9219 15.5469 27.7656C14.7969 29.6094 14.1875 31.1094 13.7188 32.2656C13.2656 33.4219 13.0156 34 12.9688 34H8.60938L11.0469 27.1328C13.9844 18.8203 15.4531 12.5391 15.4531 8.28906C15.4688 4.02344 13.8594 1.89062 10.625 1.89062C9.42188 1.89062 8.30469 2.23438 7.27344 2.92188C6.25781 3.59375 5.42188 4.45312 4.76562 5.5C4.10938 6.53125 3.54688 7.6875 3.07812 8.96875C2.21875 11.375 1.78906 13.7031 1.78906 15.9531C1.78906 20.2188 2.76562 23.9609 4.71875 27.1797L3.80469 27.9531C2.74219 26.25 1.92969 24.3516 1.36719 22.2578C0.820312 20.1484 0.546875 18.2656 0.546875 16.6094C0.546875 14.9375 0.664062 13.4062 0.898438 12.0156C1.13281 10.6094 1.52344 9.19531 2.07031 7.77344C2.61719 6.33594 3.28906 5.07031 4.08594 3.97656C4.88281 2.86719 5.90625 1.96094 7.15625 1.25781C8.40625 0.554688 9.65625 0.203125 10.9062 0.203125C12.1719 0.203125 13.2109 0.375 14.0234 0.71875C14.8359 1.0625 15.5078 1.53125 16.0391 2.125C16.5703 2.70313 17.0156 3.39062 17.375 4.1875C18.0312 5.6875 18.3594 7.32812 18.3594 9.10938C18.3594 10.8906 18.1719 12.9453 17.7969 15.2734C17.3281 18.1016 16.7812 20.6953 16.1562 23.0547C16.6562 21.6641 17.0859 20.5938 17.4453 19.8438C17.8203 19.0781 18.25 18.1641 18.7344 17.1016C19.2344 16.0391 19.6797 15.0859 20.0703 14.2422C20.4609 13.3828 20.9766 12.3438 21.6172 11.125C22.2578 9.90625 22.8594 8.82812 23.4219 7.89062C23.9844 6.95312 24.6328 5.98438 25.3672 4.98438C26.1172 3.96875 26.8438 3.13281 27.5469 2.47656C29.1719 0.960937 30.7031 0.203125 32.1406 0.203125C33.5781 0.203125 34.6562 0.679687 35.375 1.63281C36.0938 2.57031 36.4531 3.77344 36.4531 5.24219C36.4531 6.71094 36.2422 8.42188 35.8203 10.375C35.3984 12.3125 34.8828 14.2109 34.2734 16.0703C33.6641 17.9297 33.0547 19.7422 32.4453 21.5078C30.9922 25.7109 30.2656 28.4766 30.2656 29.8047C30.2656 31.1328 30.4922 31.7969 30.9453 31.7969C31.3984 31.7969 32.0625 31.2188 32.9375 30.0625C33.8281 28.8906 34.4062 27.9922 34.6719 27.3672ZM49.7891 20.3594H53.4453L51.5938 27.3672C51.2969 28.3516 51.1484 29.25 51.1484 30.0625C51.1484 30.8594 51.2891 31.2578 51.5703 31.2578C51.8516 31.2578 52.2344 31.0156 52.7188 30.5312C53.2188 30.0312 53.6406 29.5312 53.9844 29.0312L54.5234 28.2812L55.5312 29.2188C55.0156 30.2188 54.3594 31.1328 53.5625 31.9609C52.0156 33.5703 50.6719 34.375 49.5312 34.375C48.1875 34.375 47.5156 33.3359 47.5156 31.2578C47.5156 30.9141 47.5312 30.6562 47.5625 30.4844C47.3281 31.2812 46.8828 31.9844 46.2266 32.5938C44.9766 33.7812 43.5625 34.375 41.9844 34.375C40.4219 34.375 39.1641 33.8438 38.2109 32.7812C37.2734 31.7031 36.8047 30.3594 36.8047 28.75C36.8047 26.25 37.6172 24.1406 39.2422 22.4219C40.8672 20.7031 42.7734 19.8438 44.9609 19.8438C46.0547 19.8438 46.9609 20.1484 47.6797 20.7578C48.3984 21.3516 48.8672 22.1328 49.0859 23.1016L49.7891 20.3594ZM45.875 21.8594C44.9688 21.8594 44.1172 22.2422 43.3203 23.0078C42.5391 23.7578 41.9375 24.6719 41.5156 25.75C41.0938 26.8125 40.8828 27.8516 40.8828 28.8672C40.8828 29.8828 41.1016 30.7031 41.5391 31.3281C41.9922 31.9531 42.6797 32.2656 43.6016 32.2656C44.5391 32.2656 45.3828 31.8438 46.1328 31C47.5547 29.375 48.2656 27.4453 48.2656 25.2109C48.2656 22.9766 47.4688 21.8594 45.875 21.8594ZM71.4922 23.7812L71.3516 28.0938C71.3516 30.9375 71.6875 32.3594 72.3594 32.3594C73.0312 32.3594 73.7812 31.8828 74.6094 30.9297C75.4531 29.9609 76.1641 28.7891 76.7422 27.4141C77.3359 26.0391 77.6328 24.7969 77.6328 23.6875C77.4766 23.8125 77.1094 23.875 76.5312 23.875C75.9688 23.875 75.5 23.6953 75.125 23.3359C74.75 22.9766 74.5625 22.5234 74.5625 21.9766C74.5625 21.4297 74.7656 20.9375 75.1719 20.5C75.5938 20.0625 76.2188 19.8438 77.0469 19.8438C77.875 19.8438 78.5469 20.1094 79.0625 20.6406C79.5781 21.1719 79.8359 21.9062 79.8359 22.8438C79.8359 23.7656 79.6328 24.875 79.2266 26.1719C78.8359 27.4688 78.2969 28.7344 77.6094 29.9688C76.9219 31.2031 76.0234 32.25 74.9141 33.1094C73.8203 33.9531 72.6484 34.375 71.3984 34.375C70.2891 34.375 69.5 33.7344 69.0312 32.4531C68.6406 31.3906 68.4219 30.4609 68.375 29.6641C68.3281 28.8516 68.2891 28.2188 68.2578 27.7656C66.1172 31.0469 64.2891 33.0781 62.7734 33.8594C62.1016 34.2031 61.4219 34.375 60.7344 34.375C59.2031 34.375 58.4375 33.4766 58.4375 31.6797C58.4375 30.6641 58.7266 29.2891 59.3047 27.5547C59.8984 25.8047 60.1953 24.6875 60.1953 24.2031C60.1953 23.7188 60.0547 23.4766 59.7734 23.4766C59.3516 23.4766 58.5156 24.4922 57.2656 26.5234L55.7422 25.6562C58.0391 21.7812 60.1484 19.8438 62.0703 19.8438C62.5859 19.8438 63.0312 20.0391 63.4062 20.4297C63.7969 20.8047 63.9922 21.4297 63.9922 22.3047C63.9922 23.1641 63.6797 24.7578 63.0547 27.0859C62.4297 29.4141 62.1172 30.6484 62.1172 30.7891C62.1172 31.4297 62.3203 31.75 62.7266 31.75C63.1328 31.75 63.7344 31.2344 64.5312 30.2031C65.3438 29.1719 66.125 28.0312 66.875 26.7812C68.8281 23.4688 70.1406 21.8125 70.8125 21.8125C71.2656 21.8125 71.4922 22.4688 71.4922 23.7812ZM94.0391 20.3594H97.6953L95.8438 27.3672C95.5469 28.3516 95.3984 29.25 95.3984 30.0625C95.3984 30.8594 95.5391 31.2578 95.8203 31.2578C96.1016 31.2578 96.4844 31.0156 96.9688 30.5312C97.4688 30.0312 97.8906 29.5312 98.2344 29.0312L98.7734 28.2812L99.7812 29.2188C99.2656 30.2188 98.6094 31.1328 97.8125 31.9609C96.2656 33.5703 94.9219 34.375 93.7812 34.375C92.4375 34.375 91.7656 33.3359 91.7656 31.2578C91.7656 30.9141 91.7812 30.6562 91.8125 30.4844C91.5781 31.2812 91.1328 31.9844 90.4766 32.5938C89.2266 33.7812 87.8125 34.375 86.2344 34.375C84.6719 34.375 83.4141 33.8438 82.4609 32.7812C81.5234 31.7031 81.0547 30.3594 81.0547 28.75C81.0547 26.25 81.8672 24.1406 83.4922 22.4219C85.1172 20.7031 87.0234 19.8438 89.2109 19.8438C90.3047 19.8438 91.2109 20.1484 91.9297 20.7578C92.6484 21.3516 93.1172 22.1328 93.3359 23.1016L94.0391 20.3594ZM90.125 21.8594C89.2188 21.8594 88.3672 22.2422 87.5703 23.0078C86.7891 23.7578 86.1875 24.6719 85.7656 25.75C85.3438 26.8125 85.1328 27.8516 85.1328 28.8672C85.1328 29.8828 85.3516 30.7031 85.7891 31.3281C86.2422 31.9531 86.9297 32.2656 87.8516 32.2656C88.7891 32.2656 89.6328 31.8438 90.3828 31C91.8047 29.375 92.5156 27.4453 92.5156 25.2109C92.5156 22.9766 91.7188 21.8594 90.125 21.8594ZM114.688 31.2578C113.922 32.1797 112.906 32.9297 111.641 33.5078C110.375 34.0859 108.914 34.375 107.258 34.375C105.602 34.375 104.195 33.8828 103.039 32.8984C101.898 31.9141 101.328 30.6641 101.328 29.1484C101.328 28.9766 101.359 28.6562 101.422 28.1875C102.062 23.8906 103.227 19.1875 104.914 14.0781C106.602 8.95312 108.414 5.13281 110.352 2.61719H114.336C113.164 3.92969 111.758 6.71875 110.117 10.9844C108.492 15.25 107.18 19.4531 106.18 23.5938C108.07 21.0938 110.195 19.8438 112.555 19.8438C114.023 19.8438 115.148 20.3438 115.93 21.3438C116.727 22.3281 117.125 23.4609 117.125 24.7422C117.125 26.0234 116.914 27.2031 116.492 28.2812C116.07 29.3438 115.469 30.3359 114.688 31.2578ZM105.453 28.1875C105.328 28.8438 105.266 29.4844 105.266 30.1094C105.266 30.7188 105.492 31.3438 105.945 31.9844C106.398 32.6094 107.094 32.9219 108.031 32.9219C108.969 32.9219 109.828 32.5156 110.609 31.7031C112.109 30.125 112.859 28.0391 112.859 25.4453C112.859 24.3828 112.68 23.5156 112.32 22.8438C111.961 22.1562 111.406 21.8125 110.656 21.8125C109.906 21.8125 108.969 22.4141 107.844 23.6172C106.734 24.8203 105.938 26.3438 105.453 28.1875ZM148.438 32.9219C146.922 33.5781 145.375 34.0469 143.797 34.3281C142.234 34.625 140.75 34.7734 139.344 34.7734C137.953 34.7734 136.695 34.6953 135.57 34.5391C134.461 34.3984 133.352 34.1484 132.242 33.7891C131.148 33.4141 130.203 32.9375 129.406 32.3594C127.625 31.0938 126.734 29.3047 126.734 26.9922C126.734 25.6172 127.055 24.3359 127.695 23.1484C128.336 21.9453 129.172 20.9531 130.203 20.1719C132.391 18.4844 134.781 17.6406 137.375 17.6406C140.484 17.6406 142.797 18.5547 144.312 20.3828C145.062 21.3047 145.438 22.4219 145.438 23.7344C145.438 25.0469 144.812 26.1875 143.562 27.1562C142.328 28.1094 141.023 28.5859 139.648 28.5859C139.32 28.5859 139.156 28.4219 139.156 28.0938C139.156 27.75 139.312 27.5078 139.625 27.3672C139.938 27.2109 140.312 27.0703 140.75 26.9453C141.188 26.8047 141.625 26.6406 142.062 26.4531C143.141 25.9688 143.68 25.1875 143.68 24.1094C143.68 23.0156 143.18 22.1953 142.18 21.6484C141.195 21.0859 139.477 20.8047 137.023 20.8047C134.57 20.8047 132.672 21.4297 131.328 22.6797C129.984 23.9141 129.312 25.3906 129.312 27.1094C129.312 29.375 130.32 30.9844 132.336 31.9375C134.133 32.7969 136.281 33.2266 138.781 33.2266C143.078 33.2266 146.555 32 149.211 29.5469C151.086 27.8281 152.023 25.6641 152.023 23.0547C152.023 21.4922 151.469 19.9766 150.359 18.5078C149.875 17.8516 149.336 17.2031 148.742 16.5625C148.148 15.9219 147.555 15.2812 146.961 14.6406C146.367 14 145.828 13.3594 145.344 12.7188C144.234 11.3125 143.68 10 143.68 8.78125C143.68 7.5625 143.875 6.51562 144.266 5.64062C144.672 4.75 145.203 3.98437 145.859 3.34375C146.531 2.6875 147.297 2.125 148.156 1.65625C149.891 0.6875 151.727 0.203125 153.664 0.203125C155.352 0.203125 156.922 0.609375 158.375 1.42188C159.969 2.29687 160.766 3.63281 160.766 5.42969C160.766 6.13281 160.516 6.75 160.016 7.28125C159.516 7.8125 158.953 8.07812 158.328 8.07812C157.703 8.07812 157.188 7.89844 156.781 7.53906C156.391 7.17969 156.195 6.78125 156.195 6.34375C156.195 5.89063 156.383 5.41406 156.758 4.91406C157.148 4.39844 157.344 3.97656 157.344 3.64844C157.344 3.30469 157.203 2.99219 156.922 2.71094C156.641 2.42969 156.281 2.21875 155.844 2.07812C154.969 1.8125 154.172 1.67969 153.453 1.67969C151.797 1.67969 150.375 2.17188 149.188 3.15625C148 4.14062 147.406 5.50781 147.406 7.25781C147.406 8.21094 148 9.32812 149.188 10.6094C149.719 11.1719 150.297 11.7734 150.922 12.4141C151.562 13.0391 152.203 13.7109 152.844 14.4297C153.484 15.1484 154.07 15.8906 154.602 16.6562C155.789 18.3438 156.383 20.0938 156.383 21.9062C156.383 23.7188 156.023 25.3594 155.305 26.8281C154.586 28.2969 153.641 29.5156 152.469 30.4844C151.312 31.4375 149.969 32.25 148.438 32.9219ZM171.242 20.3594H174.898L173.047 27.3672C172.75 28.3516 172.602 29.25 172.602 30.0625C172.602 30.8594 172.742 31.2578 173.023 31.2578C173.305 31.2578 173.688 31.0156 174.172 30.5312C174.672 30.0312 175.094 29.5312 175.438 29.0312L175.977 28.2812L176.984 29.2188C176.469 30.2188 175.812 31.1328 175.016 31.9609C173.469 33.5703 172.125 34.375 170.984 34.375C169.641 34.375 168.969 33.3359 168.969 31.2578C168.969 30.9141 168.984 30.6562 169.016 30.4844C168.781 31.2812 168.336 31.9844 167.68 32.5938C166.43 33.7812 165.016 34.375 163.438 34.375C161.875 34.375 160.617 33.8438 159.664 32.7812C158.727 31.7031 158.258 30.3594 158.258 28.75C158.258 26.25 159.07 24.1406 160.695 22.4219C162.32 20.7031 164.227 19.8438 166.414 19.8438C167.508 19.8438 168.414 20.1484 169.133 20.7578C169.852 21.3516 170.32 22.1328 170.539 23.1016L171.242 20.3594ZM167.328 21.8594C166.422 21.8594 165.57 22.2422 164.773 23.0078C163.992 23.7578 163.391 24.6719 162.969 25.75C162.547 26.8125 162.336 27.8516 162.336 28.8672C162.336 29.8828 162.555 30.7031 162.992 31.3281C163.445 31.9531 164.133 32.2656 165.055 32.2656C165.992 32.2656 166.836 31.8438 167.586 31C169.008 29.375 169.719 27.4453 169.719 25.2109C169.719 22.9766 168.922 21.8594 167.328 21.8594ZM188.352 31.8438C188.352 31.0312 188.68 29.7266 189.336 27.9297C189.992 26.1328 190.32 24.8516 190.32 24.0859C190.32 23.3047 190.047 22.9141 189.5 22.9141C188.969 22.9141 188.32 23.2969 187.555 24.0625C186.789 24.8125 186.055 25.7344 185.352 26.8281C184.195 28.5938 183.031 30.6094 181.859 32.875L181.25 34H177.875C178.641 28.3438 179.375 24.1562 180.078 21.4375C180.781 18.7188 181.453 16.3984 182.094 14.4766C182.734 12.5547 183.422 10.8516 184.156 9.36719C185.812 5.96094 187.719 3.4375 189.875 1.79688L191.656 2.61719C189.984 4.28906 188.445 7.23438 187.039 11.4531C185.648 15.6562 184.102 21.4609 182.398 28.8672C182.492 28.7109 182.68 28.3828 182.961 27.8828C183.258 27.3672 183.484 26.9844 183.641 26.7344C183.797 26.4688 184.031 26.0781 184.344 25.5625C184.672 25.0469 184.945 24.6406 185.164 24.3438C185.383 24.0312 185.664 23.6484 186.008 23.1953C186.367 22.7422 186.68 22.3828 186.945 22.1172C187.227 21.8359 187.555 21.5391 187.93 21.2266C188.305 20.8984 188.664 20.6406 189.008 20.4531C189.805 20.0469 190.656 19.8438 191.562 19.8438C192.469 19.8438 193.148 20.0938 193.602 20.5938C194.07 21.0938 194.305 21.7656 194.305 22.6094C194.305 23.4531 193.914 24.875 193.133 26.875C192.352 28.8594 191.961 30.0859 191.961 30.5547C191.961 31.0234 192.086 31.2578 192.336 31.2578C192.992 31.2578 193.984 30.2656 195.312 28.2812L196.32 29.2188C195.32 30.9375 194.273 32.2266 193.18 33.0859C192.102 33.9453 191.211 34.375 190.508 34.375C189.82 34.375 189.289 34.1562 188.914 33.7188C188.539 33.2812 188.352 32.6562 188.352 31.8438ZM210.523 20.3594H214.18L212.328 27.3672C212.031 28.3516 211.883 29.25 211.883 30.0625C211.883 30.8594 212.023 31.2578 212.305 31.2578C212.586 31.2578 212.969 31.0156 213.453 30.5312C213.953 30.0312 214.375 29.5312 214.719 29.0312L215.258 28.2812L216.266 29.2188C215.75 30.2188 215.094 31.1328 214.297 31.9609C212.75 33.5703 211.406 34.375 210.266 34.375C208.922 34.375 208.25 33.3359 208.25 31.2578C208.25 30.9141 208.266 30.6562 208.297 30.4844C208.062 31.2812 207.617 31.9844 206.961 32.5938C205.711 33.7812 204.297 34.375 202.719 34.375C201.156 34.375 199.898 33.8438 198.945 32.7812C198.008 31.7031 197.539 30.3594 197.539 28.75C197.539 26.25 198.352 24.1406 199.977 22.4219C201.602 20.7031 203.508 19.8438 205.695 19.8438C206.789 19.8438 207.695 20.1484 208.414 20.7578C209.133 21.3516 209.602 22.1328 209.82 23.1016L210.523 20.3594ZM206.609 21.8594C205.703 21.8594 204.852 22.2422 204.055 23.0078C203.273 23.7578 202.672 24.6719 202.25 25.75C201.828 26.8125 201.617 27.8516 201.617 28.8672C201.617 29.8828 201.836 30.7031 202.273 31.3281C202.727 31.9531 203.414 32.2656 204.336 32.2656C205.273 32.2656 206.117 31.8438 206.867 31C208.289 29.375 209 27.4453 209 25.2109C209 22.9766 208.203 21.8594 206.609 21.8594ZM231.172 31.2578C230.406 32.1797 229.391 32.9297 228.125 33.5078C226.859 34.0859 225.398 34.375 223.742 34.375C222.086 34.375 220.68 33.8828 219.523 32.8984C218.383 31.9141 217.812 30.6641 217.812 29.1484C217.812 28.9766 217.844 28.6562 217.906 28.1875C218.547 23.8906 219.711 19.1875 221.398 14.0781C223.086 8.95312 224.898 5.13281 226.836 2.61719H230.82C229.648 3.92969 228.242 6.71875 226.602 10.9844C224.977 15.25 223.664 19.4531 222.664 23.5938C224.555 21.0938 226.68 19.8438 229.039 19.8438C230.508 19.8438 231.633 20.3438 232.414 21.3438C233.211 22.3281 233.609 23.4609 233.609 24.7422C233.609 26.0234 233.398 27.2031 232.977 28.2812C232.555 29.3438 231.953 30.3359 231.172 31.2578ZM221.938 28.1875C221.812 28.8438 221.75 29.4844 221.75 30.1094C221.75 30.7188 221.977 31.3438 222.43 31.9844C222.883 32.6094 223.578 32.9219 224.516 32.9219C225.453 32.9219 226.312 32.5156 227.094 31.7031C228.594 30.125 229.344 28.0391 229.344 25.4453C229.344 24.3828 229.164 23.5156 228.805 22.8438C228.445 22.1562 227.891 21.8125 227.141 21.8125C226.391 21.8125 225.453 22.4141 224.328 23.6172C223.219 24.8203 222.422 26.3438 221.938 28.1875ZM246.875 20.3594C248.484 15.3594 250.125 11.1719 251.797 7.79688L254.703 8.03125C254.531 8.53125 254.109 9.73438 253.438 11.6406C251.984 15.8438 251.047 18.75 250.625 20.3594H254.305L253.93 21.9062H250.133C248.695 26.3438 247.977 29.0469 247.977 30.0156C247.977 30.9688 248.07 31.4453 248.258 31.4453C248.461 31.4453 248.641 31.4062 248.797 31.3281C249.219 31.0938 250.125 29.9531 251.516 27.9062L252.477 28.7734C251.43 30.6797 250.352 32.0938 249.242 33.0156C248.133 33.9219 247.219 34.375 246.5 34.375C245.781 34.375 245.234 34.125 244.859 33.625C244.5 33.125 244.32 32.4844 244.32 31.7031C244.32 29.7188 245.016 26.4531 246.406 21.9062H243.945L244.32 20.3594H246.875ZM254.211 28.4219C254.211 27.25 254.492 26.125 255.055 25.0469C255.633 23.9531 256.375 23.0312 257.281 22.2812C259.281 20.6562 261.32 19.8438 263.398 19.8438C265.477 19.8438 267.18 20.3984 268.508 21.5078C269.836 22.6172 270.5 24.0078 270.5 25.6797C270.5 27.3359 270.039 28.8281 269.117 30.1562C268.211 31.4844 267.008 32.5234 265.508 33.2734C264.008 34.0078 262.367 34.375 260.586 34.375C258.82 34.375 257.312 33.8203 256.062 32.7109C254.828 31.5859 254.211 30.1562 254.211 28.4219ZM261.875 32.9219C262.594 32.9219 263.266 32.6875 263.891 32.2188C264.531 31.75 265.016 31.1406 265.344 30.3906C265.984 28.9531 266.305 27.4688 266.305 25.9375C266.305 24.4062 266.023 23.25 265.461 22.4688C264.898 21.6719 264.102 21.2734 263.07 21.2734C262.039 21.2734 261.016 21.9453 260 23.2891C259 24.6328 258.5 26.3438 258.5 28.4219C258.5 31.4219 259.625 32.9219 261.875 32.9219ZM290.938 20.3594C288.844 25.9375 287.797 29.3203 287.797 30.5078C287.797 31.0078 287.922 31.2578 288.172 31.2578C288.859 31.2578 289.859 30.2578 291.172 28.2578L292.18 29.2188C291.352 30.7031 290.367 31.9375 289.227 32.9219C288.102 33.8906 287.188 34.375 286.484 34.375C285.031 34.375 284.305 33.6406 284.305 32.1719C284.305 31.0312 284.57 29.6406 285.102 28C285.633 26.3594 285.898 25.5312 285.898 25.5156C285.82 25.6562 285.633 25.9844 285.336 26.5C285.039 27 284.82 27.375 284.68 27.625C284.539 27.875 284.305 28.2578 283.977 28.7734C283.664 29.2734 283.398 29.6719 283.18 29.9688C282.977 30.25 282.695 30.6172 282.336 31.0703C281.992 31.5234 281.68 31.8828 281.398 32.1484C281.133 32.4141 280.812 32.7109 280.438 33.0391C280.062 33.3516 279.703 33.5938 279.359 33.7656C278.578 34.1719 277.812 34.375 277.062 34.375C275.203 34.375 274.273 33.3516 274.273 31.3047C274.273 30.3672 274.609 28.9141 275.281 26.9453C275.953 24.9609 276.289 23.7969 276.289 23.4531C276.289 23.0938 276.18 22.9141 275.961 22.9141C275.336 22.9141 274.469 23.9062 273.359 25.8906L271.836 24.9766C273.977 21.5547 276.039 19.8438 278.023 19.8438C278.68 19.8438 279.203 20.0312 279.594 20.4062C279.984 20.7656 280.164 21.3281 280.133 22.0938C280.117 22.8438 279.734 24.1953 278.984 26.1484C278.25 28.0859 277.883 29.5703 277.883 30.6016C277.883 31.1641 278.141 31.4453 278.656 31.4453C279.25 31.4453 279.953 31.0703 280.766 30.3203C281.594 29.5547 282.391 28.625 283.156 27.5312C284.375 25.8125 285.641 23.7969 286.953 21.4844L287.586 20.3594H290.938ZM306.289 22.9141C305.695 22.9141 304.992 23.2969 304.18 24.0625C303.367 24.8125 302.578 25.7344 301.812 26.8281C300.594 28.5781 299.352 30.5938 298.086 32.875L297.453 34H294.148C294.148 34 294.391 33.2656 294.875 31.7969C296.234 27.7344 296.914 25.3281 296.914 24.5781C296.914 23.8125 296.789 23.4297 296.539 23.4297C296.086 23.4297 295.547 23.9688 294.922 25.0469C294.781 25.2969 294.664 25.5 294.57 25.6562C294.477 25.7969 294.367 25.9766 294.242 26.1953C294.133 26.3984 294.062 26.5234 294.031 26.5703L292.461 25.6562C293.68 23.6719 294.797 22.2109 295.812 21.2734C296.828 20.3203 297.867 19.8438 298.93 19.8438C299.414 19.8438 299.828 20.0469 300.172 20.4531C300.531 20.8594 300.711 21.3438 300.711 21.9062C300.711 22.4531 300.68 22.9453 300.617 23.3828C300.555 23.8047 300.484 24.1953 300.406 24.5547C300.328 24.9141 300.219 25.3438 300.078 25.8438C299.938 26.3438 299.82 26.7266 299.727 26.9922C299.648 27.2578 299.539 27.6172 299.398 28.0703C299.258 28.5234 299.172 28.7891 299.141 28.8672C299.422 28.3047 299.898 27.4766 300.57 26.3828C301.242 25.2891 301.68 24.6016 301.883 24.3203C302.086 24.0391 302.367 23.6641 302.727 23.1953C303.086 22.7266 303.398 22.3672 303.664 22.1172C303.945 21.8516 304.273 21.5547 304.648 21.2266C305.039 20.8828 305.406 20.625 305.75 20.4531C306.625 20.0469 307.469 19.8438 308.281 19.8438C309.094 19.8438 309.742 20.0859 310.227 20.5703C310.727 21.0391 310.977 21.5938 310.977 22.2344C310.977 22.8594 310.773 23.4141 310.367 23.8984C309.977 24.3672 309.516 24.6016 308.984 24.6016C308.469 24.6016 308.062 24.5156 307.766 24.3438C307.469 24.1562 307.266 23.9609 307.156 23.7578C306.828 23.1953 306.539 22.9141 306.289 22.9141ZM313.508 33.8359C312.492 33.4766 311.766 33.0547 311.328 32.5703C310.891 32.0703 310.672 31.5234 310.672 30.9297C310.672 30.3359 310.836 29.8438 311.164 29.4531C311.492 29.0625 311.922 28.8672 312.453 28.8672C313 28.8672 313.477 29.0312 313.883 29.3594C314.305 29.6719 314.516 30.125 314.516 30.7188C314.516 31.2969 314.156 31.7812 313.438 32.1719C314.031 32.6875 314.938 32.9453 316.156 32.9453C318.797 32.9453 320.117 32.1953 320.117 30.6953C320.117 29.7578 319.281 29.0078 317.609 28.4453C316.922 28.2109 316.227 27.9609 315.523 27.6953C314.836 27.4297 314.234 27.0391 313.719 26.5234C313.203 26.0078 312.922 25.3828 312.875 24.6484C312.875 23.5859 313.227 22.6875 313.93 21.9531C315.258 20.5469 317.242 19.8438 319.883 19.8438C321.18 19.8438 322.328 20.0938 323.328 20.5938C324.328 21.0781 324.828 21.7109 324.828 22.4922C324.828 23.2734 324.625 23.8359 324.219 24.1797C323.828 24.5234 323.367 24.6953 322.836 24.6953C322.305 24.6953 321.852 24.5547 321.477 24.2734C321.117 23.9766 320.938 23.5703 320.938 23.0547C320.938 22.5391 321.242 22.0938 321.852 21.7188C321.477 21.4531 320.828 21.3203 319.906 21.3203C318.984 21.3203 318.156 21.4609 317.422 21.7422C316.688 22.0078 316.32 22.375 316.32 22.8438C316.32 23.3125 316.586 23.7031 317.117 24.0156C317.664 24.3281 318.32 24.6172 319.086 24.8828C319.852 25.1484 320.617 25.4531 321.383 25.7969C322.148 26.1406 322.797 26.6328 323.328 27.2734C323.875 27.9141 324.148 28.7031 324.148 29.6406C324.148 30.5781 323.766 31.4297 323 32.1953C321.547 33.6484 319.562 34.375 317.047 34.375C315.719 34.375 314.539 34.1953 313.508 33.8359Z" fill="#695C5C"/>
</svg>
