<svg width="633" height="242" viewBox="0 0 633 242" fill="none" xmlns="http://www.w3.org/2000/svg">
<path d="M-354.092 36.6982C-355.62 38.213 -351.976 40.2347 -356.561 42.8717C-364.044 47.1718 -374.098 48.7639 -378.454 58.5606C-383.085 68.9756 -388.916 68.8642 -395.035 58.7306C-399.004 52.1552 -404.242 47.4439 -411.669 46.0497C-417.327 44.9893 -418.791 42.1792 -418.361 36.9362C-418.153 34.4322 -416.78 30.404 -420.467 29.7054C-423.539 29.1211 -425.952 34.0241 -425.81 35.1865C-424.535 45.7591 -432.025 47.1317 -439.233 50.3374C-446.589 53.6082 -450.135 60.5484 -449.296 69.0467L-449.513 68.9323C-443.929 70.3513 -445.677 65.1824 -444.6 63.0307C-439.094 52.0408 -427.979 45.79 -418.447 52.6684C-409.111 59.4045 -398.017 65.2875 -391.839 76.0333C-388.319 82.1543 -392.464 84.6428 -397.238 86.1051C-399.836 86.8996 -402.831 86.4018 -405.649 86.4884C-405.649 87.5054 -405.649 88.5225 -405.649 89.5396C-404.05 94.0994 -395.802 87.0572 -396.381 94.5106C-396.901 101.216 -398.624 107.831 -399.815 114.484C-403.097 109.158 -403.348 99.0117 -411.768 103.531C-420.777 108.366 -413.538 116.531 -410.942 123.712C-416.474 123.928 -419.44 122.08 -419.249 116.249C-419.146 113.109 -419.307 109.937 -419.638 106.811C-419.839 104.929 -420.6 103.102 -423.026 102.993C-426.076 102.857 -426.645 104.898 -426.716 107.29C-426.809 110.444 -426.818 113.597 -426.899 116.747C-426.942 118.478 -427.524 119.925 -429.565 119.783C-431.746 119.631 -431.889 118.185 -431.323 116.447C-430.209 113.031 -430.525 109.615 -431.276 106.178C-431.876 103.426 -431.978 100.128 -435.691 99.8741C-440.031 99.5773 -439.858 103.411 -441.216 106.178C-443.18 110.169 -438.546 117.823 -443.762 117.662C-447.564 117.548 -445.497 108.969 -445.618 104.298C-445.732 99.8927 -450.11 94.291 -443.459 90.8534C-444.096 88.9831 -444.733 87.1098 -445.367 85.2395C-457.68 89.7004 -471.52 88.1145 -483.396 94.6466C-475.236 97.1074 -467.539 93.9078 -459.74 93.0515C-454.234 92.4487 -452.925 93.9789 -453.936 99.0426C-454.611 102.421 -455.301 105.946 -455.035 109.331C-454.509 116.005 -456.34 119.199 -463.805 118.373C-469.169 117.78 -472.885 119.474 -470.976 126.64C-469.562 131.941 -473.216 137.716 -470.716 143.262C-469.974 144.208 -468.588 145.148 -468.581 146.097C-468.458 162.534 -468.461 178.974 -468.606 195.411C-468.615 196.329 -470.069 197.235 -470.852 198.147C-481.655 206.729 -475.477 217.388 -474.521 227.756C-493.438 228.965 -512.089 233.741 -531.272 233.664C-539.95 238.202 -548.785 237.241 -557.676 234.437C-560.472 233.76 -563.254 233.67 -565.778 235.235C-567.322 236.193 -569.561 237.417 -568.871 239.362C-567.878 242.156 -565.373 240.765 -563.377 240.246C-560.701 236.87 -556.93 238.249 -553.639 238.246C-339.274 238.178 -124.906 238.171 89.459 238.246C93.0723 238.246 97.1342 236.814 100.228 240.159C102.774 241.065 105.32 241.118 107.869 240.181C109.672 237.736 112.348 238.199 114.817 238.196C153.072 238.162 191.33 238.147 229.585 238.181C232.304 238.184 235.444 237.38 237.028 240.79C238.516 242.839 239.8 241.971 241.04 240.505C243.481 236.731 247.326 238.23 250.571 238.227C316.981 238.141 383.39 238.147 449.8 238.218C453.125 238.221 456.841 236.997 459.637 240.094C463.442 240.873 467.253 241.062 471.065 240.141C474.857 237.337 478.653 237.225 482.449 240.134C484.992 241.04 487.535 240.938 490.078 240.125C492.206 237.442 495.232 238.199 497.979 238.196C537.728 238.171 577.477 238.184 617.226 238.236C619.97 238.239 622.999 237.491 625.121 240.181C626.367 240.181 627.617 240.181 628.864 240.181C628.787 237.346 630.862 236.694 633 236.1C625.838 232.959 618.089 233.766 610.606 232.898C601.263 231.816 591.676 232.987 582.569 229.605C580.843 228.965 578.81 228.993 576.92 228.987C567.782 228.953 567.646 228.161 567.605 218.204C567.494 190.66 566.854 163.118 566.433 135.577C566.328 128.658 561.885 124.658 556.199 122.667C552.892 121.508 552.484 120.163 552.657 117.371C552.88 113.779 554.173 110.097 551.967 105.871C548.834 111.374 545.984 116.376 542.152 123.103C541.817 116.546 541.762 111.513 541.233 106.536C540.902 103.414 540.172 99.7721 535.878 100.091C532.317 100.353 531.674 103.448 531.491 106.425C531.123 112.401 529.957 118.42 532.19 124.281C532.806 125.898 535.114 127.465 532.92 129.15C531.398 130.318 529.341 129.901 527.612 128.831C525.787 127.7 523.33 126.943 524.831 123.931C526.86 119.857 526.99 115.378 527.593 111C528.042 107.763 527.049 105.38 523.652 104.487C520.292 103.602 517.982 105.17 516.862 108.107C515.29 112.224 513.873 116.441 512.871 120.729C511.538 126.417 507.686 123.857 504.667 123.326C504.113 123.23 503.856 120.627 503.739 119.155C503.631 117.817 504.75 117.752 505.474 118.342C511.615 123.344 510.866 116.497 511.485 114.345C513.044 108.941 513.245 103.16 508.565 99.0085C507.337 97.9204 504.76 97.8617 504.955 95.6173C505.255 92.1271 508.37 93.9232 510.173 93.4873C513.53 92.6805 517.007 92.3744 520.435 91.8613C519.714 87.3076 509.199 93.8552 513.047 84.7664C512.401 83.1496 511.754 81.5298 511.111 79.913C499.989 79.5575 488.868 79.0628 477.744 78.9763C475.739 78.9608 472.686 80.8899 474.567 83.3475C477.122 86.6924 477.106 93.24 483.618 92.3187C486.325 91.9354 490.124 91.1285 491.21 89.2428C492.992 86.1421 494.931 84.819 497.833 86.0123C501.784 87.6353 497.997 90.2537 497.929 92.3589C497.641 100.87 496.769 109.355 496.324 117.863C496.138 121.437 495.68 123.372 491.037 123.239C467.683 122.565 444.318 122.349 420.955 122.027C418.128 121.987 414.997 121.295 416.436 118.067C419.808 110.509 416.228 104.227 413.958 97.5989C413.608 97.0764 413.262 96.554 412.912 96.0316C413.62 96.1676 414.326 96.3036 415.034 96.4427C422.75 98.1863 426.858 105.142 433.611 108.787C430.193 98.8324 425.073 90.1053 416.024 84.3398C409.602 80.2468 404.696 77.3347 406.375 67.1392C408.745 52.7704 391.078 32.5031 373.522 27.3003C365.472 24.9137 357.841 20.1993 348.95 21.1267C344.928 21.5472 346.268 18.6783 346.057 16.7586C345.544 12.0504 345.176 7.32358 344.541 2.63082C344.312 0.933638 342.988 -0.253458 341.172 0.046409C339.31 0.35555 338.524 1.9229 339.035 3.60462C342.741 15.8219 339.304 19.9861 325.64 20.4961C314.54 20.9104 304.455 26.8304 296.56 37.4926C292.235 43.3354 284.211 52.2139 272.134 48.6928C267.221 47.2615 264.165 46.8998 263.88 41.3075C263.747 38.72 262.349 36.0243 259.212 36.4323C256.081 36.8373 256.081 39.7772 255.766 42.3523C255.45 44.9305 257.445 49.5121 253.919 49.5832C250.086 49.6636 246.528 46.2414 244.92 42.2689C243.323 38.3243 244.211 33.4677 240.743 30.0888C240.035 30.4443 239.116 30.6946 239.119 30.9327C239.299 45.1686 226.408 46.9524 218.018 52.9095C214.875 55.1415 212.267 53.3083 209.805 50.727C205.746 46.4732 194.433 49.5028 193.124 55.0116C193.003 55.5217 193.279 56.6223 193.421 56.6316C198.912 56.9593 198.742 59.2284 195.54 62.6011C191.785 57.93 186.779 70.4656 181.641 60.4463C175.296 48.0745 162.495 41.7217 148.639 38.7911C145.245 38.0739 141.845 37.3938 138.449 36.6982C136.951 36.6735 135.454 36.6456 133.954 36.6178C124.642 36.1386 115.661 37.9533 107.006 41.1096C103.402 42.4235 101.459 41.8547 99.0336 38.8436C92.899 31.2264 85.5581 28.8862 74.9874 27.4177C61.4562 25.5382 50.8236 25.2971 40.5221 34.191C38.9196 35.576 37.8183 33.8108 36.4324 33.4058C27.755 30.874 18.8888 22.4282 10.3846 34.1044C9.37921 35.4863 6.31659 35.7893 4.18201 35.8604C-6.599 36.219 -12.5448 42.9335 -13.5718 52.3314C-14.7257 62.8916 -21.1727 62.1033 -27.4279 60.2485C-32.9716 58.6069 -37.2901 59.553 -41.6644 62.3105C-43.4927 63.4636 -45.5159 65.2597 -44.1795 67.739C-43.0968 69.7484 -40.8416 68.9292 -39.0319 68.5181C-35.434 67.7019 -31.9105 66.2273 -28.0435 67.3402C-33.8842 76.6299 -40.7952 83.3259 -53.0457 80.5436C-56.1454 79.8387 -57.355 79.1432 -57.0364 75.8632C-55.9041 64.1158 -45.2715 58.3133 -40.294 48.9649C-39.3164 47.1286 -37.9181 49.6233 -36.6776 50.2571C-33.0241 52.1243 -30.4039 56.2142 -25.0273 55.2775C-36.2662 48.1549 -40.8571 35.4245 -50.5956 27.0158C-58.8616 19.8778 -68.7516 19.3739 -78.5675 17.8746C-80.6804 20.2518 -82.6139 20.1065 -84.3679 17.4603C-116.445 6.22612 -154.79 22.3107 -171.077 53.8647C-172.38 56.3873 -172.952 59.4663 -174.74 61.5252C-179.198 66.6631 -179.971 70.4903 -172.076 72.0855C-180.463 83.4557 -190.127 79.6811 -200.336 76.398C-213.629 72.1226 -222.229 80.6673 -230.13 90.1054C-228.054 89.1223 -225.975 88.1392 -223.9 87.1592C-222.99 86.813 -222.084 86.4698 -221.177 86.1236C-220.794 85.6969 -220.255 84.8437 -220.051 84.9148C-218.455 85.4929 -219.609 86.2442 -220.036 86.9336C-220.605 87.6291 -221.171 88.3308 -221.737 89.0295C-227.541 96.5818 -231.974 104.375 -225.533 114.067C-220.602 108.301 -224.091 99.803 -219.46 93.5986C-214.798 87.3508 -211.791 79.5543 -202.174 79.6131C-200.726 79.6224 -197.954 79.4863 -198.557 81.0753C-202.613 91.7252 -193.106 87.5363 -190.022 88.1762C-181.83 89.8703 -178.183 94.2014 -178.158 102.715C-186.288 90.5752 -197.146 92.9927 -207.451 97.2959C-213.876 99.9793 -211.259 107.426 -209.703 111.353C-206.579 119.226 -209.747 119.226 -215.677 118.605C-222.6 117.882 -229.552 117.328 -236.503 117.053C-241.047 116.874 -245.208 116.781 -249.994 119.09C-256.394 122.179 -264.091 120.052 -270.275 116.16C-271.977 115.087 -273.551 114.187 -275.16 114.432C-287.064 116.237 -298.949 114.024 -310.835 114.484C-311.466 114.509 -312.23 114.32 -312.703 114.608C-315.064 116.042 -316.638 120.287 -320.171 117.486C-322.105 115.953 -320.629 112.645 -319.549 111.501C-316.638 108.422 -312.428 102.919 -309.248 104.845C-304.437 107.76 -304.329 105.599 -304.069 102.471C-303.747 98.6129 -298.723 96.251 -300.886 91.7592C-304.539 93.9634 -308.672 93.2184 -312.611 93.6605C-310.745 95.6359 -312.233 96.8384 -313.681 97.9668C-313.82 98.075 -314.844 97.4103 -314.813 97.3175C-314.343 95.9202 -314.222 94.2385 -312.372 93.7934C-309.393 88.3154 -305.529 88.065 -300.976 91.8613C-294.365 92.3188 -287.853 92.4177 -282.492 87.4869C-281.845 86.8933 -280.304 86.1793 -280.026 86.4389C-270.39 95.3391 -252.487 88.0063 -246.192 103.816C-244.794 107.324 -241.301 110.005 -237.907 112.533C-237.174 102.823 -241.279 95.2433 -248.045 89.0667C-250.903 86.4575 -252.744 84.6181 -250.588 80.4385C-249.029 77.4151 -249.069 74.3206 -252.923 71.526C-258.572 67.4299 -254.331 59.825 -257.434 54.0441C-258.597 51.877 -251.649 49.2647 -247.887 47.8087C-224.961 38.9333 -205.276 47.008 -186.545 59.7662C-184.744 60.9935 -183.08 62.4249 -181.261 63.6243C-180.921 63.85 -180.151 63.4203 -178.591 63.0771C-180.014 57.1602 -184.135 53.2464 -188.475 50.0406C-207.702 35.8387 -241.511 26.7346 -262.08 45.8117C-267.751 51.0732 -270.823 47.1441 -275.089 45.7313C-275.605 45.5613 -276.305 45.0047 -276.366 44.5503C-276.979 40.2532 -277.446 36.3024 -282.844 41.394C-286.371 44.7203 -286.705 47.7592 -283.191 51.0609C-281.777 52.3902 -282.343 53.9451 -282.294 55.4568C-281.814 55.9298 -281.335 56.3997 -280.855 56.8727C-279.166 56.0999 -276.462 55.191 -277.007 58.0134C-277.978 63.0401 -280.091 67.9832 -283.72 71.7454C-284.815 72.88 -287.197 71.7671 -287.475 69.4053C-287.543 68.821 -287.283 68.1996 -287.175 67.5937C-287.747 66.895 -288.32 66.1933 -288.889 65.4947C-289.864 67.1146 -290.758 68.7901 -291.837 70.3389C-293.081 72.1195 -293.693 76.3918 -296.366 74.3051C-298.235 72.846 -304.013 70.6634 -299.45 65.5626C-297.22 63.0647 -296.19 59.4973 -294.615 56.4152C-295.219 55.6763 -295.825 54.9375 -296.428 54.1956C-301.214 59.4881 -302.51 67.3928 -310.485 72.3576C-307.961 65.5874 -305.947 60.1805 -303.933 54.7767C-304.626 54.0626 -305.319 53.3485 -306.015 52.6344C-308.74 57.6672 -311.466 62.6969 -314.816 68.8828C-317.603 60.808 -309.171 56.4585 -312.44 50.1025C-318.946 56.4677 -319.75 66.0789 -325.232 72.877C-328.635 77.0998 -325.517 71.223 -326.767 71.5136C-330.535 63.3708 -326.547 51.3824 -319.057 48.3435C-318.702 47.8458 -318.321 47.3666 -317.993 46.8504C-316.567 44.6215 -317.771 39.4588 -313.273 40.7479C-307.791 42.3184 -313.152 45.7498 -312.911 48.3404C-312.858 48.9154 -312.561 49.4657 -312.375 50.0283C-306.086 46.6092 -306.643 39.3568 -303.964 33.9809C-303.528 33.1029 -308.907 29.7332 -312.397 31.4304C-316.524 33.4367 -316.487 31.0439 -316.49 28.24C-316.502 17.3892 -317.037 17.3553 -326.804 19.3616C-331.299 20.2859 -336.286 18.8174 -341.05 18.4341C-341.115 19.7572 -341.18 21.0773 -341.244 22.4004C-343.215 27.3127 -344.951 32.4814 -351.772 32.1847C-352.542 33.684 -353.319 35.1927 -354.092 36.6982ZM550.928 194.465C550.739 194.694 550.572 194.954 550.343 195.133C550.284 195.179 549.873 194.926 549.885 194.885C550.133 194.054 550.535 193.989 551.045 194.678C550.331 189.275 551.649 184.61 556.001 179.048C556.434 186.325 557.31 191.769 550.928 194.465ZM47.2599 38.9209L46.7896 38.8282L47.4114 39.0909C49.8646 31.5139 55.8475 30.9636 62.4647 31.6931C57.7501 34.8186 53.6171 39.1435 47.2599 38.9209ZM204.614 53.5061L204.904 53.6669L204.434 53.6143C203.806 64.5548 199.481 74.5092 196.242 84.7541C199.747 74.5277 197.774 62.8144 204.614 53.5061ZM528.203 209.601C523.801 207.192 523.061 212.129 520.512 213.434C520.815 215.545 519.247 218.325 518.26 217.777C516.265 216.674 512.296 217.116 512.679 213.066C510.724 214.652 508.602 214.225 507.015 212.831C504.642 210.744 507.457 209.662 508.444 208.543C512.506 203.931 516.75 199.476 521.422 194.431C522.244 198.357 523.609 201.016 521.78 203.727C522.962 203.863 524.144 204.002 525.326 204.138C529.759 199.266 535.751 195.64 537.672 188.752C534.229 187.117 533.787 193.238 530.195 191.84C531.454 186.814 532.645 182.059 533.836 177.302C529.975 172.751 533.035 170.08 536.323 167.115C542.39 161.64 548.985 156.574 552.58 148.786C546.943 152.308 541.929 156.462 537.196 160.914C532.002 165.802 525.824 167.848 518.885 168.151C518.368 169.96 517.858 171.771 517.338 173.576C516.614 176.09 518.164 179.546 514.486 180.767C514.028 180.919 512.911 179.935 512.497 179.243C510.65 176.161 510.944 173.27 513.666 170.779C515.052 169.511 516.478 168.284 517.886 167.041C518.495 164.97 522.9 163.78 520.101 161.189C518.139 159.374 516.589 162.593 514.888 163.622C511.927 165.412 509.898 170.912 505.292 165.972C504.549 165.162 503.804 164.352 503.061 163.542C497.471 160.713 501.542 158.302 503.123 155.368C504.574 152.675 510.746 152.091 507.132 147.018C503.804 145.271 503.259 151.729 498.084 148.805C503.924 144.857 507.222 138.94 514.804 139.358C519.451 140.254 522.928 132.999 528.085 137.463C528.784 138.198 529.48 138.937 530.179 139.673C533.344 137.082 536.571 137.011 540.543 138.783C533.929 146.53 525.514 151.507 521.777 160.608C526.306 158.255 529.434 154.19 533.536 151.791C538.724 148.759 540.048 137.546 550.009 143.664C551.287 144.449 552.902 141.571 553.013 139.63C553.189 136.619 553.059 133.589 553.059 129.236C561.028 139.231 557.353 149.535 557.919 159.248C558.278 165.412 554.863 169.221 550.786 172.862C549.527 173.988 548.602 176.053 546.779 173.029C540.8 163.093 538.585 171.295 535.596 175.515C544.725 178.705 537.752 184.282 537.573 188.851C543.098 190.168 539.989 193.584 539.411 196.388C541.452 198.079 544.964 194.821 546.585 199.034C542.275 203.798 537.749 208.794 533.233 213.802C531.603 215.61 529.756 216.671 527.473 215.063C524.354 212.868 529.032 211.573 528.203 209.601ZM58.2698 79.6842C58.1337 79.2792 57.8429 78.9515 57.3912 78.7011C55.3897 79.239 53.3912 79.78 51.3897 80.3179C50.8453 80.6271 50.3132 80.9578 49.7471 81.2206C49.6573 81.2608 49.2799 80.9888 49.2769 80.8559C49.0325 69.4918 54.8328 58.8017 53.7223 46.9369C48.6643 48.498 50.5947 53.8802 47.4362 55.9421C46.3225 53.9853 48.2745 50.4333 45.7874 50.0159C40.8345 49.1843 43.8229 56.2482 39.86 57.2343C39.6436 46.4979 51.1547 40.9488 62.1739 46.2444C63.269 46.3279 64.3641 46.4114 65.4592 46.4918C66.0316 42.9892 67.1205 40.0245 71.6061 40.5841C72.7941 40.683 73.985 40.785 75.173 40.884C78.4182 42.2566 76.5682 44.368 75.9773 46.3187C71.7422 60.332 67.5381 74.3546 63.2566 88.3556C62.7833 89.9044 63.0865 92.4548 59.2567 91.5892C60.2064 87.8826 61.1623 84.1575 62.1182 80.4324C60.8344 80.185 59.5536 79.9346 58.2698 79.6842ZM-133.639 76.7164C-132.584 79.3596 -128.72 77.3254 -127.811 80.2097C-140.049 84.9736 -152.776 81.2608 -165.227 82.3304C-167.204 82.5005 -168.859 81.7059 -169.642 79.6749C-171.09 72.274 -164.621 74.6699 -161.41 73.0315C-160.33 72.101 -159.247 71.1735 -158.168 70.243C-150.22 60.4896 -140.5 53.33 -127.409 55.698C-115.013 57.9392 -102.379 47.5737 -90.4189 56.9438C-79.8297 52.5818 -75.0996 62.2146 -68.2876 66.4838C-62.3449 70.209 -62.6016 75.4181 -67.1182 80.5096C-79.1614 83.4125 -91.183 83.9441 -103.171 80.2097C-98.8953 76.3764 -100.012 74.6019 -105.373 74.6699C-114.827 74.7905 -124.281 75.01 -133.735 75.1862C-133.868 75.7086 -133.837 76.2187 -133.639 76.7164ZM403.452 220.111C406.289 218.482 409.129 216.85 411.965 215.221C415.891 208.958 421.784 212.445 427.953 211.595C425.367 215.542 424.117 219.586 419.418 215.23C416.844 212.843 414.969 214.751 413.095 216.405C412.071 219.373 410.722 222.278 410.097 225.33C409.28 229.318 407.003 230.251 403.322 229.998C396.145 229.503 391.678 224.003 393.491 215.19C395.099 207.365 401.135 213.286 406.112 211.585C404.148 214.81 403.022 216.652 401.899 218.495C402.419 219.032 402.935 219.57 403.452 220.111ZM272.084 173.706C283.982 161.344 296.458 149.504 306.336 135.323C308.675 131.963 311.756 132.705 314.837 134.387C313.244 138.875 307.706 140.059 307.567 145.012C314.305 145.145 315.013 138.282 318.924 135.113C321.108 133.345 323.221 131.774 325.367 134.093C327.106 135.969 325.646 138.205 324.068 139.858C317.34 146.913 310.763 154.125 303.774 160.911C299.369 165.189 296.393 171.313 289.572 172.726C286.28 180.476 280.514 185.88 273.368 190.038C276.202 182.081 282.896 177.283 288.115 171.304C292.18 163.616 300.743 159.334 303.672 150.787C299.4 148.437 298.63 152.879 296.91 154.645C290.073 161.668 283.598 169.041 276.966 176.263C275.586 177.765 274.336 180.399 272.01 177.227C270.367 177.234 268.721 177.24 267.079 177.246C266.673 182.452 266.185 187.655 265.881 192.867C265.25 203.755 264.817 214.655 264.053 225.534C263.929 227.283 262.497 228.931 259.874 228.304C258.649 225.503 264.189 224.455 261.566 221.073C252.759 222.838 248.533 236.242 236.143 231.386C239.84 228.18 243.119 225.354 246.38 222.504C247.351 221.654 248.31 220.142 247.23 219.462C246.16 218.788 244.332 219.311 242.835 219.311L242.924 219.212C237.343 223.895 233.835 233.08 223.682 227.942C222.931 227.562 221.368 228.579 220.264 229.114C210.822 233.676 208.907 232.57 208.864 221.929C208.771 198.552 209.016 175.168 208.7 151.794C208.614 145.33 213.328 140.335 212.818 133.793C212.595 130.924 216.075 131.512 218.129 131.419C227.46 131.002 237.678 127.159 244.026 138.745C242.599 139.633 239.351 142.452 238.695 141.942C230.893 135.867 233.059 144.258 232.913 146.335C232.428 153.232 233.891 160.385 232.657 167.081C231.026 175.923 237.934 185.617 229.232 193.361C236.242 196.49 238.237 189.949 242.194 187.751C250.952 182.891 256.907 173.583 267.571 171.663C269.074 172.346 270.581 173.026 272.084 173.706ZM472.946 213.524C477.703 211.02 483.244 209.168 482.474 202.073C480.215 199.869 479.603 202.704 478.313 203.439C473.849 205.977 469.094 204.979 466.019 200.846C465.533 200.033 465.048 199.22 464.562 198.407C459.727 204.005 453.793 204.54 446.146 202.651C451.727 196.561 458.366 192.864 461.682 186.087C453.623 188.474 448.943 195.142 442.904 200.061C440.822 201.755 437.948 205.69 434.932 202.487C432.587 199.999 433.23 195.881 434.991 192.789C436.036 190.953 438.007 189.633 439.582 188.103C448.828 179.11 458.084 170.123 467.334 161.137C466.461 160.639 465.589 160.144 464.72 159.647C454.904 168.142 445.091 176.64 434.997 185.376C431.777 176.795 434.196 171.434 440.321 166.37C447.848 160.15 454.684 153.049 461.447 145.97C464.423 142.854 469.236 140.876 469.252 135.487C453.738 144.894 441.976 158.605 429.512 171.323C425.679 175.23 418.839 173.629 418.255 176.844C416.346 187.318 406.963 190.703 401.166 197.331C398.821 200.011 395.474 206.036 391.746 202.382C388.754 199.448 391.495 193.655 395.016 190.109C397.017 188.094 399.081 186.134 401.113 184.149C413.32 172.222 425.608 160.376 437.654 148.292C439.616 146.323 443.439 145.262 442.567 141.203C433.506 145.268 427.811 153.362 420.64 159.665C411.099 168.052 401.97 176.906 392.457 185.75C389.194 179.444 390.973 175.719 395.121 172.303C397.986 169.941 400.324 166.942 402.898 164.228C401.658 164.018 400.417 163.808 399.177 163.594C392.269 166.516 388.934 176.318 379.189 173.981C378.781 173.882 377.432 175.709 377.302 176.736C375.635 190.057 363.168 194.301 355.418 202.407C352.761 205.186 349.689 203.801 349.94 198.805C350.292 191.726 351.551 185.778 357.964 180.971C366.264 174.748 373.602 167.227 381.191 160.092C382.608 158.759 386.051 157.776 383.594 154.558C371.096 161.146 362.487 172.723 350.181 181.002C350.892 168.837 340.353 176.612 336.031 172.182C348.182 161.26 360.888 151.312 371.743 139.645C381.803 128.834 393.686 133.104 405.144 132.581C405.497 132.566 405.945 134.597 406.351 135.676C408.946 135.945 409.729 132.699 411.733 132.55C424.519 131.614 437.299 131.74 450.004 133.756C457.011 131.917 464.018 129.83 471.021 133.762C477.858 130.974 484.976 131.502 493.044 131.586C489.233 137.382 490.075 143.435 489.007 149.151C488.116 153.909 490.282 159.501 485.505 163.304C485.883 163.69 486.263 164.073 486.644 164.457C487.464 175.855 490.737 187.429 484.231 198.308C485.078 199.553 487.705 198.431 487.686 200.537C487.612 209.041 487.519 217.552 487.049 226.038C486.941 227.991 485.515 231.24 482.928 230.032C476.543 227.042 469.45 229.917 463.003 227.565C465.113 221.503 472.695 220.096 473.014 213.443C465.765 215.944 461.657 222.807 455.148 226.303C452.339 227.812 448.383 231.092 447.804 224.606C447.263 218.535 451.594 213.446 456.324 212.269C461.357 211.01 467.996 206.902 472.946 213.524ZM100.305 59.4478C97.5363 60.199 98.3066 63.0926 97.0754 64.7712C95.3368 67.1393 96.7103 71.8042 92.5866 72.1906C87.606 72.6605 90.8697 66.5396 87.8473 64.8547C84.4784 70.2987 84.5805 76.6175 82.0685 81.8111C79.6865 86.7388 79.8505 81.7554 79.2318 80.4385C77.9758 80.4416 76.7198 80.4416 75.4638 80.4447C67.8412 83.9195 72.0795 77.3872 72.4724 76.262C76.9301 63.479 78.0872 49.5832 86.0902 37.3103C86.2078 42.8346 97.3445 43.0232 91.7328 51.1567C92.2247 51.5833 92.7166 52.0068 93.2084 52.4335C96.4938 53.2372 100.933 48.9309 103.102 54.6685C107.009 58.304 110.303 62.3971 113.041 67.5968C108.964 69.4238 105.159 71.1303 101.447 72.7935C98.4211 68.1223 102.056 63.6181 100.305 59.4478ZM208.768 96.5417C219.985 91.175 231.41 93.203 242.841 95.5957C247.877 95.6915 252.913 95.7626 257.947 95.8955C261.566 95.9914 266.426 94.727 268.322 97.7411C270.683 101.494 264.421 101.556 263.45 104.273C262.615 106.607 262.095 109.108 261.817 111.581C261.417 115.106 260.839 118.311 256.455 119.406C256.171 116.082 256.177 112.911 255.555 109.866C254.949 106.901 254.51 102.731 250.655 102.826C246.831 102.922 247.125 107.192 245.943 110.005C244.536 113.359 248.418 120.12 242.25 119.792C236.338 119.477 240.827 113.096 239.506 109.618C237.882 105.34 236.762 100.854 231.082 101.064C225.477 101.275 226.352 105.878 225.999 109.516C225.817 111.399 225.975 113.399 225.368 115.136C223.831 119.554 221.062 123.449 216.007 123.211C209.73 122.914 212.731 117.545 212.363 114.357C211.661 108.295 213.764 101.735 208.768 96.5417ZM123.018 204.197C121.511 208.868 115.884 211.629 116.246 216.927C117.081 229.086 110.183 230.82 100.382 229.877C96.3515 229.491 92.2 230.115 88.1226 230.508C84.6053 230.845 82.8203 229.837 83.077 225.948C83.606 218.012 81.0137 210.809 77.4221 203.894C89.292 200.061 101.508 202.948 113.539 202.144C116.695 201.934 120.528 200.537 123.018 204.197ZM-168.11 90.3557C-166.449 87.7837 -163.801 88.0898 -161.298 88.0805C-148.012 88.0465 -134.725 88.0155 -121.438 88.0464C-118.997 88.0526 -116.256 87.4529 -114.694 90.263C-117.896 98.1925 -120.593 106.239 -117.701 114.852C-116.365 118.834 -117.945 119.604 -121.565 120.046C-130.221 121.103 -129.534 114.552 -131.455 109.352C-133.809 102.981 -134.174 93.2184 -143.569 93.7099C-153.858 94.2478 -151.529 104.103 -152.522 110.793C-153.209 115.412 -151.838 120.342 -159.569 119.99C-165.954 119.699 -168.754 117.421 -168.881 111.034C-168.974 106.341 -168.875 101.482 -171.08 97.0981C-172.872 93.5461 -170.663 91.9138 -168.11 90.3557ZM224.026 87.6013C222.64 86.9212 220.183 86.4234 220.035 85.5362C218.723 77.7582 217.235 69.7947 223.255 63.0586C228.567 57.1169 242.086 53.0239 248.391 55.3363C262.07 60.3536 269.705 72.1597 269.455 87.898C256.375 92.5692 242.862 88.8904 229.594 89.9415C227.441 90.1115 225.05 90.3372 224.026 87.6013ZM20.4758 119.947C17.673 119.684 14.8765 119.248 12.0707 119.189C-3.66626 118.855 -1.1698 121.128 -2.04529 105.556C-3.28271 83.5701 -3.1156 83.567 -25.4232 80.6055C-25.9151 80.5406 -26.342 79.9902 -26.7968 79.6625C-18.4844 67.2598 -12.913 66.422 -2.24329 75.721C-0.00970459 77.6686 1.35449 80.0428 2.75592 82.5067C4.77911 86.0649 7.15186 86.9149 11.7953 87.8547C20.6057 89.6385 32.5964 89.0357 36.5499 100.638C39.1454 108.255 43.9343 112.691 51.232 115.486C52.9829 116.157 58.0192 115.133 56.2559 120.194C56.3951 120.478 56.6209 120.754 56.6487 121.047C56.6735 121.298 56.4662 121.805 56.3704 121.802C44.389 121.489 32.2127 124.893 20.4758 119.947ZM-327.76 97.5371C-325.699 102.276 -329.925 106.545 -328.737 111.266C-327.407 116.562 -329.458 118.407 -335.036 118.389C-350.853 118.336 -366.67 118.877 -382.488 119.152C-387.564 119.239 -390.661 117.786 -390.082 111.584C-389.529 105.646 -390.095 99.6021 -390.219 93.6048C-390.243 92.3744 -392.273 90.3031 -388.959 90.6401C-381.485 91.4006 -383.066 87.7218 -384.347 82.8312C-385.284 79.2483 -385.507 73.8383 -383.465 71.5662C-381.331 69.192 -376.387 71.0561 -372.922 73.016C-370.639 74.3051 -370.689 76.5495 -369.903 78.5744C-367.648 84.38 -357.043 90.6834 -352.793 88.7111C-343.623 84.4573 -335.651 84.8067 -329.514 93.8583C-327.753 92.4548 -328.227 88.7637 -324.805 89.1068C-317.251 89.8673 -321.594 97.2001 -318.581 100.517C-317.548 101.655 -316.323 103.318 -318.253 104.409C-319.958 105.374 -323.005 106.626 -322.736 102.786C-322.448 98.6747 -324.678 97.9297 -327.76 97.5371ZM-119.959 23.708C-120.133 23.4483 -120.389 23.2103 -120.46 22.9259C-120.525 22.6601 -120.464 22.1221 -120.34 22.085C-110.317 19.0184 -100.263 17.5902 -90.1466 21.708C-78.6417 23.8812 -68.0432 28.5646 -57.6984 33.786C-52.8786 36.219 -48.0433 39.8298 -46.4006 44.7482C-44.8353 49.4379 -51.4648 50.1272 -53.8128 53.197C-55.5328 55.4444 -57.8066 57.389 -59.0317 59.8652C-60.9095 63.6676 -62.5738 63.0679 -65.2961 60.7864C-72.8908 54.4243 -81.7322 50.4426 -91.1891 47.5954C-114.743 40.5006 -136.621 45.6045 -157.778 56.3936C-158.672 57.5405 -159.764 57.4725 -160.94 56.9129C-160.537 56.1555 -160.138 55.3981 -159.736 54.6407C-151.161 38.3181 -136.337 30.0145 -119.959 23.708ZM-394.11 198.249C-398.147 204.837 -395.354 212.08 -395.96 218.989C-396.347 223.404 -396.251 227.648 -400.375 230.48C-408.22 231.148 -411.416 228.282 -411.097 219.737C-410.525 204.361 -411.286 188.931 -411.49 173.527C-412.563 173.518 -413.634 173.505 -414.707 173.496C-416.727 189.763 -420.062 205.934 -419.323 222.424C-419.054 228.434 -421.559 230.05 -427.026 230.211C-433.884 230.412 -440.687 230.094 -447.663 231.339C-452.789 232.254 -460.158 230.536 -460.294 222.18C-460.761 193.457 -463.576 164.788 -462.274 136.028C-462.156 133.4 -463.338 129.416 -459.774 128.751C-456.467 128.136 -452.331 126.72 -449.414 130.467C-448.693 131.394 -447.737 132.142 -446.834 132.906C-446.803 132.934 -446.15 132.269 -445.819 131.895C-439.524 124.766 -430.029 126.568 -424.925 129.777C-415.787 135.518 -407.026 136.962 -397.123 135.543C-392.347 134.86 -392.508 137.129 -393.572 140.384C-392.91 140.866 -392.248 141.352 -391.586 141.834C-390.621 142.474 -389.634 145.689 -388.91 143.596C-386.927 137.864 -380.885 135.425 -378.967 129.916C-368.443 125.316 -357.436 129.317 -346.695 128.222C-343.62 127.91 -339.679 126.367 -337.3 130.309C-331.02 130.773 -324.737 131.62 -318.457 131.638C-267.633 131.778 -216.809 131.793 -165.988 131.781C-66.9481 131.756 32.0921 131.716 131.129 131.561C136.057 131.555 141.214 132.686 145.95 130.161C153.517 126.575 161.078 126.602 168.632 130.195C175.42 131.883 182.761 133.614 189.115 131.122C202.844 125.734 202.68 125.153 204.323 139.398C204.645 142.186 204.542 145.086 204.193 147.881C202.665 160.172 202.371 172.501 204.184 184.727C205.675 194.78 203.599 204.679 203.741 214.667C203.815 219.818 202.652 226.739 193.665 224.167C190.51 223.265 191.862 226.443 191.382 227.892C190.411 230.427 188.246 230.601 186 230.601C172.589 230.604 159.178 230.607 145.768 230.601C143.547 230.601 141.338 230.526 140.317 227.998C138.263 220.328 139.138 211.703 130.69 204.827C153.641 204.011 174.485 204.126 195.07 201.183C195.092 200.277 195.113 199.368 195.135 198.462C181.879 197.788 168.623 197.111 155.367 196.437C153.811 198.509 151.534 198.317 149.344 198.317C122.254 198.32 95.1636 198.314 68.0733 198.298C65.8738 198.298 63.6031 198.428 62.1584 196.23C60.9333 196.224 59.7083 196.221 58.4833 196.215C56.7416 198.75 54.0657 198.295 51.5847 198.295C13.902 198.311 -23.7806 198.311 -61.4633 198.267C-64.1918 198.264 -67.3409 199.028 -68.8537 195.556C-68.897 188.981 -69.8065 182.263 -68.7733 175.861C-67.4152 167.437 -68.7423 164.413 -78.3726 165.214C-100.371 167.041 -100.417 166.491 -99.251 188.826C-94.7994 202.036 -94.7994 202.036 -79.1151 202.033C-34.8989 202.027 9.31738 201.974 53.5336 202.092C57.0664 202.101 61.2087 200.379 64.0671 204.225C59.3742 210.942 58.0687 218.495 58.2419 226.52C58.2883 228.73 59.634 232.273 55.8228 232.672C46.9814 233.599 37.84 233.989 29.444 231.42C24.2933 229.843 27.8726 222.826 25.9793 218.643C25.5895 217.784 25.3915 216.844 25.0635 215.953C23.1796 210.865 20.3088 207.174 14.1743 207.097C8.00262 207.022 5.24622 210.819 3.07764 215.746C1.30505 219.774 2.28259 224.585 -0.616089 228.26C-1.37708 229.865 -2.7475 230.539 -4.42419 230.542C-24.9871 230.563 -45.5468 230.563 -66.1097 230.56C-68.0958 230.56 -69.8777 230.128 -70.7624 228.056C-72.3432 224.65 -73.5869 221.03 -75.5822 217.886C-79.2109 212.166 -86.7221 211.511 -90.8334 216.562C-92.5658 218.692 -93.6486 221.502 -94.4869 224.17C-96.0213 229.064 -100.247 227.664 -103.236 227.639C-106.546 227.611 -105.03 224.226 -104.853 222.402C-104.303 216.671 -105.593 212.29 -111.891 210.905C-119.276 209.282 -123.226 213.227 -125.444 219.598C-126.88 223.722 -127.257 228.359 -133.787 227.521C-139.829 226.746 -137.958 221.92 -138.629 218.798C-139.77 213.505 -142.19 210.009 -147.693 209.381C-153.657 208.701 -156.915 211.972 -159.216 217.193C-160.834 220.859 -160.175 225.599 -164.172 228.18C-165.107 228.919 -166.029 230.291 -166.975 230.304C-178.895 230.48 -190.814 230.486 -202.737 230.471C-204.583 230.468 -205.289 228.916 -205.985 227.5C-206.183 226.257 -206.421 225.021 -206.576 223.775C-207.414 217.125 -207.807 209.588 -216.453 208.781C-225.979 207.891 -227.535 215.564 -228.308 222.619C-228.791 227.008 -230.959 227.648 -234.538 227.488C-238 227.33 -241.49 227.271 -244.945 227.509C-249.728 227.837 -251.581 226.594 -250.795 221.169C-249.858 214.698 -251.98 208.63 -259.677 208.16C-267.237 207.699 -269.994 213.514 -270.637 219.879C-271.098 224.449 -270.3 229.024 -277.332 227.818C-282.461 226.94 -289.548 230.851 -289.962 220.439C-290.207 214.318 -294.08 208.701 -298.98 204.404C-296.589 200.527 -292.719 202.076 -289.477 202.07C-238.807 201.999 -188.141 202.048 -137.472 202.07C-137.478 198.258 -137.484 194.446 -137.49 190.635C-139.832 183.568 -141.701 176.526 -136.318 169.895C-135.826 168.432 -135.102 166.454 -137.348 166.281C-145.453 165.662 -153.583 165.375 -161.704 164.982C-165.289 164.809 -165.605 167.208 -165.611 169.932C-165.629 178.612 -165.701 187.296 -165.75 195.977C-167.043 198.308 -169.301 198.295 -171.513 198.298C-195.445 198.323 -219.377 198.339 -243.309 198.329C-245.793 198.329 -248.503 198.635 -249.493 195.405C-249.146 186.941 -244.274 178.201 -252.054 168.609C-252.11 178.748 -252.521 187.454 -255.476 195.714C-256.988 199.254 -260.19 198.295 -262.86 198.302C-290.334 198.348 -317.805 198.323 -345.279 198.277C-347.741 198.274 -350.411 198.765 -352.292 196.431C-359.824 196.672 -367.36 196.852 -374.887 197.204C-376.656 197.287 -379.038 197.315 -379.317 199.717C-379.7 202.991 -376.904 202.871 -374.822 203.068C-365.427 203.968 -356.019 204.682 -346.571 203.863C-331.961 200.972 -317.362 200.53 -302.795 204.144C-306.538 210.828 -309.829 217.66 -310.959 225.376C-311.172 226.832 -312.044 228.585 -313.183 229.447C-318.42 233.408 -338.154 228.755 -341.415 222.968C-345.241 216.173 -353 215.224 -355.005 221.907C-357.464 230.1 -362.333 230.764 -369.021 230.202C-371.803 229.967 -374.185 230.802 -376.885 232.165C-384.341 235.933 -388.635 233.485 -389.479 224.983C-390.287 216.856 -390.135 208.618 -390.138 200.428C-390.147 196.784 -390.93 195.658 -394.11 198.249ZM363.242 84.1482C353.859 79.5018 345.773 73.1335 335.852 70.6263C331.551 69.5381 329.049 66.5704 325.847 63.5687C318.175 56.3811 311.044 47.923 300.616 44.1113C311.539 27.2693 326.484 20.2951 341.797 24.8828C340.854 28.1906 336.13 25.331 335.298 28.7903C347.728 33.2481 361.902 29.217 373.639 37.1217C377.76 39.8978 385.865 41.3229 386.273 44.1979C387.52 53.0023 391.554 60.9348 393.07 69.6433C381.782 72.1071 367.038 66.3973 363.242 84.1482ZM136.546 69.8566C130.541 68.3511 124.803 69.9431 123.55 61.4325C122.829 56.5295 114.04 54.4243 110.554 48.9092C130.934 41.2301 158.813 41.0694 172.84 56.749C156.323 59.7508 145.094 79.44 150.674 95.0578C153.025 101.636 154.594 108.505 156.357 115.282C157.038 117.906 157.032 120.231 153.075 120.311C149.431 120.386 148.561 118.954 147.865 115.458C147.027 111.244 152.351 104.793 142.851 102.935C138.13 102.013 135.522 94.5477 129.041 95.3824C129.041 101.636 129.162 107.566 128.979 113.489C128.911 115.721 130.554 119.226 126.934 119.758C123.225 120.299 123.85 116.685 123.321 114.382C122.835 112.265 122.473 108.4 121.731 108.323C112.992 107.386 116.948 101.145 117.286 96.3376C110.885 98.7427 109.072 102.898 107.408 108.589C106.3 112.379 109.938 119.381 104.961 119.375C99.9431 119.369 99.8318 111.999 98.384 107.439C97.9045 105.936 97.1434 104.332 97.3012 102.854C97.8704 97.4691 96.7351 90.569 102.774 88.1361C110.016 85.2178 113.555 74.8431 123.612 77.8603C123.968 77.9685 125.057 77.1369 125.02 76.8401C123.924 68.0234 131.241 72.1566 136.546 69.8566ZM274.259 96.5664C277.767 94.0222 278.522 100.755 280.508 98.5913C284.539 94.1953 288.904 96.993 293.142 96.4427C299.926 95.5586 308.764 96.2974 313.064 94.0808C333.092 83.7679 345.333 96.1613 359.035 106.085C363.817 109.55 363.616 114.45 362.419 118.902C361.194 123.452 356.526 121.248 353.488 121.245C333.862 121.223 314.234 120.859 294.608 120.627C288.922 120.559 282.104 122.506 277.829 120.033C272.285 116.827 276.567 109.08 275.326 103.426C274.825 101.142 272.731 98.8633 274.259 96.5664ZM381.686 92.294C377.231 93.781 375.712 97.3516 373.503 100.387C370.515 104.493 367.106 104.453 364.56 100.038C357.327 87.5085 345.683 83.0538 332.17 81.6348C329.844 81.3906 325.782 83.0415 326.747 77.7645C327.496 73.6838 330.048 74.3484 333.132 74.5431C341.658 75.0779 347.016 81.7585 354.199 84.9117C362.357 88.4916 368.631 91.5676 373.692 80.1634C377.253 72.1412 390.573 72.1164 392.792 79.6872C394.957 87.0788 396.853 92.6712 405.624 92.9556C408.163 93.0391 407.622 95.5741 408.244 97.2743C411.031 104.929 406.115 112.388 408.958 120.021C405.138 119.396 401.791 117.721 399.733 118.713C391.833 122.531 383.52 120.92 375.409 121.585C370.462 121.99 369.41 120.324 371.99 115.461C375.901 108.094 377.11 99.5155 381.686 92.294ZM305.12 194.153C302.577 187.908 305.179 184.653 308.517 181.317C321.927 167.913 335.694 154.802 348.285 140.659C355.019 133.091 362.004 131.02 372.442 133.36C349.717 153.881 327.796 173.675 305.12 194.153ZM-34.2832 88.9213C-10.4691 85.6567 -10.469 85.6568 -12.0869 106.221C-13.0737 118.747 -13.111 117.752 -25.7667 118.225C-33.8965 118.531 -34.079 115.331 -34.4503 109.198C-34.8617 102.369 -31.332 95.6822 -34.2832 88.9213ZM-56.5507 93.614C-58.942 100.82 -58.5367 107.059 -58.8275 113.164C-58.9574 115.897 -59.0533 118.194 -62.7935 118.11C-65.6334 118.045 -68.0123 117.77 -67.6843 114.153C-66.7346 103.68 -70.0324 95.3792 -81.7044 91.2429C-81.0455 90.5752 -80.3865 89.9044 -79.7276 89.2367C-66.5985 89.2367 -53.4663 89.2367 -40.4115 89.2367C-41.6149 93.6543 -43.4277 98.3965 -44.0681 103.29C-44.5754 107.151 -46.9235 108.147 -49.7076 108.298C-53.4756 108.505 -51.4462 105.17 -51.9722 103.439C-52.8661 100.523 -52.2351 97.0733 -56.5507 93.614ZM350.435 134.782C335.471 148.994 321.788 162.036 308.022 174.995C306.305 176.612 305.098 180.242 301.55 176.26C298.286 172.6 301.43 171.304 303.097 169.527C312.801 159.174 322.521 148.83 332.452 138.696C336.393 134.674 340.78 130.878 350.435 134.782ZM239.014 167.882C232.363 150.11 245.371 144.156 255.441 136.541C258.664 134.105 261.105 135.908 260.919 139.03C260.746 141.917 260.285 143.825 262.936 146.029C264.18 147.061 265.189 150.406 262.135 152.391C254.349 157.452 246.698 162.713 239.014 167.882ZM329.104 178.377C329.296 183.203 334.998 185.936 333.544 187.791C330.197 192.066 329.627 197.108 327.32 201.532C326.441 203.22 324.455 203.881 322.429 203.934C318.011 204.052 313.596 204.234 309.179 204.373C307.635 204.422 305.875 204.759 305.027 203.025C303.963 200.852 305.535 199.495 306.939 198.23C313.921 191.952 320.928 185.698 329.104 178.377ZM266.772 153.915C265.801 158.221 270.441 162.849 265.346 166.244C256.245 172.309 247.271 178.56 238.244 184.733C240.09 166.933 257.229 164.185 266.772 153.915ZM-88.9804 91.2429C-89.6301 98.9807 -93.4321 106.079 -90.9974 113.538C-89.8342 117.106 -90.8396 118.021 -94.1931 118.055C-97.3299 118.086 -98.9199 117.121 -98.3198 113.659C-97.2216 107.352 -96.7205 101.262 -102.836 96.6838C-104.724 95.2711 -108.083 94.6188 -107.978 91.2429C-101.392 91.2429 -95.2232 91.2429 -88.9804 91.2429ZM-349.053 70.886C-343.797 57.896 -338.624 44.8718 -333.204 31.9498C-332.329 29.8631 -333.09 25.2414 -328.607 26.8025C-324.273 28.3111 -327.24 31.5201 -327.883 33.9499C-331.518 47.7376 -338.327 59.927 -349.053 70.886ZM87.3431 92.0653C92.6052 96.4088 92.3515 102.217 89.5952 105.225C86.6037 108.49 86.4305 110.574 87.6029 114.113C89.2766 119.158 86.2913 120.277 82.0871 119.857C79.108 119.56 78.1552 120.129 76.9796 114.997C74.2109 102.91 84.1196 99.8897 87.3431 92.0653ZM46.2513 91.28C51.7703 96.9898 51.7393 97.1753 63.7269 99.0889C66.6936 99.5619 68.4198 100.273 68.822 103.29C69.221 106.27 68.8436 110.135 66.2697 110.765C59.6371 112.391 54.1956 108.728 49.3789 104.545C45.2614 100.972 40.9768 97.2062 46.2513 91.28ZM448.058 213.437C440.667 213.922 437.264 217.808 436.429 224.557C436.256 225.957 435.099 227.389 434.069 228.505C431.251 231.565 427.396 230.709 424.535 229.435C421.951 228.282 421.224 224.761 422.613 221.96C425.064 217.011 440.933 211.289 448.058 213.437ZM273.343 214.661C272.016 206.352 279.06 210.547 281.962 209.483C286.104 207.965 289.68 210.89 288.662 215.48C287.744 219.62 290.197 225.472 284.375 227.648C281.51 228.718 273.421 218.853 273.343 214.661ZM273.489 164.648C275.428 150.412 292.217 133.011 301.989 134.637C292.591 144.536 283.475 154.131 273.489 164.648ZM367.502 228.304C364.331 227.546 358.534 228.622 361.175 224.072C364.547 218.263 368.9 211.737 377.336 211.635C379.579 211.607 382.719 211.975 380.946 214.952C377.624 220.535 375.214 227.559 367.502 228.304ZM329.655 211.554C333.621 211.159 339.663 211.61 338.933 216.099C338.088 221.271 332.371 226.508 327.279 227.135C322.837 227.682 321.689 220.009 320.285 216.411C318.979 213.057 324.937 210.986 329.655 211.554ZM532.193 228.69C532.258 217.236 540.493 212.877 545.313 206.781C548.141 203.204 552.249 204.472 556.96 208.707C542.504 207.514 542.594 222.34 532.193 228.69ZM300.879 225.392C301.81 219.394 297.182 215.063 301.928 211.595C305.807 208.763 310.274 209.851 314.757 211.295C310.32 215.802 306.41 219.774 300.879 225.392ZM287.239 186.474C291.679 196.125 283.113 198.796 279.778 203.946C278.488 205.937 275.97 206.769 274.07 204.886C272.195 203.028 273.145 200.765 274.822 199.04C278.732 195.015 282.704 191.052 287.239 186.474ZM273.755 151.012C274.856 132.334 274.856 132.334 285.201 134.334C281.829 139.246 278.556 144.016 273.755 151.012ZM403.767 202.265C408.358 198.258 411.189 192.545 417.246 189.902C417.849 201.971 416.049 203.736 403.767 202.265ZM16.745 69.1672C18.0474 64.4559 14.8765 55.9916 20.7728 49.5337C19.6591 57.052 19.1425 64.7001 16.745 69.1672ZM374.951 191.649C377.448 203.424 376.656 204.2 363.635 202.218C367.7 198.422 371.161 195.185 374.951 191.649ZM-188.302 101.003C-181.338 109.087 -181.385 110.793 -188.302 117.307C-188.302 111.962 -188.302 107.077 -188.302 101.003ZM205.105 84.8901C205.378 77.5728 205.767 69.4887 210.702 62.6227C208.836 70.0452 206.971 77.4677 205.105 84.8901ZM273.272 78.7383C277.615 82.3985 279.444 88.3494 282.927 87.4004C279.994 87.5457 272.845 90.467 273.272 78.7383ZM350.766 214.711C354.834 210.203 358.883 212.046 363.322 212.024C360.195 218.968 355.935 216.29 350.766 214.711ZM-415.975 219.682C-415.001 223.308 -414.048 225.568 -416.511 227.735C-418.562 225.268 -416.529 223.159 -415.975 219.682ZM254.887 230.78C255.629 230.217 256.282 229.673 257.003 229.247C257.083 229.197 257.554 229.806 257.844 230.109C257.207 230.665 256.595 231.25 255.905 231.732C255.834 231.778 255.32 231.191 254.887 230.78Z" fill="#F2F3F4"/>
<path d="M366.053 158.686C365.052 157.604 363.74 158.067 362.572 158.067C293.278 158.044 223.983 158.045 154.689 158.067C153.625 158.067 152.406 157.622 151.541 158.714C170.771 158.747 190.001 158.803 209.231 158.807C260.588 158.82 311.944 158.811 363.301 158.804C364.218 158.805 365.135 158.728 366.053 158.686Z" fill="#F2F3F4"/>
<path d="M482.232 158.665C481.328 157.663 480.127 158.059 479.052 158.058C457.585 158.035 436.118 158.034 414.651 158.061C413.602 158.062 412.359 157.577 411.57 158.798C434.309 158.803 457.048 158.809 479.786 158.806C480.602 158.806 481.417 158.714 482.232 158.665Z" fill="#F2F3F4"/>
<path d="M499.482 97.2279C501.902 96.5769 504.219 97.8069 506.837 97.3259C509.198 96.8919 510.97 99.8599 512.057 102.273C512.424 103.087 512.245 104.146 513.165 104.694C513.883 102.347 512.771 99.6129 510.187 97.6699C509.383 97.0659 508.444 96.6289 507.534 96.1819C506.007 95.4319 505.161 92.8939 503.172 93.7599C501.723 94.3899 500.735 96.0769 499.541 97.2929L499.482 97.2279Z" fill="#F2F3F4"/>
<path d="M535.727 158.693C535.041 157.823 534.061 158.065 533.175 158.064C520.326 158.047 507.477 158.043 494.628 158.051C493.741 158.052 492.763 157.807 492.074 158.675C506.626 158.681 521.176 158.687 535.727 158.693Z" fill="#F2F3F4"/>
<path d="M410.275 158.89C409.763 157.787 408.747 158.047 407.869 158.046C395.503 158.036 383.136 158.04 370.77 158.051C369.972 158.052 369.107 157.902 368.524 158.693C381.009 158.733 393.495 158.77 405.98 158.815C407.411 158.82 408.843 158.864 410.275 158.89Z" fill="#F2F3F4"/>
<path d="M202.527 109.963C202.527 109.634 202.527 109.305 202.527 108.976C198.247 108.842 193.967 108.708 189.687 108.575C189.893 109.18 190.099 109.786 190.304 110.391C194.378 110.248 198.452 110.106 202.527 109.963Z" fill="#F2F3F4"/>
<path d="M509.824 108.301C510.986 109.14 508.666 111.605 511.644 111.513C511.004 106.987 514.929 108.657 517.734 107.931C514.935 106.026 512.692 108.058 510.468 107.758C510.254 107.939 510.039 108.12 509.824 108.301Z" fill="#F2F3F4"/>
<path d="M509.825 108.301C510.04 108.12 510.255 107.94 510.469 107.759C506.683 106.444 502.753 106.975 498.874 106.849C499.083 107.372 499.292 107.896 499.5 108.419C502.942 108.38 506.383 108.34 509.825 108.301Z" fill="#F2F3F4"/>
<path d="M497.705 98.4919C496.143 99.6859 492.518 99.2929 494.363 103.242C496.303 102.206 497.067 100.397 497.705 98.4919Z" fill="#F2F3F4"/>
<path d="M181.45 145.097C181.703 144.802 182.173 144.509 182.176 144.212C182.223 138.895 182.225 133.577 182.184 128.26C182.182 127.953 181.734 127.648 181.494 127.343C181.479 133.261 181.465 139.179 181.45 145.097Z" fill="#F2F3F4"/>
<path d="M376.957 92.846C377.441 92.855 377.925 92.863 378.41 92.872C378.45 90.796 378.608 88.7 377.299 86.592C376.244 88.753 377.444 90.865 376.957 92.846Z" fill="#F2F3F4"/>
<path d="M223.345 88.243C223.366 87.815 223.387 87.388 223.408 86.96C223.004 87.014 222.599 87.067 222.195 87.121C221.965 87.181 221.734 87.242 221.504 87.302C217.652 87.878 219.185 90.692 219.19 92.871C219.441 92.383 219.691 91.896 219.942 91.408C219.477 88.634 221.358 88.381 223.345 88.243Z" fill="#F2F3F4"/>
<path d="M235.406 98.716C237.084 97.653 236.983 95.86 237.699 93.666C235.695 95.011 235.415 96.651 234.733 98.024C234.957 98.255 235.182 98.486 235.406 98.716Z" fill="#F2F3F4"/>
<path d="M538.274 157.372C537.583 157.564 536.912 157.776 536.937 158.692C537.957 158.709 538.977 158.726 539.998 158.743C539.996 158.342 539.994 157.942 539.992 157.541C539.419 157.485 538.847 157.429 538.274 157.372Z" fill="#F2F3F4"/>
<path d="M238.419 99.2461C239.07 98.0591 239.721 96.8711 240.371 95.6841C238.828 96.1921 238.505 97.4871 237.832 98.5291C238.028 98.7671 238.224 99.0071 238.419 99.2461Z" fill="#F2F3F4"/>
<path d="M489.607 158.678C488.38 157.737 487.153 157.773 485.927 158.68C487.153 158.679 488.38 158.679 489.607 158.678Z" fill="#F2F3F4"/>
<path d="M539.99 157.542C539.992 157.943 539.994 158.343 539.996 158.744C540.378 158.995 540.887 158.982 540.973 158.589C541.115 157.938 540.674 157.561 539.99 157.542Z" fill="#F2F3F4"/>
<path d="M306.385 86.646C306.952 87.502 307.577 87.549 308.26 86.78C307.635 86.736 307.01 86.691 306.385 86.646Z" fill="#F2F3F4"/>
<path d="M499.541 97.2931C498.715 97.0081 498.247 97.4171 497.973 98.1351C497.953 98.1891 498.243 98.4661 498.345 98.4431C498.986 98.3021 499.279 97.7981 499.481 97.2261C499.483 97.2281 499.541 97.2931 499.541 97.2931Z" fill="#F2F3F4"/>
<path d="M188.418 103.335C188.298 103.467 188.178 103.598 188.058 103.73C188.177 103.74 188.296 103.75 188.416 103.76C188.394 103.606 188.372 103.452 188.35 103.298C188.348 103.297 188.418 103.335 188.418 103.335Z" fill="#F2F3F4"/>
<path d="M240.907 101.134C240.695 101.484 240.482 101.834 240.27 102.184C240.455 102.41 240.639 102.637 240.824 102.863C241.06 102.48 241.295 102.097 241.531 101.714C241.323 101.522 241.115 101.328 240.907 101.134Z" fill="#F2F3F4"/>
<path d="M241.625 100.043C241.386 100.407 241.147 100.771 240.908 101.134C241.116 101.327 241.324 101.521 241.532 101.714C241.758 101.322 241.985 100.929 242.211 100.537C242.015 100.373 241.82 100.208 241.625 100.043Z" fill="#F2F3F4"/>
<path d="M242.404 98.938C241.863 99.108 241.777 99.599 241.625 100.044C241.82 100.209 242.015 100.374 242.211 100.539C242.43 100.158 242.649 99.777 242.869 99.396C242.713 99.243 242.558 99.09 242.404 98.938Z" fill="#F2F3F4"/>
<path d="M221.504 87.3021C221.734 87.2421 221.965 87.1811 222.195 87.1211C221.965 87.1821 221.734 87.2421 221.504 87.3021Z" fill="#F2F3F4"/>
<path d="M301.568 142.085C301.112 147.21 301.112 147.222 306.319 147.209C322.333 147.167 338.347 147.115 354.361 147.067C353.438 145.823 352.099 146.38 350.956 146.377C336.663 146.339 322.37 146.355 308.077 146.358C303.008 146.358 303.008 146.357 301.568 142.085Z" fill="#F2F3F4"/>
<path d="M237.005 147.125C253.566 147.155 270.127 147.199 286.687 147.177C287.521 147.176 288.805 147.948 289.213 146.37C272.834 146.363 256.456 146.347 240.077 146.37C239.029 146.372 237.778 145.871 237.005 147.125Z" fill="#F2F3F4"/>
<path d="M352.557 144.474C340.372 144.419 328.187 144.366 316.002 144.309C314.466 144.302 312.93 144.278 311.395 144.261C311.884 145.385 312.902 145.137 313.784 145.138C325.965 145.152 338.146 145.151 350.327 145.147C351.129 145.146 351.995 145.293 352.557 144.474Z" fill="#F2F3F4"/>
<path d="M251.068 144.316C240.636 144.393 230.204 144.47 219.772 144.548C220.38 145.303 221.243 145.143 222.039 145.145C230.92 145.16 239.8 145.169 248.681 145.153C249.544 145.151 250.579 145.461 251.068 144.316Z" fill="#F2F3F4"/>
<path d="M383.877 144.545C373.834 144.179 363.791 144.332 353.747 144.479C354.213 145.19 354.948 145.147 355.659 145.148C364.416 145.153 373.173 145.155 381.93 145.154C382.637 145.153 383.374 145.215 383.877 144.545Z" fill="#F2F3F4"/>
<path d="M280.07 144.4C271.047 144.339 262.024 144.277 253 144.215C253.32 145.26 254.196 145.161 254.999 145.161C262.735 145.163 270.471 145.158 278.207 145.151C278.922 145.15 279.652 145.154 280.07 144.4Z" fill="#F2F3F4"/>
<path d="M352.206 106.458C353.075 102.985 353.943 99.5119 354.812 96.0399C354.458 96.0129 354.105 95.987 353.751 95.96C352.047 99.462 351.579 103.355 350.266 106.982C350.912 106.807 351.559 106.633 352.206 106.458Z" fill="#F2F3F4"/>
<path d="M333.451 154.843C325.893 154.821 318.334 154.799 310.776 154.777C311.062 155.447 311.638 155.587 312.28 155.587C318.927 155.588 325.573 155.588 332.22 155.581C332.761 155.58 333.204 155.363 333.451 154.843Z" fill="#F2F3F4"/>
<path d="M356.797 94.1301C355.364 98.3481 353.931 102.565 352.493 106.78C352.903 106.858 353.317 106.939 353.732 107.02C355.137 102.755 356.542 98.4911 357.949 94.2261C357.566 94.1941 357.182 94.1621 356.797 94.1301Z" fill="#F2F3F4"/>
<path d="M359.265 107.019C360.283 103.65 361.445 100.315 361.928 96.8181C361.684 96.7421 361.439 96.6661 361.195 96.5891C360.146 100.066 359.096 103.543 358.047 107.02C358.453 107.02 358.859 107.02 359.265 107.019Z" fill="#F2F3F4"/>
<path d="M279.31 110.228C285.065 110.218 290.821 110.209 296.576 110.199C296.071 109.29 295.186 109.484 294.396 109.482C290.101 109.472 285.806 109.482 281.511 109.493C280.702 109.495 279.847 109.396 279.31 110.228Z" fill="#F2F3F4"/>
<path d="M205.064 143.922C204.495 147.779 205.234 151.729 204.231 155.555C205.564 154.639 205.533 153.267 205.658 151.838C205.854 149.602 204.951 147.26 206.256 145.129C206.178 144.737 206.1 144.344 206.022 143.952C205.703 143.942 205.383 143.932 205.064 143.922Z" fill="#F2F3F4"/>
<path d="M395.518 154.719C390.016 154.731 384.513 154.742 379.011 154.754C379.342 155.572 380.056 155.596 380.773 155.596C385.108 155.598 389.443 155.597 393.778 155.596C394.503 155.595 395.203 155.539 395.518 154.719Z" fill="#F2F3F4"/>
<path d="M420.754 109.433C415.859 109.401 410.964 109.369 406.07 109.336C406.401 110.222 407.174 110.149 407.869 110.094C412.158 109.754 416.527 110.944 420.754 109.433Z" fill="#F2F3F4"/>
<path d="M228.026 104.131C228.857 101.633 229.687 99.134 230.518 96.636C228.098 97.619 226.808 101.496 228.026 104.131Z" fill="#F2F3F4"/>
<path d="M280.582 154.817C276.077 154.744 271.571 154.671 267.066 154.598C267.292 155.056 267.519 155.558 268.117 155.559C271.97 155.563 275.824 155.562 279.677 155.505C279.982 155.5 280.28 155.056 280.582 154.817Z" fill="#F2F3F4"/>
<path d="M211.15 123.025C215.64 123.067 220.129 123.11 224.619 123.152C223.85 121.878 222.577 122.376 221.582 122.477C218.109 122.83 214.552 121.537 211.15 123.025Z" fill="#F2F3F4"/>
<path d="M358.683 146.955C363.596 146.988 368.508 147.02 373.42 147.053C372.615 145.87 371.376 146.322 370.357 146.39C366.468 146.649 362.52 145.715 358.683 146.955Z" fill="#F2F3F4"/>
<path d="M281.478 104.625C284.36 105.852 287.381 106.033 290.455 105.817C290.391 105.656 290.381 105.491 290.425 105.323C287.792 104.79 285.159 104.257 282.526 103.724C282.177 104.023 281.827 104.324 281.478 104.625Z" fill="#F2F3F4"/>
<path d="M221.619 146.952C226.336 146.982 231.053 147.013 235.77 147.043C231.061 145.874 226.343 146.017 221.619 146.952Z" fill="#F2F3F4"/>
<path d="M292.338 106.947C287.831 106.889 283.324 106.831 278.816 106.774C279.068 107.431 279.604 107.688 280.243 107.633C284.268 107.287 288.382 108.487 292.338 106.947Z" fill="#F2F3F4"/>
<path d="M294.877 88.6691C298.069 88.1571 301.277 87.8661 304.514 88.0221C301.244 86.6891 297.994 87.1521 294.754 88.1441C294.714 88.1561 294.694 88.3301 294.715 88.4161C294.738 88.5081 294.82 88.5851 294.877 88.6691Z" fill="#F2F3F4"/>
<path d="M463.893 134.123C465.454 132.833 466.997 131.524 468.219 129.888C468.05 129.667 467.88 129.446 467.711 129.225C465.973 130.72 464.107 132.078 462.692 133.92C463.091 133.986 463.492 134.055 463.893 134.123Z" fill="#F2F3F4"/>
<path d="M351.836 119.881C347.981 119.854 344.126 119.827 340.271 119.801C344.065 121.401 348.001 120.3 351.874 120.401C351.905 120.402 351.972 120.238 351.964 120.157C351.954 120.061 351.882 119.972 351.836 119.881Z" fill="#F2F3F4"/>
<path d="M311.959 107.044C308.074 107.012 304.19 106.979 300.305 106.947C304.18 108.155 308.066 107.983 311.959 107.044Z" fill="#F2F3F4"/>
<path d="M401.138 112.229C404.809 112.127 408.481 112.025 412.152 111.923C408.456 111.149 404.764 110.493 401.138 112.229Z" fill="#F2F3F4"/>
<path d="M199.739 135.908C199.692 136.313 199.646 136.717 199.599 137.122C199.946 137.125 200.292 137.129 200.639 137.132C200.639 133.928 200.639 130.724 200.639 127.295C199.757 127.743 199.853 128.299 199.958 128.86C200.127 131.218 200.444 133.579 199.739 135.908Z" fill="#F2F3F4"/>
<path d="M289.205 142.672C289.331 140.436 289.458 138.199 289.584 135.963C287.844 138.108 288.448 140.385 289.205 142.672Z" fill="#F2F3F4"/>
<path d="M501.91 150.041C501.062 149.95 501.599 149.18 501.309 148.816C500.01 148.04 500.043 149.59 499.378 149.922C499.254 151.232 500.537 151.089 501.182 151.446C501.501 151.622 502.007 150.723 501.91 150.041Z" fill="#F2F3F4"/>
<path d="M380.832 123.104C383.276 123.108 385.72 123.111 388.164 123.115C385.722 121.953 383.278 121.943 380.832 123.104Z" fill="#F2F3F4"/>
<path d="M498.441 131.717C497.716 132.445 496.992 133.174 496.267 133.902C496.507 134.164 496.748 134.426 496.988 134.688C497.678 133.941 498.367 133.195 499.057 132.448C498.852 132.205 498.647 131.961 498.441 131.717Z" fill="#F2F3F4"/>
<path d="M421.581 138.329C421.589 137.949 421.597 137.57 421.605 137.19C421.118 136.97 420.631 136.75 420.145 136.53C420.092 137.132 420.04 137.733 419.987 138.334C420.519 138.333 421.05 138.331 421.581 138.329Z" fill="#F2F3F4"/>
<path d="M232.682 111.339C232.084 111.483 232.045 112.028 231.893 112.479C231.883 112.508 232.214 112.724 232.259 112.689C232.726 112.324 233.208 111.935 232.605 111.296C232.603 111.296 232.682 111.339 232.682 111.339Z" fill="#F1EEEE"/>
<path d="M199.188 152.062C199.01 153.186 198.352 153.868 199.015 154.667C199.81 153.966 199.503 153.235 199.188 152.062Z" fill="#F1EEEE"/>
<path d="M416.046 155.652C416.187 155.786 416.353 155.975 416.375 155.959C416.598 155.804 416.796 155.614 417.002 155.434C416.908 155.336 416.756 155.14 416.73 155.155C416.497 155.294 416.286 155.469 416.046 155.652Z" fill="#F1EEEE"/>
<path d="M504.356 125.466C504.116 125.841 503.877 126.215 503.637 126.59C503.805 126.783 503.974 126.976 504.143 127.169C504.44 126.84 504.736 126.511 505.033 126.182C504.807 125.943 504.581 125.705 504.356 125.466Z" fill="#F2F3F4"/>
<path d="M399.737 98.3431L399.889 98.3601L399.797 98.3062L399.737 98.3431Z" fill="#F1EEEE"/>
<path d="M511.779 143.974C511.614 143.751 511.484 143.772 511.404 144.041C511.4 144.053 511.533 144.135 511.552 144.121C511.626 144.063 511.68 143.979 511.742 143.906L511.779 143.974Z" fill="#F1EEEE"/>
<path d="M348.979 93.6451L348.778 93.5601C348.778 93.5601 348.93 93.59 348.933 93.596C348.936 93.6 348.979 93.6451 348.979 93.6451Z" fill="#F1EEEE"/>
<path d="M262.533 109.122C262.669 108.896 263.042 108.653 262.526 108.467C262.46 108.443 262.286 108.72 262.162 108.858C262.284 108.947 262.408 109.035 262.533 109.122Z" fill="#F1EEEE"/>
<path d="M502.511 147.625C503.018 147.733 503.236 147.373 503.467 147.034C503.085 146.99 502.703 146.945 502.321 146.901C502.086 147.22 502.149 147.462 502.511 147.625Z" fill="#F2F3F4"/>
<path d="M261.979 109.798C262.162 109.571 262.344 109.345 262.529 109.12C262.406 109.035 262.282 108.947 262.16 108.857C261.867 108.969 261.573 109.081 261.28 109.192C261.513 109.394 261.746 109.596 261.979 109.798Z" fill="#F1EEEE"/>
<path d="M467.816 112.197C467.587 112.153 467.359 112.109 467.13 112.064C467.243 112.233 467.355 112.402 467.468 112.571C467.604 112.465 467.72 112.34 467.816 112.197Z" fill="#F1EEEE"/>
<path d="M291.493 141.276C291.494 141.683 291.494 142.09 291.494 142.496C291.499 147.322 291.504 147.189 296.238 147.372C298.608 147.464 299.436 146.825 299.29 144.387C299.139 141.87 299.662 139.342 299.481 136.785C299.371 135.235 298.907 134.768 297.313 134.743C291.482 134.652 291.483 134.581 291.493 141.276Z" fill="#F2F3F4"/>
<path d="M382.722 135.105C383.19 131.777 380.823 132.196 379.001 132.202C377.704 132.206 375.962 132.689 376.607 134.375C377.075 135.6 376.263 138.503 378.177 137.834C379.604 137.335 383.915 139.787 382.722 135.105Z" fill="#F2F3F4"/>
<path d="M383.68 141.722C378.504 140.387 374.19 140.193 369.894 141.875C374.223 143.463 378.536 143.577 383.68 141.722Z" fill="#F2F3F4"/>
<path d="M351.702 141.645C353.088 139.228 352.646 136.888 352.529 134.587C352.476 133.537 351.894 133.058 350.921 133.494C349.833 133.982 348.851 134.17 347.813 133.414C347.388 133.105 346.836 133.006 346.454 133.479C346.298 133.672 346.293 134.071 346.36 134.343C346.543 135.09 347.207 134.861 347.61 134.743C350.337 133.948 350.527 135.409 350.43 137.562C350.37 138.882 350.13 140.446 351.702 141.645Z" fill="#F2F3F4"/>
<path d="M260.186 143.269C261.546 140.204 261.318 137.324 260.833 134.571C260.501 132.686 254.925 131.338 253.371 132.538C252.559 133.166 252.704 133.759 253.602 134.104C254.059 134.279 254.602 134.26 255.108 134.276C259.009 134.406 259.003 134.402 259.002 138.485C259.001 139.997 258.792 141.56 260.186 143.269Z" fill="#F2F3F4"/>
<path d="M304.802 130.735C297.056 130.735 289.31 130.729 281.564 130.746C280.891 130.747 279.966 130.619 279.916 131.628C279.856 132.836 280.841 132.785 281.653 132.735C285.12 132.521 288.582 132.162 292.051 132.065C296.299 131.946 300.553 132.037 304.805 132.037C304.804 131.603 304.803 131.169 304.802 130.735Z" fill="#F2F3F4"/>
<path d="M226.333 137.753C226.682 139.437 225.52 142.314 227.517 142.266C229.798 142.212 228.925 139.319 228.695 137.679C228.492 136.235 229.389 133.492 227.682 133.552C225.325 133.635 227.18 136.446 226.333 137.753Z" fill="#F2F3F4"/>
<path d="M333.948 142.598C335.708 139.546 335.475 136.648 335.143 133.474C333.11 135.638 332.67 138.93 333.948 142.598Z" fill="#F2F3F4"/>
<path d="M235.075 134.721C234.333 137.132 234.506 139.553 234.877 141.979C236.002 139.595 235.672 137.162 235.075 134.721Z" fill="#F2F3F4"/>
<path d="M191.139 130.302C191.184 132.286 190.052 134.597 190.916 137C191.297 134.655 191.562 132.304 191.139 130.302Z" fill="#F2F3F4"/>
<path d="M206.43 126.41C205.969 129.255 205.211 132.089 206.178 135.872C207.158 132.372 206.684 129.574 207.072 126.879C206.858 126.723 206.644 126.566 206.43 126.41Z" fill="#F2F3F4"/>
<path d="M205.063 143.922C205.382 143.932 205.702 143.942 206.021 143.951C206.275 142.475 206.772 140.956 205.063 139.529C205.063 141.161 205.063 142.542 205.063 143.922Z" fill="#F2F3F4"/>
<path d="M199.738 135.908C200.443 133.579 200.126 131.218 199.957 128.86C199.435 131.195 199.53 133.55 199.738 135.908Z" fill="#F2F3F4"/>
<path d="M412.152 151.942C411.253 150.89 412.432 150.658 412.892 150.264C414.562 148.834 416.297 147.481 418.008 146.099C417.873 145.957 417.743 145.811 417.616 145.662C414.46 147.522 411.391 149.497 408.652 152.05C410.159 153.272 410.923 150.502 412.181 151.909L412.152 151.942Z" fill="#F2F3F4"/>
<path d="M415.077 141.902C412.504 143.75 409.702 145.334 407.903 148.098C411.222 147.162 413.244 144.447 415.77 142.432C415.539 142.255 415.308 142.078 415.077 141.902Z" fill="#F2F3F4"/>
<path d="M415.63 149.833C414.849 150.346 413.77 150.588 413.75 152.068C414.988 151.886 415.648 151.032 416.396 150.327C416.14 150.163 415.885 149.998 415.63 149.833Z" fill="#F2F3F4"/>
<path d="M415.769 142.432C416.249 141.992 416.729 141.553 417.318 141.013C416.106 140.651 415.607 141.31 415.076 141.902C415.306 142.078 415.537 142.255 415.769 142.432Z" fill="#F2F3F4"/>
<path d="M418.008 146.1C418.269 145.835 418.53 145.571 418.791 145.306C418.213 144.811 417.934 145.3 417.616 145.662C417.742 145.812 417.873 145.957 418.008 146.1Z" fill="#F2F3F4"/>
<path d="M417.887 149.021C417.991 148.814 418.095 148.607 418.199 148.399C417.879 148.437 417.559 148.475 417.239 148.513C417.455 148.683 417.671 148.852 417.887 149.021Z" fill="#F2F3F4"/>
<path d="M417.241 148.514C416.934 148.767 416.563 149.063 417.013 149.434C417.486 149.825 417.661 149.304 417.889 149.021C417.673 148.852 417.457 148.683 417.241 148.514Z" fill="#F2F3F4"/>
<path d="M416.398 150.328C416.701 150.066 416.967 149.761 416.52 149.441C416.066 149.115 415.87 149.565 415.632 149.834C415.887 149.998 416.142 150.163 416.398 150.328Z" fill="#F2F3F4"/>
<path d="M484.936 145.38C486.975 143.746 488.825 141.931 490.186 139.604C487.812 140.945 485.931 142.869 484.123 144.883C484.394 145.049 484.665 145.214 484.936 145.38Z" fill="#F2F3F4"/>
<path d="M487.545 136.309C486.371 137.285 485.184 138.246 484.035 139.251C483.836 139.425 483.796 139.782 483.519 140.447C485.834 139.798 486.932 138.12 488.293 136.81C488.043 136.643 487.794 136.476 487.545 136.309Z" fill="#F2F3F4"/>
<path d="M489.208 128.749C489.511 128.413 489.814 128.078 490.117 127.742C489.482 127.474 489.04 127.717 488.717 128.273C488.881 128.432 489.044 128.59 489.208 128.749Z" fill="#F2F3F4"/>
<path d="M489.612 146.37C490.486 146.28 490.63 145.826 490.243 145.106C489.464 145.244 489.011 145.544 489.612 146.37Z" fill="#F2F3F4"/>
<path d="M489.325 134.758C488.955 135.088 488.584 135.418 488.214 135.748C488.349 135.999 488.483 136.25 488.618 136.501C488.984 136.137 489.351 135.773 489.717 135.409C489.587 135.192 489.456 134.975 489.325 134.758Z" fill="#F2F3F4"/>
<path d="M487.456 129.364C487.191 129.598 486.925 129.832 486.66 130.066C486.888 130.235 487.116 130.403 487.344 130.572C487.552 130.372 487.761 130.172 487.969 129.972C487.798 129.769 487.627 129.567 487.456 129.364Z" fill="#F2F3F4"/>
<path d="M486.72 131.185C486.927 130.981 487.135 130.777 487.342 130.573C487.114 130.404 486.886 130.236 486.658 130.067C486.412 130.306 486.166 130.546 485.92 130.785C486.187 130.918 486.454 131.051 486.72 131.185Z" fill="#F2F3F4"/>
<path d="M489.719 135.409C489.925 135.205 490.131 135.001 490.338 134.797C490.196 134.623 490.053 134.449 489.911 134.275C489.717 134.436 489.522 134.597 489.328 134.758C489.457 134.975 489.588 135.192 489.719 135.409Z" fill="#F2F3F4"/>
<path d="M490.598 133.824C490.368 133.975 490.139 134.125 489.909 134.276C490.051 134.45 490.194 134.624 490.336 134.798C490.546 134.598 490.755 134.398 490.965 134.197C490.842 134.073 490.719 133.949 490.598 133.824Z" fill="#F2F3F4"/>
<path d="M484.295 145.969C484.509 145.773 484.722 145.576 484.936 145.38C484.665 145.214 484.394 145.049 484.123 144.883C483.994 144.953 483.895 145.052 483.825 145.181C483.982 145.443 484.139 145.706 484.295 145.969Z" fill="#F2F3F4"/>
<path d="M488.293 136.81C488.441 136.75 488.55 136.646 488.619 136.5C488.484 136.249 488.35 135.998 488.215 135.747C487.992 135.934 487.769 136.121 487.546 136.308C487.794 136.476 488.043 136.643 488.293 136.81Z" fill="#F2F3F4"/>
<path d="M484.516 132.05C484.302 132.247 484.088 132.445 483.873 132.642C484.155 132.803 484.437 132.963 484.718 133.124C484.961 132.847 485.204 132.57 485.447 132.293C485.137 132.212 484.827 132.131 484.516 132.05Z" fill="#F2F3F4"/>
<path d="M485.945 124.213C485.397 124.103 485.237 124.384 485.283 124.871C486.028 125.179 486.094 124.805 485.945 124.213Z" fill="#F2F3F4"/>
<path d="M485.449 132.293C485.422 132.051 485.473 131.657 485.353 131.596C484.935 131.383 484.696 131.706 484.517 132.05C484.828 132.131 485.138 132.212 485.449 132.293Z" fill="#F2F3F4"/>
<path d="M488.718 128.273C488.493 128.467 488.267 128.662 488.042 128.856C488.226 129.026 488.411 129.195 488.595 129.365C488.8 129.16 489.004 128.954 489.209 128.749C489.045 128.59 488.882 128.432 488.718 128.273Z" fill="#F2F3F4"/>
<path d="M485.921 130.784C485.671 131.069 485.452 131.39 485.91 131.644C486.37 131.9 486.518 131.46 486.721 131.184C486.454 131.051 486.187 130.918 485.921 130.784Z" fill="#F2F3F4"/>
<path d="M487.968 129.972C488.177 129.77 488.386 129.567 488.594 129.365C488.41 129.195 488.225 129.026 488.041 128.856C487.846 129.025 487.65 129.195 487.455 129.364C487.626 129.567 487.797 129.769 487.968 129.972Z" fill="#F2F3F4"/>
<path d="M227.768 112.603C228.046 111.915 228.174 111.303 227.105 111.301C227.049 111.876 227.12 112.387 227.768 112.603Z" fill="#F2F3F4"/>
<path d="M461.957 127.3C459.56 128.519 459.318 128.761 458.874 130.39C460.402 129.86 461.621 129.02 461.957 127.3Z" fill="#F2F3F4"/>
<path d="M469.033 128.021C468.592 128.422 468.152 128.824 467.711 129.225C467.88 129.446 468.05 129.667 468.219 129.888C468.635 129.486 469.051 129.084 469.467 128.681C469.322 128.461 469.177 128.241 469.033 128.021Z" fill="#F2F3F4"/>
<path d="M463.828 126.075C463 125.468 462.716 125.972 462.545 126.704C463.374 127.314 463.601 126.695 463.828 126.075Z" fill="#F2F3F4"/>
<path d="M458.883 130.383C458.054 129.759 457.746 130.178 457.641 131.004C458.473 131.636 458.797 131.247 458.883 130.383Z" fill="#F2F3F4"/>
<path d="M465.049 124.831C464.484 124.71 464.018 124.686 464.391 125.495C464.879 125.54 465.152 125.372 465.049 124.831Z" fill="#F2F3F4"/>
<path d="M472.554 125.617C472.734 125.424 473.089 125.085 473.067 125.059C472.669 124.581 472.434 124.934 472.206 125.27C472.321 125.387 472.437 125.503 472.554 125.617Z" fill="#F2F3F4"/>
<path d="M477.91 125.489C478.545 125.679 478.766 125.456 478.574 124.822C478.086 124.778 477.805 124.942 477.91 125.489Z" fill="#F2F3F4"/>
<path d="M469.465 128.682C469.68 128.488 469.896 128.294 470.111 128.099C469.952 127.882 469.793 127.664 469.633 127.447C469.432 127.638 469.231 127.83 469.03 128.021C469.175 128.241 469.32 128.461 469.465 128.682Z" fill="#F2F3F4"/>
<path d="M470.113 128.099C470.317 127.894 470.521 127.688 470.725 127.483C470.564 127.295 470.402 127.108 470.241 126.92C470.039 127.096 469.837 127.271 469.635 127.447C469.795 127.664 469.954 127.882 470.113 128.099Z" fill="#F2F3F4"/>
<path d="M462.579 126.679C462.048 126.577 461.817 126.775 461.938 127.323C462.169 127.336 462.4 127.349 462.631 127.362C462.613 127.134 462.596 126.906 462.579 126.679Z" fill="#F2F3F4"/>
<path d="M470.868 126.358C470.659 126.545 470.449 126.733 470.24 126.92C470.401 127.108 470.563 127.295 470.724 127.483C470.929 127.278 471.134 127.073 471.338 126.867C471.182 126.698 471.025 126.528 470.868 126.358Z" fill="#F2F3F4"/>
<path d="M471.339 126.867C471.534 126.652 471.729 126.437 471.924 126.222C471.788 126.086 471.653 125.95 471.519 125.812C471.302 125.994 471.086 126.175 470.869 126.357C471.025 126.528 471.182 126.698 471.339 126.867Z" fill="#F2F3F4"/>
<path d="M476.688 126.712C477.348 126.937 477.525 126.681 477.338 126.061C476.802 125.96 476.508 126.099 476.688 126.712Z" fill="#F2F3F4"/>
<path d="M464.437 125.449C463.759 125.215 463.332 125.231 463.776 126.113C464.247 126.141 464.468 125.921 464.437 125.449Z" fill="#F2F3F4"/>
<path d="M471.924 126.223C472.134 126.021 472.345 125.819 472.555 125.617C472.437 125.503 472.321 125.387 472.207 125.269C471.977 125.45 471.748 125.632 471.518 125.813C471.653 125.95 471.788 126.087 471.924 126.223Z" fill="#F2F3F4"/>
<path d="M478.514 124.879C479.121 125.039 479.294 124.763 479.19 124.207C478.683 124.148 478.525 124.439 478.514 124.879Z" fill="#F2F3F4"/>
<path d="M477.297 126.102C477.929 126.295 478.147 126.075 477.954 125.444C477.419 125.349 477.17 125.537 477.297 126.102Z" fill="#F2F3F4"/>
<path d="M499.841 131.623C500.171 131.263 500.502 130.902 500.832 130.542C500.679 130.293 500.526 130.043 500.373 129.794C500.027 130.16 499.681 130.527 499.336 130.893C499.504 131.137 499.672 131.38 499.841 131.623Z" fill="#F2F3F4"/>
<path d="M499.336 130.893C499.038 131.168 498.74 131.442 498.442 131.717C498.647 131.961 498.853 132.205 499.058 132.448C499.319 132.173 499.58 131.898 499.84 131.623C499.672 131.38 499.504 131.137 499.336 130.893Z" fill="#F2F3F4"/>
<path d="M503.638 126.59C503.164 126.88 502.407 127.268 502.92 127.814C503.526 128.459 503.767 127.484 504.143 127.168C503.975 126.976 503.807 126.783 503.638 126.59Z" fill="#F2F3F4"/>
<path d="M500.831 130.542C501.036 130.337 501.241 130.132 501.445 129.926C501.33 129.657 501.215 129.389 501.1 129.12C500.857 129.344 500.615 129.569 500.372 129.793C500.525 130.043 500.678 130.293 500.831 130.542Z" fill="#F2F3F4"/>
<path d="M506.193 138.39C507.085 138.841 506.973 138.294 506.847 137.732C506.404 137.728 506.006 137.768 506.193 138.39Z" fill="#F2F3F4"/>
<path d="M498.205 127.941C497.647 127.775 497.378 127.898 497.616 128.529C497.829 128.546 498.043 128.564 498.256 128.581C498.24 128.368 498.222 128.154 498.205 127.941Z" fill="#F2F3F4"/>
<path d="M498.823 127.324C498.256 127.151 498.035 127.323 498.232 127.915C498.446 127.932 498.66 127.95 498.875 127.967C498.858 127.752 498.84 127.538 498.823 127.324Z" fill="#F2F3F4"/>
<path d="M499.434 126.711C498.793 126.464 498.666 126.731 498.843 127.302C499.057 127.319 499.271 127.337 499.486 127.354C499.469 127.14 499.451 126.925 499.434 126.711Z" fill="#F2F3F4"/>
<path d="M502.059 129.309C502.408 129.019 502.923 128.681 502.242 128.3C501.647 127.968 501.523 128.654 501.249 128.973C501.519 129.085 501.789 129.197 502.059 129.309Z" fill="#F2F3F4"/>
<path d="M500.056 126.087C499.467 125.896 499.202 126.03 499.459 126.685C499.675 126.702 499.892 126.719 500.109 126.736C500.091 126.52 500.074 126.304 500.056 126.087Z" fill="#F2F3F4"/>
<path d="M501.445 129.926C501.65 129.72 501.855 129.514 502.059 129.308C501.789 129.196 501.519 129.084 501.248 128.973C501.248 128.973 501.099 129.123 501.099 129.121C501.215 129.389 501.33 129.658 501.445 129.926Z" fill="#F2F3F4"/>
<path d="M403.673 116.241C403.692 117.315 403.351 118.677 404.624 118.844C405.923 119.014 405.869 117.569 405.663 116.835C405.317 115.603 406.465 113.449 404.651 113.293C403.342 113.179 404.118 115.303 403.673 116.241Z" fill="#F2F3F4"/>
<path d="M363.325 99.9009C363.478 99.2539 363.63 98.6059 363.783 97.9589C363.624 97.8219 363.465 97.6839 363.305 97.5459C363.153 98.2069 363.002 98.8699 362.852 99.5319C363.007 99.6589 363.165 99.7819 363.325 99.9009Z" fill="#F2F3F4"/>
<path d="M362.851 99.532C362.267 100.125 361.971 100.764 362.5 101.569C363.41 101.292 363.1 100.467 363.324 99.901C363.164 99.782 363.006 99.659 362.851 99.532Z" fill="#F2F3F4"/>
<path d="M366.027 100.301C366.886 100.223 366.496 99.523 366.631 99.085C365.969 99.262 366.056 99.81 366.027 100.301Z" fill="#F2F3F4"/>
<path d="M415.593 128.27C413.826 129.395 412.071 130.532 411.387 132.687C411.54 132.874 411.692 133.061 411.845 133.248C413.375 131.806 414.906 130.365 416.436 128.923C416.155 128.705 415.874 128.487 415.593 128.27Z" fill="#F2F3F4"/>
<path d="M416.434 128.922C417.008 128.458 417.996 128.346 417.856 127.15C416.808 126.968 416.241 127.712 415.591 128.27C415.873 128.487 416.154 128.705 416.434 128.922Z" fill="#F2F3F4"/>
<path d="M411.386 132.687C411.272 132.879 411.158 133.071 411.044 133.264C411.311 133.258 411.577 133.252 411.844 133.247C411.692 133.061 411.539 132.874 411.386 132.687Z" fill="#F2F3F4"/>
<path d="M432.447 128.537C431.558 128.602 431.188 128.925 431.835 129.759C432.796 129.731 433.084 129.366 432.447 128.537Z" fill="#F2F3F4"/>
<path d="M433.049 127.941C432.449 127.743 432.322 128.02 432.442 128.545C432.661 128.562 432.88 128.579 433.098 128.597C433.082 128.378 433.066 128.159 433.049 127.941Z" fill="#F2F3F4"/>
<path d="M463.569 151.677C463.445 151.891 463.164 152.204 463.225 152.301C463.52 152.769 463.807 152.441 464.07 152.2C463.903 152.026 463.736 151.852 463.569 151.677Z" fill="#F2F3F4"/>
<path d="M501.887 148.238C502.455 148.364 502.625 148.091 502.553 147.575C502.316 147.54 502.158 147.176 501.824 147.509C501.489 147.842 501.852 148.001 501.887 148.238Z" fill="#F2F3F4"/>
<path d="M501.271 148.854C501.826 148.967 502.049 148.748 501.933 148.191C501.697 148.157 501.539 147.795 501.206 148.127C500.874 148.46 501.236 148.618 501.271 148.854Z" fill="#F2F3F4"/>
<path d="M504.354 148.848C505.119 148.772 505.536 148.347 505.617 147.587C504.449 147.259 503.966 147.618 504.354 148.848Z" fill="#F2F3F4"/>
<path d="M505.583 147.621C506.357 147.551 506.741 147.09 506.852 146.356C505.681 146.027 505.254 146.445 505.583 147.621Z" fill="#F2F3F4"/>
<path d="M506.816 146.399C507.46 146.181 508.08 145.952 507.446 145.11C506.741 145.298 506.18 145.556 506.816 146.399Z" fill="#F2F3F4"/>
<path d="M507.411 145.155C507.638 145.184 507.874 145.621 508.079 145.197C508.17 145.008 508.08 144.731 508.073 144.493C507.598 144.46 507.375 144.679 507.411 145.155Z" fill="#F2F3F4"/>
</svg>
